<?xml version="1.0" encoding="utf-8"?>
<!-- Generator: Adobe Illustrator 23.0.1, SVG Export Plug-In . SVG Version: 6.00 Build 0)  -->
<svg version="1.1" id="Layer_1" xmlns="http://www.w3.org/2000/svg" xmlns:xlink="http://www.w3.org/1999/xlink" x="0px" y="0px"
	 viewBox="0 0 300 300" style="enable-background:new 0 0 300 300;" xml:space="preserve">
<style type="text/css">
	.st0{fill:#F8E2CF;}
	.st1{fill:#561F13;}
	.st2{fill:#D29867;}
	.st3{fill:none;stroke:#BC6D46;stroke-width:2;stroke-miterlimit:10;}
	.st4{fill:#F6E0D9;}
	.st5{fill:none;stroke:#BC6D46;stroke-width:1.5;stroke-miterlimit:10;}
	.st6{fill:none;stroke:#4F3022;stroke-width:2;stroke-miterlimit:10;}
	.st7{fill:#B84A2B;}
	.st8{fill:#962C1F;}
</style>
<rect class="st0" width="300" height="300"/>
<g>
	<path class="st1" d="M10.6,300c5.3-9.2,23-78.9,42.4-89c19.4-10.1,179.1-5.4,183.9,0c4.8,5.4,37.4,55.9,50.4,89H10.6z"/>
	<path class="st1" d="M201.4,239.8H92c-6.6,0-12-5.4-12-12V94.1c0-6.6,5.4-12,12-12h109.4c6.6,0,12,5.4,12,12v133.7
		C213.4,234.4,208,239.8,201.4,239.8z"/>
	<ellipse class="st2" cx="144.2" cy="95.8" rx="72.4" ry="87.4"/>
	<path class="st3" d="M130.5,129.1c9.1,7.1,18.3,7.1,27.4,0"/>
	<path class="st4" d="M92.6,86.1c35.9-26.6,78.8-22,107.9,0C200.4,66,133.8,10.9,92.6,86.1z"/>
	<path class="st1" d="M117.4,106.8h-2.3c-3.1,0-5.7-2.6-5.7-5.7v-5.4c0-3.1,2.6-5.7,5.7-5.7h2.3c3.1,0,5.7,2.6,5.7,5.7v5.4
		C123.1,104.2,120.5,106.8,117.4,106.8z"/>
	<path class="st1" d="M173.2,106.8h-2.3c-3.1,0-5.7-2.6-5.7-5.7v-5.4c0-3.1,2.6-5.7,5.7-5.7h2.3c3.1,0,5.7,2.6,5.7,5.7v5.4
		C178.9,104.2,176.3,106.8,173.2,106.8z"/>
	<path class="st5" d="M126.9,101.8c-1,4-3.7,6.7-8.1,8.1"/>
	<path class="st5" d="M161.8,101.8c1,4,3.7,6.7,8.1,8.1"/>
	<path class="st6" d="M103,86.1c5.5-4.2,11.7-7.1,18.8-8"/>
	<path class="st6" d="M183.9,86.1c-5.5-4.2-11.7-7.1-18.8-8"/>
	<path class="st6" d="M124,150.8c13.4,4.9,26.9,4.9,40.3,0"/>
	<path class="st5" d="M136.1,159.6c6,1.7,11.4,2,16.1,0"/>
	<path class="st7" d="M250.2,214.7C216.5,170.9,227.3,66,202,36.4c-42-49.2-99-28.1-118.7-0.9c-20.3,27.9-17.9,141.2-31,159.4
		c-43.5,60.6,34.9,66.2,73.6,73.1C172,276.2,276,247.4,250.2,214.7z M144.1,211c-21.2,0-69.5-39.1-54.6-112.6
		c11.5-56.9,103.3-58.4,113.3,0C215.9,175.3,160.6,211,144.1,211z"/>
	<path class="st8" d="M71.1,209.2c5.1,4.4,17.7,11,22.8,15.3c6.5,5.5,14.4,9.9,22,13.5c8.4,4,8.2,5.9,16.6,9.9
		c3.7,1.8,7.5,3.5,11.6,3.9c5.3,0.4,10.5-1.7,15.5-3.6c15.9-6.1,32.4-10.7,49.1-13.8c-4.6,12.2-15.6,21.8-28.4,24.6
		c-5.6,1.2-11.4,1.2-17.1,1.9c-9.8,1.2-19.2,4.5-28.5,7.7c13.5,2.5,27.6-0.2,40-1.8c5.9-0.8,11.9-0.6,17.8-1.6
		c7.7-1.3,15.2-4,22.6-6.5c11.5-4,23.4-8.3,31.7-17.2c4-4.3,7.9-10.9,7.2-16.7c-0.9-7.6-4.8-11.8-9.3-17.9
		c-5.2-7.2-10.4-24.3-12.6-32.9c-0.6-2.5-3.4-15.7-3.9-17.9c-0.9,2-0.9,17.9-8.2,24.5c-5.9,5.4-11.7,12.6-18.5,16.8
		c-9.8,6.2-20.7,10.5-31.4,14.9c-5.5,2.2-10.9,4.4-16.4,6.6c-4.8,1.9-9.8,3.9-15,4c-10.1,0.2-28.3-7.9-36.2-14.4
		c-8.2-6.7-27.5-28.7-33.9-37.6c4.1,13.5,17.6,28.1,17.1,31.5c-0.1,0.5-0.3,1-0.8,1.2c-1.4,0.7-2.3,0-3.8-0.4
		c-10.5-2.8-20.5-4.6-28.4-9.6C55.9,200.2,67.1,205.7,71.1,209.2z"/>
</g>
</svg>
