<?xml version="1.0" encoding="utf-8"?>
<!-- Generator: Adobe Illustrator 23.0.1, SVG Export Plug-In . SVG Version: 6.00 Build 0)  -->
<svg version="1.1" id="Layer_1" xmlns="http://www.w3.org/2000/svg" xmlns:xlink="http://www.w3.org/1999/xlink" x="0px" y="0px"
	 viewBox="0 0 300 300" style="enable-background:new 0 0 300 300;" xml:space="preserve">
<style type="text/css">
	.st0{fill:#F7D577;}
</style>
<g>
	<g>
		<g>
			<g>
				<path class="st0" d="M10.1,46.7c10.7,0.1,66,16.4,71.2,17.5c0,0,2.2,2.9,0.6,16C75.4,62.7,22.3,50.9,10,47.4"/>
				<path class="st0" d="M10.1,44.7c10.7,0.1,66,16.4,71.2,17.5c0,0,7,0.9,5.4,14C81.5,62.6,22.3,48.9,10,45.4"/>
				<path class="st0" d="M113.9,112c6.9-16.4,45-38.4,108.7-61.6c-1.5,15-14.2,25-14.2,25c0.3,12.8-16.9,16.4-16.9,16.4
					c-0.3,6.8-6.9,8.5-6.9,8.5c-0.3,7.9-9.5,9.7-9.5,9.7c-1,4.9-2.6,5.2-8.5,6.5c-1.6,10-10.2,6.7-10.2,6.7c1.4,6.6-8.9,10-8.9,10
					c1,4.4-9.2,6.1-15.7,7.4c5.1,9.9,9.2,12-7.2-8.3C110.9,129.1,113.9,112,113.9,112z"/>
				<path class="st0" d="M80.3,89.6c6.6,27.8-1.2,51.8,18.7,74.3c19.6,22.1,32.6,34,85.5,54.4l0,0c25.3,12.4,43.5,37,45.9,26.4
					c0-0.1,0.1-0.2,0.2-0.2c11.1,1.1-31.5-53.8-34.9-60.9c-3.8-8.1-54.1-78.6-56.1-83.4c-2.2-5.2,0.5-38.6-30.7-42.2
					c-7.9-1.6-19.1,3.8-25.4,3.6c-2.8,0-10-2.7-10.5-1.5c-0.3,0.9,6.1,6.3,7.9,9.8c0.1,0.1,0,0.3-0.2,0.3c-3.1,0.4-5.2,1.5-5.1,2.2
					c0,0,0,0.1,0.1,0.1C78.6,75.6,79.9,88.4,80.3,89.6z"/>
				<path class="st0" d="M137.2,117.5C147.4,103,222.8,87.8,290,78.7C285.3,93,262.1,96,262.1,96c-5.7,11.1-15.1,10.8-15.1,10.8
					c-1.7,6.5-8.5,6.8-8.5,6.8c-2,7.7-11.4,7.4-11.4,7.4c-2,4.6-3.7,4.6-9.7,4.6C213.7,135,206,130,206,130c0,6.7-10.8,7.9-10.8,7.9
					c0,4.6-6.5,9.6-13.1,9.5c2.8,10.7-27,15.6-38.7-7.8C130.7,133.5,137.2,117.5,137.2,117.5z"/>
				<path class="st0" d="M100.3,66.7c1.9-0.7,3.1-0.1,4.3,1.1c0.8,0.8,0.8,2.2-0.1,3c-2,1.7-4.2,1.4-5.4-1.2
					C98.5,68.5,99.1,67.2,100.3,66.7z"/>
				<path class="st0" d="M147.2,200.4c-4.5-0.9-13.2-0.4-4.6,6.9c8.6,7.2,9.3,4.2,9.5,3.5c1.9,1.2,3.9,0.2,2.6-1.6
					c-1.2-1.8,2.2,0.3,2.9-2.1C158.3,204.8,152.5,201.4,147.2,200.4z"/>
				<path class="st0" d="M81.4,95.2c0.2,6,3.5,35.8,3.8,37.7s9.9-4.1,16.8-11.7s22.1-14.8,23.9-18.1
					C128.5,98.5,86.2,103.6,81.4,95.2z"/>
			</g>
		</g>
	</g>
</g>
</svg>
