<?xml version="1.0" encoding="utf-8"?>
<!-- Generator: Adobe Illustrator 23.0.1, SVG Export Plug-In . SVG Version: 6.00 Build 0)  -->
<svg version="1.1" id="Layer_1" xmlns="http://www.w3.org/2000/svg" xmlns:xlink="http://www.w3.org/1999/xlink" x="0px" y="0px"
	 viewBox="0 0 1366 2000" style="enable-background:new 0 0 1366 2000;" xml:space="preserve">
<style type="text/css">
	.st0{fill:#0A2138;}
	.st1{fill:#FFFFFF;}
	.st2{fill:none;}
	.st3{fill:none;stroke:#F9F7C8;stroke-width:2;stroke-miterlimit:10;}
	.st4{fill:#F9F7C8;}
</style>
<rect class="st0" width="1366" height="2000"/>
<g>
	<g>
		<path class="st1" d="M201.9,22.2c3.2,0,3.2-5,0-5S198.7,22.2,201.9,22.2L201.9,22.2z"/>
	</g>
</g>
<g>
	<g>
		<path class="st1" d="M999.5,13.9c3.2,0,3.2-5,0-5S996.3,13.9,999.5,13.9L999.5,13.9z"/>
	</g>
</g>
<g>
	<g>
		<path class="st1" d="M1344.7,18.4c3.2,0,3.2-5,0-5S1341.5,18.4,1344.7,18.4L1344.7,18.4z"/>
	</g>
</g>
<g>
	<g>
		<path class="st1" d="M1232,13.9c3.2,0,3.2-5,0-5S1228.8,13.9,1232,13.9L1232,13.9z"/>
	</g>
</g>
<g>
	<g>
		<path class="st1" d="M877.9,22.2c3.2,0,3.2-5,0-5S874.7,22.2,877.9,22.2L877.9,22.2z"/>
	</g>
</g>
<g>
	<g>
		<path class="st1" d="M744.7,18.4c3.2,0,3.2-5,0-5S741.5,18.4,744.7,18.4L744.7,18.4z"/>
	</g>
</g>
<g>
	<g>
		<path class="st1" d="M463.5,26.9c3.2,0,3.2-5,0-5S460.2,26.9,463.5,26.9L463.5,26.9z"/>
	</g>
</g>
<g>
	<g>
		<path class="st1" d="M352.7,13.7c3.2,0,3.2-5,0-5S349.5,13.7,352.7,13.7L352.7,13.7z"/>
	</g>
</g>
<g>
	<polyline class="st2" points="-948.9,1333.7 -904.5,1443.9 -811.2,1459.2 -791.3,1541.8 -696.4,1509.7 	"/>
	<line class="st2" x1="-846.4" y1="1557.1" x2="-791.3" y2="1541.8"/>
</g>
<g>
	<g>
		<g>
			<path class="st1" d="M388.1,238.3c3.2,0,3.2-5,0-5S384.9,238.3,388.1,238.3L388.1,238.3z"/>
		</g>
	</g>
	<g>
		<g>
			<path class="st1" d="M492,199.9c3.2,0,3.2-5,0-5S488.8,199.9,492,199.9L492,199.9z"/>
		</g>
	</g>
	<g>
		<g>
			<path class="st1" d="M521.1,303.8c3.2,0,3.2-5,0-5C517.9,298.8,517.9,303.8,521.1,303.8L521.1,303.8z"/>
		</g>
	</g>
	<g>
		<g>
			<path class="st1" d="M482.3,313.5c3.2,0,3.2-5,0-5C479.1,308.5,479.1,313.5,482.3,313.5L482.3,313.5z"/>
		</g>
	</g>
	<g>
		<g>
			<path class="st1" d="M479.4,254.5c3.2,0,3.2-5,0-5C476.1,249.5,476.1,254.5,479.4,254.5L479.4,254.5z"/>
		</g>
	</g>
	<g>
		<g>
			<path class="st1" d="M448.5,265.9c3.2,0,3.2-5,0-5S445.3,265.9,448.5,265.9L448.5,265.9z"/>
		</g>
	</g>
	<g>
		<g>
			<path class="st1" d="M341.7,284.4c3.2,0,3.2-5,0-5S338.5,284.4,341.7,284.4L341.7,284.4z"/>
		</g>
	</g>
	<g>
		<g>
			<path class="st1" d="M304,374.9c3.2,0,3.2-5,0-5S300.8,374.9,304,374.9L304,374.9z"/>
		</g>
	</g>
	<g>
		<g>
			<path class="st1" d="M428,159.7c3.2,0,3.2-5,0-5S424.8,159.7,428,159.7L428,159.7z"/>
		</g>
	</g>
	<g>
		<g>
			<path class="st1" d="M377.7,108.9c3.2,0,3.2-5,0-5S374.4,108.9,377.7,108.9L377.7,108.9z"/>
		</g>
	</g>
	<g>
		<g>
			<path class="st1" d="M404.2,102c3.2,0,3.2-5,0-5S401,102,404.2,102L404.2,102z"/>
		</g>
	</g>
	<g>
		<g>
			<path class="st1" d="M227.5,278c3.2,0,3.2-5,0-5S224.3,278,227.5,278L227.5,278z"/>
		</g>
	</g>
	<g>
		<g>
			<path class="st1" d="M123.8,224.6c3.2,0,3.2-5,0-5C120.6,219.6,120.6,224.6,123.8,224.6L123.8,224.6z"/>
		</g>
	</g>
	<g>
		<g>
			<path class="st1" d="M253.4,170.7c3.2,0,3.2-5,0-5C250.2,165.7,250.2,170.7,253.4,170.7L253.4,170.7z"/>
		</g>
	</g>
	<g>
		<g>
			<path class="st1" d="M286.2,265.9c3.2,0,3.2-5,0-5C282.9,260.9,282.9,265.9,286.2,265.9L286.2,265.9z"/>
		</g>
	</g>
	<g>
		<g>
			<path class="st1" d="M235.8,251.2c3.2,0,3.2-5,0-5C232.5,246.2,232.5,251.2,235.8,251.2L235.8,251.2z"/>
		</g>
	</g>
	<g>
		<g>
			<path class="st1" d="M211.6,181.4c3.2,0,3.2-5,0-5C208.4,176.4,208.4,181.4,211.6,181.4L211.6,181.4z"/>
		</g>
	</g>
	<g>
		<g>
			<path class="st1" d="M186.7,202.6c3.2,0,3.2-5,0-5S183.5,202.6,186.7,202.6L186.7,202.6z"/>
		</g>
	</g>
	<g>
		<g>
			<path class="st1" d="M101.7,235.8c3.2,0,3.2-5,0-5S98.5,235.8,101.7,235.8L101.7,235.8z"/>
		</g>
	</g>
	<g>
		<g>
			<path class="st1" d="M37.8,121.3c3.2,0,3.2-5,0-5S34.6,121.3,37.8,121.3L37.8,121.3z"/>
		</g>
	</g>
	<g>
		<g>
			<path class="st1" d="M142.3,95.4c3.2,0,3.2-5,0-5S139.1,95.4,142.3,95.4L142.3,95.4z"/>
		</g>
	</g>
	<g>
		<g>
			<path class="st1" d="M127.5,35.3c3.2,0,3.2-5,0-5S124.3,35.3,127.5,35.3L127.5,35.3z"/>
		</g>
	</g>
	<g>
		<g>
			<path class="st1" d="M159.7,44.1c3.2,0,3.2-5,0-5S156.5,44.1,159.7,44.1L159.7,44.1z"/>
		</g>
	</g>
	<g>
		<g>
			<path class="st1" d="M260.9,515.8c3.2,0,3.2-5,0-5C257.7,510.8,257.7,515.8,260.9,515.8L260.9,515.8z"/>
		</g>
	</g>
	<g>
		<g>
			<path class="st1" d="M253.6,448.5c3.2,0,3.2-5,0-5S250.4,448.5,253.6,448.5L253.6,448.5z"/>
		</g>
	</g>
	<g>
		<g>
			<path class="st1" d="M415.9,484.1c3.2,0,3.2-5,0-5C412.7,479.1,412.7,484.1,415.9,484.1L415.9,484.1z"/>
		</g>
	</g>
	<g>
		<g>
			<path class="st1" d="M392.7,489.4c3.2,0,3.2-5,0-5S389.5,489.4,392.7,489.4L392.7,489.4z"/>
		</g>
	</g>
	<g>
		<g>
			<path class="st1" d="M207.7,515.8c3.2,0,3.2-5,0-5S204.5,515.8,207.7,515.8L207.7,515.8z"/>
		</g>
	</g>
	<g>
		<g>
			<path class="st1" d="M121.1,537.5c3.2,0,3.2-5,0-5S117.9,537.5,121.1,537.5L121.1,537.5z"/>
		</g>
	</g>
	<g>
		<g>
			<path class="st1" d="M68.2,730.7c3.2,0,3.2-5,0-5S65,730.7,68.2,730.7L68.2,730.7z"/>
		</g>
	</g>
	<g>
		<g>
			<path class="st1" d="M164.4,641.5c3.2,0,3.2-5,0-5S161.2,641.5,164.4,641.5L164.4,641.5z"/>
		</g>
	</g>
	<g>
		<g>
			<path class="st1" d="M121.1,691.9c3.2,0,3.2-5,0-5S117.9,691.9,121.1,691.9L121.1,691.9z"/>
		</g>
	</g>
	<g>
		<g>
			<path class="st1" d="M40.8,460.3c3.2,0,3.2-5,0-5S37.6,460.3,40.8,460.3L40.8,460.3z"/>
		</g>
	</g>
	<g>
		<g>
			<path class="st1" d="M178.9,374.9c3.2,0,3.2-5,0-5C175.6,369.9,175.6,374.9,178.9,374.9L178.9,374.9z"/>
		</g>
	</g>
	<g>
		<g>
			<path class="st1" d="M142,329.6c3.2,0,3.2-5,0-5S138.8,329.6,142,329.6L142,329.6z"/>
		</g>
	</g>
	<g>
		<g>
			<path class="st1" d="M186.3,331.1c3.2,0,3.2-5,0-5S183.1,331.1,186.3,331.1L186.3,331.1z"/>
		</g>
	</g>
	<g>
		<g>
			<path class="st1" d="M763.6,293.9c3.2,0,3.2-5,0-5C760.4,288.9,760.4,293.9,763.6,293.9L763.6,293.9z"/>
		</g>
	</g>
	<g>
		<g>
			<path class="st1" d="M691.4,214.5c3.2,0,3.2-5,0-5S688.2,214.5,691.4,214.5L691.4,214.5z"/>
		</g>
	</g>
	<g>
		<g>
			<path class="st1" d="M744.7,167.2c3.2,0,3.2-5,0-5S741.5,167.2,744.7,167.2L744.7,167.2z"/>
		</g>
	</g>
	<g>
		<g>
			<path class="st1" d="M818.6,284.4c3.2,0,3.2-5,0-5C815.4,279.4,815.4,284.4,818.6,284.4L818.6,284.4z"/>
		</g>
	</g>
	<g>
		<g>
			<path class="st1" d="M765.6,238.5c3.2,0,3.2-5,0-5C762.4,233.5,762.4,238.5,765.6,238.5L765.6,238.5z"/>
		</g>
	</g>
	<g>
		<g>
			<path class="st1" d="M638.7,287.6c3.2,0,3.2-5,0-5C635.4,282.6,635.4,287.6,638.7,287.6L638.7,287.6z"/>
		</g>
	</g>
	<g>
		<g>
			<path class="st1" d="M558.1,180.6c3.2,0,3.2-5,0-5C554.8,175.6,554.8,180.6,558.1,180.6L558.1,180.6z"/>
		</g>
	</g>
	<g>
		<g>
			<path class="st1" d="M704.2,107.5c3.2,0,3.2-5,0-5C700.9,102.5,700.9,107.5,704.2,107.5L704.2,107.5z"/>
		</g>
	</g>
	<g>
		<g>
			<path class="st1" d="M671.5,54.5c3.2,0,3.2-5,0-5C668.2,49.5,668.2,54.5,671.5,54.5L671.5,54.5z"/>
		</g>
	</g>
	<g>
		<g>
			<path class="st1" d="M703.4,83.8c3.2,0,3.2-5,0-5S700.2,83.8,703.4,83.8L703.4,83.8z"/>
		</g>
	</g>
	<g>
		<g>
			<path class="st1" d="M599.6,144.2c3.2,0,3.2-5,0-5C596.4,139.2,596.3,144.2,599.6,144.2L599.6,144.2z"/>
		</g>
	</g>
	<g>
		<g>
			<path class="st1" d="M517.2,74.4c3.2,0,3.2-5,0-5S514,74.4,517.2,74.4L517.2,74.4z"/>
		</g>
	</g>
	<g>
		<g>
			<path class="st1" d="M609.1,41.9c3.2,0,3.2-5,0-5C605.9,36.9,605.9,41.9,609.1,41.9L609.1,41.9z"/>
		</g>
	</g>
	<g>
		<g>
			<path class="st1" d="M627.6,125.5c3.2,0,3.2-5,0-5C624.4,120.5,624.4,125.5,627.6,125.5L627.6,125.5z"/>
		</g>
	</g>
	<g>
		<g>
			<path class="st1" d="M604,116.5c3.2,0,3.2-5,0-5S600.8,116.5,604,116.5L604,116.5z"/>
		</g>
	</g>
	<g>
		<g>
			<path class="st1" d="M598.2,39.2c3.2,0,3.2-5,0-5C594.9,34.2,594.9,39.2,598.2,39.2L598.2,39.2z"/>
		</g>
	</g>
	<g>
		<g>
			<path class="st1" d="M578.9,92.9c3.2,0,3.2-5,0-5S575.7,92.9,578.9,92.9L578.9,92.9z"/>
		</g>
	</g>
	<g>
		<g>
			<path class="st1" d="M459.8,142.5c3.2,0,3.2-5,0-5C456.6,137.5,456.6,142.5,459.8,142.5L459.8,142.5z"/>
		</g>
	</g>
	<g>
		<g>
			<path class="st1" d="M1059.7,239.2c3.2,0,3.2-5,0-5S1056.5,239.2,1059.7,239.2L1059.7,239.2z"/>
		</g>
	</g>
	<g>
		<g>
			<path class="st1" d="M992.2,116c3.2,0,3.2-5,0-5S989,116,992.2,116L992.2,116z"/>
		</g>
	</g>
	<g>
		<g>
			<path class="st1" d="M1091.4,58.2c3.2,0,3.2-5,0-5C1088.2,53.2,1088.2,58.2,1091.4,58.2L1091.4,58.2z"/>
		</g>
	</g>
	<g>
		<g>
			<path class="st1" d="M1060.4,181c3.2,0,3.2-5,0-5C1057.2,176,1057.2,181,1060.4,181L1060.4,181z"/>
		</g>
	</g>
	<g>
		<g>
			<path class="st1" d="M1168.7,207.5c3.2,0,3.2-5,0-5S1165.5,207.5,1168.7,207.5L1168.7,207.5z"/>
		</g>
	</g>
	<g>
		<g>
			<path class="st1" d="M1053.9,83.3c3.2,0,3.2-5,0-5C1050.7,78.3,1050.7,83.3,1053.9,83.3L1053.9,83.3z"/>
		</g>
	</g>
	<g>
		<g>
			<path class="st1" d="M1023.8,123.9c3.2,0,3.2-5,0-5S1020.6,123.9,1023.8,123.9L1023.8,123.9z"/>
		</g>
	</g>
	<g>
		<g>
			<path class="st1" d="M929.8,171.5c3.2,0,3.2-5,0-5S926.6,171.5,929.8,171.5L929.8,171.5z"/>
		</g>
	</g>
	<g>
		<g>
			<path class="st1" d="M861.8,100.7c3.2,0,3.2-5,0-5S858.6,100.7,861.8,100.7L861.8,100.7z"/>
		</g>
	</g>
	<g>
		<g>
			<path class="st1" d="M1261.4,512.9c3.2,0,3.2-5,0-5C1258.2,507.9,1258.2,512.9,1261.4,512.9L1261.4,512.9z"/>
		</g>
	</g>
	<g>
		<g>
			<path class="st1" d="M1263.7,610.6c3.2,0,3.2-5,0-5C1260.5,605.6,1260.5,610.6,1263.7,610.6L1263.7,610.6z"/>
		</g>
	</g>
	<g>
		<g>
			<path class="st1" d="M1167.3,446.3c3.2,0,3.2-5,0-5C1164,441.3,1164,446.3,1167.3,446.3L1167.3,446.3z"/>
		</g>
	</g>
	<g>
		<g>
			<path class="st1" d="M1261.3,415.9c3.2,0,3.2-5,0-5C1258.1,410.9,1258.1,415.9,1261.3,415.9L1261.3,415.9z"/>
		</g>
	</g>
	<g>
		<g>
			<path class="st1" d="M1293.5,492.8c3.2,0,3.2-5,0-5S1290.3,492.8,1293.5,492.8L1293.5,492.8z"/>
		</g>
	</g>
	<g>
		<g>
			<path class="st1" d="M1264.9,493.5c3.2,0,3.2-5,0-5C1261.7,488.5,1261.7,493.5,1264.9,493.5L1264.9,493.5z"/>
		</g>
	</g>
	<g>
		<g>
			<path class="st1" d="M1238.9,454.9c3.2,0,3.2-5,0-5C1235.7,449.9,1235.7,454.9,1238.9,454.9L1238.9,454.9z"/>
		</g>
	</g>
	<g>
		<g>
			<path class="st1" d="M1104.4,491.2c3.2,0,3.2-5,0-5C1101.2,486.2,1101.2,491.2,1104.4,491.2L1104.4,491.2z"/>
		</g>
	</g>
	<g>
		<g>
			<path class="st1" d="M1053.8,457.7c3.2,0,3.2-5,0-5C1050.6,452.7,1050.6,457.7,1053.8,457.7L1053.8,457.7z"/>
		</g>
	</g>
	<g>
		<g>
			<path class="st1" d="M1048.8,379.5c3.2,0,3.2-5,0-5C1045.6,374.5,1045.6,379.5,1048.8,379.5L1048.8,379.5z"/>
		</g>
	</g>
	<g>
		<g>
			<path class="st1" d="M1190.4,339.2c3.2,0,3.2-5,0-5C1187.2,334.2,1187.2,339.2,1190.4,339.2L1190.4,339.2z"/>
		</g>
	</g>
	<g>
		<g>
			<path class="st1" d="M1152.5,263.3c3.2,0,3.2-5,0-5S1149.3,263.3,1152.5,263.3L1152.5,263.3z"/>
		</g>
	</g>
	<g>
		<g>
			<path class="st1" d="M1327,150.4c3.2,0,3.2-5,0-5S1323.8,150.4,1327,150.4L1327,150.4z"/>
		</g>
	</g>
	<g>
		<g>
			<path class="st1" d="M1251.8,52.6c3.2,0,3.2-5,0-5C1248.6,47.6,1248.6,52.6,1251.8,52.6L1251.8,52.6z"/>
		</g>
	</g>
	<g>
		<g>
			<path class="st1" d="M1344.7,87.9c3.2,0,3.2-5,0-5S1341.5,87.9,1344.7,87.9L1344.7,87.9z"/>
		</g>
	</g>
	<g>
		<g>
			<path class="st1" d="M1356.7,55.6c3.2,0,3.2-5,0-5S1353.5,55.6,1356.7,55.6L1356.7,55.6z"/>
		</g>
	</g>
	<g>
		<g>
			<path class="st1" d="M1322.7,103c3.2,0,3.2-5,0-5S1319.5,103,1322.7,103L1322.7,103z"/>
		</g>
	</g>
	<g>
		<g>
			<path class="st1" d="M1207.5,114.5c3.2,0,3.2-5,0-5S1204.3,114.5,1207.5,114.5L1207.5,114.5z"/>
		</g>
	</g>
	<g>
		<g>
			<path class="st1" d="M1136.8,55.8c3.2,0,3.2-5,0-5C1133.6,50.8,1133.6,55.8,1136.8,55.8L1136.8,55.8z"/>
		</g>
	</g>
	<g>
		<g>
			<path class="st1" d="M1253.8,189c3.2,0,3.2-5,0-5C1250.6,184,1250.6,189,1253.8,189L1253.8,189z"/>
		</g>
	</g>
	<g>
		<g>
			<path class="st1" d="M1125.9,275c3.2,0,3.2-5,0-5C1122.7,270,1122.7,275,1125.9,275L1125.9,275z"/>
		</g>
	</g>
	<g>
		<g>
			<path class="st1" d="M1175.2,273.5c3.2,0,3.2-5,0-5S1171.9,273.5,1175.2,273.5L1175.2,273.5z"/>
		</g>
	</g>
	<g>
		<g>
			<path class="st1" d="M1236.4,274c3.2,0,3.2-5,0-5C1233.1,269,1233.1,274,1236.4,274L1236.4,274z"/>
		</g>
	</g>
	<g>
		<g>
			<path class="st1" d="M1263.8,123c3.2,0,3.2-5,0-5C1260.6,118,1260.6,123,1263.8,123L1263.8,123z"/>
		</g>
	</g>
	<g>
		<g>
			<path class="st1" d="M1346.2,317.8c3.2,0,3.2-5,0-5S1343,317.8,1346.2,317.8L1346.2,317.8z"/>
		</g>
	</g>
	<g>
		<g>
			<path class="st1" d="M987.1,441.4c3.2,0,3.2-5,0-5C983.9,436.4,983.9,441.4,987.1,441.4L987.1,441.4z"/>
		</g>
	</g>
	<g>
		<g>
			<path class="st1" d="M905.6,353.9c3.2,0,3.2-5,0-5C902.4,348.9,902.4,353.9,905.6,353.9L905.6,353.9z"/>
		</g>
	</g>
	<g>
		<g>
			<path class="st1" d="M1004.8,329.1c3.2,0,3.2-5,0-5S1001.6,329.1,1004.8,329.1L1004.8,329.1z"/>
		</g>
	</g>
	<g>
		<g>
			<path class="st1" d="M990.2,375.7c3.2,0,3.2-5,0-5S987,375.7,990.2,375.7L990.2,375.7z"/>
		</g>
	</g>
	<g>
		<g>
			<path class="st1" d="M974,372.3c3.2,0,3.2-5,0-5S970.8,372.3,974,372.3L974,372.3z"/>
		</g>
	</g>
	<g>
		<g>
			<path class="st1" d="M849.5,449.4c3.2,0,3.2-5,0-5S846.3,449.4,849.5,449.4L849.5,449.4z"/>
		</g>
	</g>
	<g>
		<g>
			<path class="st1" d="M797.1,345c3.2,0,3.2-5,0-5C793.9,340,793.9,345,797.1,345L797.1,345z"/>
		</g>
	</g>
	<g>
		<g>
			<path class="st1" d="M880.7,238.9c3.2,0,3.2-5,0-5S877.5,238.9,880.7,238.9L880.7,238.9z"/>
		</g>
	</g>
	<g>
		<g>
			<path class="st1" d="M934.5,203.1c3.2,0,3.2-5,0-5S931.3,203.1,934.5,203.1L934.5,203.1z"/>
		</g>
	</g>
	<g>
		<g>
			<path class="st1" d="M914.5,159.8c3.2,0,3.2-5,0-5C911.2,154.8,911.2,159.8,914.5,159.8L914.5,159.8z"/>
		</g>
	</g>
	<g>
		<g>
			<path class="st1" d="M822,37c3.2,0,3.2-5,0-5S818.8,37,822,37L822,37z"/>
		</g>
	</g>
	<g>
		<g>
			<path class="st1" d="M931.1,103.3c3.2,0,3.2-5,0-5C927.9,98.3,927.9,103.3,931.1,103.3L931.1,103.3z"/>
		</g>
	</g>
	<g>
		<g>
			<path class="st1" d="M902.5,49.4c3.2,0,3.2-5,0-5S899.3,49.4,902.5,49.4L902.5,49.4z"/>
		</g>
	</g>
	<g>
		<g>
			<path class="st1" d="M782.7,86.8c3.2,0,3.2-5,0-5S779.5,86.8,782.7,86.8L782.7,86.8z"/>
		</g>
	</g>
	<g>
		<g>
			<path class="st1" d="M405.5,561.8c3.2,0,3.2-5,0-5S402.3,561.8,405.5,561.8L405.5,561.8z"/>
		</g>
	</g>
	<g>
		<g>
			<path class="st1" d="M512.9,494.1c3.2,0,3.2-5,0-5S509.7,494.1,512.9,494.1L512.9,494.1z"/>
		</g>
	</g>
	<g>
		<g>
			<path class="st1" d="M532.1,601.5c3.2,0,3.2-5,0-5C528.8,596.5,528.8,601.5,532.1,601.5L532.1,601.5z"/>
		</g>
	</g>
	<g>
		<g>
			<path class="st1" d="M495,604.6c3.2,0,3.2-5,0-5S491.8,604.6,495,604.6L495,604.6z"/>
		</g>
	</g>
	<g>
		<g>
			<path class="st1" d="M486.3,544.3c3.2,0,3.2-5,0-5C483.1,539.3,483.1,544.3,486.3,544.3L486.3,544.3z"/>
		</g>
	</g>
	<g>
		<g>
			<path class="st1" d="M345.4,567.9c3.2,0,3.2-5,0-5C342.1,562.9,342.1,567.9,345.4,567.9L345.4,567.9z"/>
		</g>
	</g>
	<g>
		<g>
			<path class="st1" d="M306.3,501.9c3.2,0,3.2-5,0-5C303,496.9,303,501.9,306.3,501.9L306.3,501.9z"/>
		</g>
	</g>
	<g>
		<g>
			<path class="st1" d="M404.3,395.8c3.2,0,3.2-5,0-5C401.1,390.8,401.1,395.8,404.3,395.8L404.3,395.8z"/>
		</g>
	</g>
	<g>
		<g>
			<path class="st1" d="M417.6,382.1c3.2,0,3.2-5,0-5S414.3,382.1,417.6,382.1L417.6,382.1z"/>
		</g>
	</g>
	<g>
		<g>
			<path class="st1" d="M785.9,686.4c3.2,0,3.2-5,0-5S782.7,686.4,785.9,686.4L785.9,686.4z"/>
		</g>
	</g>
	<g>
		<g>
			<path class="st1" d="M716,575.4c3.2,0,3.2-5,0-5S712.8,575.4,716,575.4L716,575.4z"/>
		</g>
	</g>
	<g>
		<g>
			<path class="st1" d="M812.6,643.9c3.2,0,3.2-5,0-5C809.3,638.9,809.3,643.9,812.6,643.9L812.6,643.9z"/>
		</g>
	</g>
	<g>
		<g>
			<path class="st1" d="M761.1,579.6c3.2,0,3.2-5,0-5C757.9,574.6,757.9,579.6,761.1,579.6L761.1,579.6z"/>
		</g>
	</g>
	<g>
		<g>
			<path class="st1" d="M667.9,608.1c3.2,0,3.2-5,0-5C664.6,603.1,664.6,608.1,667.9,608.1L667.9,608.1z"/>
		</g>
	</g>
	<g>
		<g>
			<path class="st1" d="M611.5,556.8c3.2,0,3.2-5,0-5C608.2,551.8,608.2,556.8,611.5,556.8L611.5,556.8z"/>
		</g>
	</g>
	<g>
		<g>
			<path class="st1" d="M705,435.4c3.2,0,3.2-5,0-5S701.8,435.4,705,435.4L705,435.4z"/>
		</g>
	</g>
	<g>
		<g>
			<path class="st1" d="M684.2,431.3c3.2,0,3.2-5,0-5S681,431.3,684.2,431.3L684.2,431.3z"/>
		</g>
	</g>
	<g>
		<g>
			<path class="st1" d="M724.2,427.7c3.2,0,3.2-5,0-5S721,427.7,724.2,427.7L724.2,427.7z"/>
		</g>
	</g>
	<g>
		<g>
			<path class="st1" d="M751.2,447.9c3.2,0,3.2-5,0-5S748,447.9,751.2,447.9L751.2,447.9z"/>
		</g>
	</g>
	<g>
		<g>
			<path class="st1" d="M989,669.5c3.2,0,3.2-5,0-5S985.8,669.5,989,669.5L989,669.5z"/>
		</g>
	</g>
	<g>
		<g>
			<path class="st1" d="M1209.9,699.8c3.2,0,3.2-5,0-5C1206.7,694.8,1206.7,699.8,1209.9,699.8L1209.9,699.8z"/>
		</g>
	</g>
	<g>
		<g>
			<path class="st1" d="M1142,734.8c3.2,0,3.2-5,0-5C1138.8,729.8,1138.8,734.8,1142,734.8L1142,734.8z"/>
		</g>
	</g>
	<g>
		<g>
			<path class="st1" d="M1075.4,702.3c3.2,0,3.2-5,0-5S1072.2,702.3,1075.4,702.3L1075.4,702.3z"/>
		</g>
	</g>
	<g>
		<g>
			<path class="st1" d="M1007.4,717c3.2,0,3.2-5,0-5S1004.2,717,1007.4,717L1007.4,717z"/>
		</g>
	</g>
	<g>
		<g>
			<path class="st1" d="M1077.5,603.7c3.2,0,3.2-5,0-5S1074.2,603.7,1077.5,603.7L1077.5,603.7z"/>
		</g>
	</g>
	<g>
		<g>
			<path class="st1" d="M924.3,707.3c3.2,0,3.2-5,0-5S921.1,707.3,924.3,707.3L924.3,707.3z"/>
		</g>
	</g>
	<g>
		<g>
			<path class="st1" d="M836.8,737.3c3.2,0,3.2-5,0-5S833.6,737.3,836.8,737.3L836.8,737.3z"/>
		</g>
	</g>
	<g>
		<g>
			<path class="st1" d="M866.6,661c3.2,0,3.2-5,0-5C863.4,656,863.4,661,866.6,661L866.6,661z"/>
		</g>
	</g>
	<g>
		<g>
			<path class="st1" d="M982,563.6c3.2,0,3.2-5,0-5S978.8,563.6,982,563.6L982,563.6z"/>
		</g>
	</g>
	<g>
		<g>
			<path class="st1" d="M963.3,515.3c3.2,0,3.2-5,0-5S960.1,515.3,963.3,515.3L963.3,515.3z"/>
		</g>
	</g>
	<g>
		<g>
			<path class="st1" d="M242,302c3.2,0,3.2-5,0-5C238.7,297,238.7,302,242,302L242,302z"/>
		</g>
	</g>
	<g>
		<g>
			<path class="st1" d="M354.4,432.2c3.2,0,3.2-5,0-5C351.2,427.2,351.2,432.2,354.4,432.2L354.4,432.2z"/>
		</g>
	</g>
	<g>
		<g>
			<path class="st1" d="M99.4,442.9c3.2,0,3.2-5,0-5C96.2,437.9,96.1,442.9,99.4,442.9L99.4,442.9z"/>
		</g>
	</g>
	<g>
		<g>
			<path class="st1" d="M85,366.6c3.2,0,3.2-5,0-5S81.8,366.6,85,366.6L85,366.6z"/>
		</g>
	</g>
	<g>
		<g>
			<path class="st1" d="M31.9,337.2c3.2,0,3.2-5,0-5S28.7,337.2,31.9,337.2L31.9,337.2z"/>
		</g>
	</g>
	<g>
		<g>
			<path class="st1" d="M31.9,44.1c3.2,0,3.2-5,0-5S28.7,44.1,31.9,44.1L31.9,44.1z"/>
		</g>
	</g>
	<g>
		<g>
			<path class="st1" d="M512.4,140.5c3.2,0,3.2-5,0-5S509.2,140.5,512.4,140.5L512.4,140.5z"/>
		</g>
	</g>
	<g>
		<g>
			<path class="st1" d="M542.2,197.4c3.2,0,3.2-5,0-5S539,197.4,542.2,197.4L542.2,197.4z"/>
		</g>
	</g>
	<g>
		<g>
			<path class="st1" d="M567.6,387.3c3.2,0,3.2-5,0-5C564.4,382.3,564.4,387.3,567.6,387.3L567.6,387.3z"/>
		</g>
	</g>
	<g>
		<g>
			<path class="st1" d="M578.7,415.2c3.2,0,3.2-5,0-5S575.5,415.2,578.7,415.2L578.7,415.2z"/>
		</g>
	</g>
	<g>
		<g>
			<path class="st1" d="M575.9,250.9c3.2,0,3.2-5,0-5C572.6,245.9,572.6,250.9,575.9,250.9L575.9,250.9z"/>
		</g>
	</g>
	<g>
		<g>
			<path class="st1" d="M383.6,191.1c3.2,0,3.2-5,0-5S380.4,191.1,383.6,191.1L383.6,191.1z"/>
		</g>
	</g>
	<g>
		<g>
			<path class="st1" d="M941.3,349c3.2,0,3.2-5,0-5S938.1,349,941.3,349L941.3,349z"/>
		</g>
	</g>
	<g>
		<g>
			<path class="st1" d="M997.3,252.6c3.2,0,3.2-5,0-5C994,247.6,994,252.6,997.3,252.6L997.3,252.6z"/>
		</g>
	</g>
	<g>
		<g>
			<path class="st1" d="M439.2,655.6c3.2,0,3.2-5,0-5S436,655.6,439.2,655.6L439.2,655.6z"/>
		</g>
	</g>
	<g>
		<g>
			<path class="st1" d="M352.1,714.5c3.2,0,3.2-5,0-5S348.8,714.5,352.1,714.5L352.1,714.5z"/>
		</g>
	</g>
	<g>
		<g>
			<path class="st1" d="M331.8,683.3c3.2,0,3.2-5,0-5C328.6,678.3,328.6,683.3,331.8,683.3L331.8,683.3z"/>
		</g>
	</g>
	<g>
		<g>
			<path class="st1" d="M260.5,658.2c3.2,0,3.2-5,0-5C257.2,653.2,257.2,658.2,260.5,658.2L260.5,658.2z"/>
		</g>
	</g>
	<g>
		<g>
			<path class="st1" d="M185.4,734.8c3.2,0,3.2-5,0-5S182.2,734.8,185.4,734.8L185.4,734.8z"/>
		</g>
	</g>
	<g>
		<g>
			<path class="st1" d="M86,626.2c3.2,0,3.2-5,0-5C82.7,621.2,82.7,626.2,86,626.2L86,626.2z"/>
		</g>
	</g>
	<g>
		<g>
			<path class="st1" d="M77.9,561.8c3.2,0,3.2-5,0-5C74.6,556.8,74.6,561.8,77.9,561.8L77.9,561.8z"/>
		</g>
	</g>
	<g>
		<g>
			<path class="st1" d="M40.2,641.5c3.2,0,3.2-5,0-5C36.9,636.5,36.9,641.5,40.2,641.5L40.2,641.5z"/>
		</g>
	</g>
	<g>
		<g>
			<path class="st1" d="M18,527.2c3.2,0,3.2-5,0-5S14.8,527.2,18,527.2L18,527.2z"/>
		</g>
	</g>
	<g>
		<g>
			<path class="st1" d="M95.2,518.1c3.2,0,3.2-5,0-5S92,518.1,95.2,518.1L95.2,518.1z"/>
		</g>
	</g>
	<g>
		<g>
			<path class="st1" d="M632.9,475.6c3.2,0,3.2-5,0-5S629.7,475.6,632.9,475.6L632.9,475.6z"/>
		</g>
	</g>
	<g>
		<g>
			<path class="st1" d="M352.7,141.8c3.2,0,3.2-5,0-5S349.5,141.8,352.7,141.8L352.7,141.8z"/>
		</g>
	</g>
	<g>
		<g>
			<path class="st1" d="M315,199.9c3.2,0,3.2-5,0-5S311.8,199.9,315,199.9L315,199.9z"/>
		</g>
	</g>
	<g>
		<g>
			<path class="st1" d="M135.1,96.1c3.2,0,3.2-5,0-5C131.9,91.1,131.9,96.1,135.1,96.1L135.1,96.1z"/>
		</g>
	</g>
	<g>
		<g>
			<path class="st1" d="M73,101.4c3.2,0,3.2-5,0-5S69.8,101.4,73,101.4L73,101.4z"/>
		</g>
	</g>
	<g>
		<g>
			<path class="st1" d="M264.1,35.9c3.2,0,3.2-5,0-5C260.9,30.9,260.9,35.9,264.1,35.9L264.1,35.9z"/>
		</g>
	</g>
	<g>
		<g>
			<path class="st1" d="M1189.6,49.6c3.2,0,3.2-5,0-5S1186.4,49.6,1189.6,49.6L1189.6,49.6z"/>
		</g>
	</g>
	<g>
		<g>
			<path class="st1" d="M1036.1,39.8c3.2,0,3.2-5,0-5S1032.9,39.8,1036.1,39.8L1036.1,39.8z"/>
		</g>
	</g>
	<g>
		<g>
			<path class="st1" d="M1005,109.4c3.2,0,3.2-5,0-5S1001.8,109.4,1005,109.4L1005,109.4z"/>
		</g>
	</g>
	<g>
		<g>
			<path class="st1" d="M956.8,46.3c3.2,0,3.2-5,0-5S953.6,46.3,956.8,46.3L956.8,46.3z"/>
		</g>
	</g>
	<g>
		<g>
			<path class="st1" d="M1271.6,33c3.2,0,3.2-5,0-5S1268.4,33,1271.6,33L1271.6,33z"/>
		</g>
	</g>
	<g>
		<g>
			<g>
				<polyline class="st3" points="1180.9,21 1139,54.5 1100.5,77.6 1100.5,101.6 1087.6,96.5 1087.6,110.1 1119.3,159.8 
					1123.6,138.7 1151.8,123.8 1153.5,138.7 1180.9,151.2 				"/>
				<polyline class="st3" points="1167.2,90.4 1134.3,96.5 1100.5,77.6 				"/>
			</g>
			<g>
				<g>
					<path class="st4" d="M1165.9,95.4c6.4,0,6.4-10,0-10C1159.4,85.4,1159.4,95.4,1165.9,95.4L1165.9,95.4z"/>
				</g>
			</g>
			<g>
				<g>
					<path class="st4" d="M1087.6,115.1c6.4,0,6.4-10,0-10S1081.2,115.1,1087.6,115.1L1087.6,115.1z"/>
				</g>
			</g>
			<g>
				<g>
					<path class="st4" d="M1119.3,164.8c6.4,0,6.4-10,0-10S1112.8,164.8,1119.3,164.8L1119.3,164.8z"/>
				</g>
			</g>
			<g>
				<g>
					<path class="st4" d="M1123.6,143.7c6.4,0,6.4-10,0-10C1117.1,133.7,1117.1,143.7,1123.6,143.7L1123.6,143.7z"/>
				</g>
			</g>
			<g>
				<g>
					<path class="st4" d="M1151.8,128.8c6.4,0,6.4-10,0-10S1145.4,128.8,1151.8,128.8L1151.8,128.8z"/>
				</g>
			</g>
			<g>
				<g>
					<path class="st4" d="M1152.8,143.7c6.4,0,6.4-10,0-10S1146.4,143.7,1152.8,143.7L1152.8,143.7z"/>
				</g>
			</g>
			<g>
				<g>
					<path class="st4" d="M1100.5,106.6c6.4,0,6.4-10,0-10C1094,96.6,1094,106.6,1100.5,106.6L1100.5,106.6z"/>
				</g>
			</g>
			<g>
				<g>
					<path class="st4" d="M1087.6,101.5c6.4,0,6.4-10,0-10S1081.2,101.5,1087.6,101.5L1087.6,101.5z"/>
				</g>
			</g>
			<g>
				<g>
					<path class="st4" d="M1134.3,101.5c6.4,0,6.4-10,0-10C1127.8,91.5,1127.8,101.5,1134.3,101.5L1134.3,101.5z"/>
				</g>
			</g>
			<g>
				<g>
					<path class="st4" d="M1137.8,59.8c6.4,0,6.4-10,0-10S1131.3,59.8,1137.8,59.8L1137.8,59.8z"/>
				</g>
			</g>
			<g>
				<g>
					<path class="st4" d="M1100.5,82.6c6.4,0,6.4-10,0-10C1094,72.6,1094,82.6,1100.5,82.6L1100.5,82.6z"/>
				</g>
			</g>
			<g>
				<g>
					<path class="st4" d="M1181.2,156.6c6.4,0,6.4-10,0-10C1174.8,146.6,1174.8,156.6,1181.2,156.6L1181.2,156.6z"/>
				</g>
			</g>
		</g>
		<g>
			<g>
				<path class="st4" d="M1180.9,26c6.4,0,6.4-10,0-10S1174.4,26,1180.9,26L1180.9,26z"/>
			</g>
		</g>
	</g>
	<g>
		<g>
			<path class="st1" d="M1291.3,232.6c3.2,0,3.2-5,0-5C1288,227.6,1288,232.6,1291.3,232.6L1291.3,232.6z"/>
		</g>
	</g>
	<g>
		<g>
			<path class="st1" d="M1320.1,266.4c3.2,0,3.2-5,0-5C1316.8,261.4,1316.8,266.4,1320.1,266.4L1320.1,266.4z"/>
		</g>
	</g>
	<g>
		<g>
			<path class="st1" d="M1105,304.9c3.2,0,3.2-5,0-5S1101.8,304.9,1105,304.9L1105,304.9z"/>
		</g>
	</g>
	<g>
		<g>
			<path class="st1" d="M1313.7,642.9c3.2,0,3.2-5,0-5C1310.4,637.9,1310.4,642.9,1313.7,642.9L1313.7,642.9z"/>
		</g>
	</g>
	<g>
		<g>
			<path class="st1" d="M1320.1,720c3.2,0,3.2-5,0-5C1316.8,715,1316.8,720,1320.1,720L1320.1,720z"/>
		</g>
	</g>
	<g>
		<g>
			<path class="st1" d="M1246.5,767c3.2,0,3.2-5,0-5S1243.3,767,1246.5,767L1246.5,767z"/>
		</g>
	</g>
	<g>
		<g>
			<path class="st1" d="M1203.3,615.9c3.2,0,3.2-5,0-5C1200.1,610.9,1200.1,615.9,1203.3,615.9L1203.3,615.9z"/>
		</g>
	</g>
	<g>
		<g>
			<path class="st1" d="M898,494.5c3.2,0,3.2-5,0-5S894.8,494.5,898,494.5L898,494.5z"/>
		</g>
	</g>
	<g>
		<g>
			<g>
				<path class="st4" d="M1075.4,532c6.4,0,6.4-10,0-10S1069,532,1075.4,532L1075.4,532z"/>
			</g>
		</g>
		<g>
			<g>
				<polyline class="st3" points="1160.2,603.7 1147.9,628.2 1132.8,630.4 1112.7,596.1 1076.8,528.5 1140.1,559.3 1168.7,582.9 
					1168.7,621 1152.3,640.8 				"/>
				<polyline class="st3" points="1188.5,557.7 1184.4,573.1 1168.7,582.9 				"/>
				<line class="st3" x1="1112.7" y1="596.1" x2="1140.1" y2="559.3"/>
			</g>
			<g>
				<g>
					<path class="st4" d="M1132.6,634c6.4,0,6.4-10,0-10S1126.2,634,1132.6,634L1132.6,634z"/>
				</g>
			</g>
			<g>
				<g>
					<path class="st4" d="M1140.1,564.3c6.4,0,6.4-10,0-10C1133.6,554.3,1133.6,564.3,1140.1,564.3L1140.1,564.3z"/>
				</g>
			</g>
			<g>
				<g>
					<path class="st4" d="M1112.7,601.1c6.4,0,6.4-10,0-10C1106.2,591.1,1106.2,601.1,1112.7,601.1L1112.7,601.1z"/>
				</g>
			</g>
			<g>
				<g>
					<path class="st4" d="M1188.5,562.7c6.4,0,6.4-10,0-10S1182,562.7,1188.5,562.7L1188.5,562.7z"/>
				</g>
			</g>
			<g>
				<g>
					<path class="st4" d="M1168.7,626c6.4,0,6.4-10,0-10C1162.2,616,1162.2,626,1168.7,626L1168.7,626z"/>
				</g>
			</g>
			<g>
				<g>
					<path class="st4" d="M1184.4,578.1c6.4,0,6.4-10,0-10S1178,578.1,1184.4,578.1L1184.4,578.1z"/>
				</g>
			</g>
			<g>
				<g>
					<path class="st4" d="M1168.7,587.9c6.4,0,6.4-10,0-10C1162.2,577.9,1162.2,587.9,1168.7,587.9L1168.7,587.9z"/>
				</g>
			</g>
			<g>
				<g>
					<path class="st4" d="M1146.8,634c6.4,0,6.4-10,0-10S1140.3,634,1146.8,634L1146.8,634z"/>
				</g>
			</g>
			<g>
				<g>
					<path class="st4" d="M1160.2,608.7c6.4,0,6.4-10,0-10C1153.7,598.7,1153.7,608.7,1160.2,608.7L1160.2,608.7z"/>
				</g>
			</g>
			<g>
				<g>
					<path class="st4" d="M1152.3,645.8c6.4,0,6.4-10,0-10S1145.9,645.8,1152.3,645.8L1152.3,645.8z"/>
				</g>
			</g>
		</g>
	</g>
	<g>
		<g>
			<path class="st1" d="M784.8,423.8c3.2,0,3.2-5,0-5S781.6,423.8,784.8,423.8L784.8,423.8z"/>
		</g>
	</g>
	<g>
		<g>
			<path class="st1" d="M726.7,524.5c3.2,0,3.2-5,0-5S723.5,524.5,726.7,524.5L726.7,524.5z"/>
		</g>
	</g>
	<g>
		<g>
			<path class="st1" d="M592.5,385c3.2,0,3.2-5,0-5S589.3,385,592.5,385L592.5,385z"/>
		</g>
	</g>
	<g>
		<g>
			<path class="st1" d="M1192.4,389c3.2,0,3.2-5,0-5C1189.2,384,1189.2,389,1192.4,389L1192.4,389z"/>
		</g>
	</g>
	<g>
		<g>
			<path class="st1" d="M1334.7,470.6c3.2,0,3.2-5,0-5S1331.5,470.6,1334.7,470.6L1334.7,470.6z"/>
		</g>
	</g>
	<g>
		<g>
			<path class="st1" d="M1304.9,559.3c3.2,0,3.2-5,0-5S1301.7,559.3,1304.9,559.3L1304.9,559.3z"/>
		</g>
	</g>
	<g>
		<g>
			<path class="st1" d="M934,598.9c3.2,0,3.2-5,0-5S930.8,598.9,934,598.9L934,598.9z"/>
		</g>
	</g>
	<g>
		<g>
			<path class="st1" d="M834.4,576.6c3.2,0,3.2-5,0-5S831.2,576.6,834.4,576.6L834.4,576.6z"/>
		</g>
	</g>
	<g>
		<g>
			<g>
				<path class="st4" d="M164.4,620.4c6.4,0,6.4-10,0-10C157.9,610.4,157.9,620.4,164.4,620.4L164.4,620.4z"/>
			</g>
		</g>
		<g>
			<g>
				<path class="st4" d="M223.7,610.5c6.4,0,6.4-10,0-10S217.3,610.5,223.7,610.5L223.7,610.5z"/>
			</g>
		</g>
		<g>
			<g>
				<path class="st4" d="M256.2,573.2c6.4,0,6.4-10,0-10C249.7,563.2,249.7,573.2,256.2,573.2L256.2,573.2z"/>
			</g>
		</g>
		<g>
			<g>
				<path class="st4" d="M223.7,559.7c6.4,0,6.4-10,0-10S217.3,559.7,223.7,559.7L223.7,559.7z"/>
			</g>
		</g>
		<g>
			<polyline class="st3" points="164.4,615.4 178.3,591.8 200.3,581.2 256.2,568.2 223.7,554.7 			"/>
			<polyline class="st3" points="200.3,581.2 224.6,605.3 203,621 178.3,591.8 			"/>
			<g>
				<g>
					<path class="st4" d="M200.8,586.2c6.4,0,6.4-10,0-10C194.3,576.2,194.3,586.2,200.8,586.2L200.8,586.2z"/>
				</g>
			</g>
			<g>
				<g>
					<path class="st4" d="M178.2,596.8c6.4,0,6.4-10,0-10S171.8,596.8,178.2,596.8L178.2,596.8z"/>
				</g>
			</g>
		</g>
		<g>
			<g>
				<path class="st4" d="M203,626c6.4,0,6.4-10,0-10C196.5,616,196.5,626,203,626L203,626z"/>
			</g>
		</g>
	</g>
	<g>
		<g>
			<g>
				<path class="st4" d="M63.5,190.9c6.4,0,6.4-10,0-10C57,180.9,57,190.9,63.5,190.9L63.5,190.9z"/>
			</g>
		</g>
		<g>
			<g>
				<path class="st4" d="M56.8,220.6c6.4,0,6.4-10,0-10S50.4,220.6,56.8,220.6L56.8,220.6z"/>
			</g>
		</g>
		<g>
			<g>
				<path class="st4" d="M74.1,253.5c6.4,0,6.4-10,0-10S67.7,253.5,74.1,253.5L74.1,253.5z"/>
			</g>
		</g>
		<g>
			<g>
				<path class="st4" d="M128,315.4c6.4,0,6.4-10,0-10C121.6,305.4,121.6,315.4,128,315.4L128,315.4z"/>
			</g>
		</g>
		<g>
			<g>
				<path class="st4" d="M136.2,291.2c6.4,0,6.4-10,0-10S129.8,291.2,136.2,291.2L136.2,291.2z"/>
			</g>
		</g>
		<g>
			<g>
				<path class="st4" d="M103.3,279c6.4,0,6.4-10,0-10S96.9,279,103.3,279L103.3,279z"/>
			</g>
		</g>
		<g>
			<g>
				<path class="st4" d="M89.7,302c6.4,0,6.4-10,0-10C83.2,292,83.2,302,89.7,302L89.7,302z"/>
			</g>
		</g>
		<polyline class="st3" points="63.5,185.9 56.8,215.6 74.1,248.5 103.6,273.3 136.2,286.2 126.5,310.4 89.7,297 103.6,273.3 		"/>
	</g>
	<g>
		<g>
			<g>
				<path class="st4" d="M228.7,77.6c6.4,0,6.4-10,0-10S222.3,77.6,228.7,77.6L228.7,77.6z"/>
			</g>
		</g>
		<g>
			<g>
				<path class="st4" d="M338.9,97c6.4,0,6.4-10,0-10S332.5,97,338.9,97L338.9,97z"/>
			</g>
		</g>
		<g>
			<g>
				<path class="st4" d="M257.3,114c6.4,0,6.4-10,0-10S250.9,114,257.3,114L257.3,114z"/>
			</g>
		</g>
		<g>
			<g>
				<path class="st4" d="M207.7,146.1c6.4,0,6.4-10,0-10C201.2,136.1,201.2,146.1,207.7,146.1L207.7,146.1z"/>
			</g>
		</g>
		<g>
			<g>
				<path class="st4" d="M220.2,102.2c6.4,0,6.4-10,0-10C213.7,92.2,213.7,102.2,220.2,102.2L220.2,102.2z"/>
			</g>
		</g>
		<g>
			<g>
				<path class="st4" d="M286.2,85.2c6.4,0,6.4-10,0-10C279.7,75.2,279.7,85.2,286.2,85.2L286.2,85.2z"/>
			</g>
		</g>
		<g>
			<polyline class="st3" points="338.9,92 286.2,80.2 256.3,111.2 220.2,97.2 207.7,141.1 			"/>
			<line class="st3" x1="228.7" y1="72.6" x2="220.2" y2="97.2"/>
		</g>
	</g>
	<g>
		<g>
			<g>
				<path class="st4" d="M1245.4,325.2c6.4,0,6.4-10,0-10C1238.9,315.2,1238.9,325.2,1245.4,325.2L1245.4,325.2z"/>
			</g>
		</g>
		<g>
			<g>
				<path class="st4" d="M1245.3,363.8c6.4,0,6.4-10,0-10S1238.8,363.8,1245.3,363.8L1245.3,363.8z"/>
			</g>
		</g>
		<g>
			<g>
				<path class="st4" d="M1295.2,393.1c6.4,0,6.4-10,0-10C1288.7,383.1,1288.7,393.1,1295.2,393.1L1295.2,393.1z"/>
			</g>
		</g>
		<g>
			<g>
				<path class="st4" d="M1334.7,371c6.4,0,6.4-10,0-10C1328.3,361,1328.3,371,1334.7,371L1334.7,371z"/>
			</g>
		</g>
		<g>
			<g>
				<path class="st4" d="M1300.1,327.2c6.4,0,6.4-10,0-10S1293.7,327.2,1300.1,327.2L1300.1,327.2z"/>
			</g>
		</g>
		<g>
			<g>
				<path class="st4" d="M1226.3,314.7c6.4,0,6.4-10,0-10S1219.9,314.7,1226.3,314.7L1226.3,314.7z"/>
			</g>
		</g>
		<g>
			<g>
				<path class="st4" d="M1306.1,313.6c6.4,0,6.4-10,0-10S1299.7,313.6,1306.1,313.6L1306.1,313.6z"/>
			</g>
		</g>
		<g>
			<polyline class="st3" points="1306.9,308.8 1300.1,322.2 1309.3,335.3 1334.7,366 1295.2,388.1 1245.8,356.7 1245.4,320.2 
				1226.1,310.5 			"/>
			<line class="st3" x1="1334.7" y1="366" x2="1245.8" y2="356.7"/>
		</g>
	</g>
	<g>
		<g>
			<g>
				<path class="st4" d="M856.9,132.7c6.4,0,6.4-10,0-10S850.4,132.7,856.9,132.7L856.9,132.7z"/>
			</g>
		</g>
		<g>
			<g>
				<path class="st4" d="M774,109.3c6.4,0,6.4-10,0-10S767.6,109.3,774,109.3L774,109.3z"/>
			</g>
		</g>
		<g>
			<g>
				<path class="st4" d="M784.6,123.1c6.4,0,6.4-10,0-10C778.1,113.1,778.1,123.1,784.6,123.1L784.6,123.1z"/>
			</g>
		</g>
		<g>
			<g>
				<path class="st4" d="M792.5,174.5c6.4,0,6.4-10,0-10S786.1,174.5,792.5,174.5L792.5,174.5z"/>
			</g>
		</g>
		<g>
			<g>
				<path class="st4" d="M737.4,81.5c6.4,0,6.4-10,0-10C730.9,71.5,730.9,81.5,737.4,81.5L737.4,81.5z"/>
			</g>
		</g>
		<g>
			<polyline class="st3" points="792.5,169.5 784.6,118.1 774.3,104 737.4,76.5 			"/>
			<line class="st3" x1="856.9" y1="127.7" x2="784.6" y2="118.1"/>
		</g>
	</g>
	<g>
		<g>
			<path class="st1" d="M513.1,670.3c2.9,1.3,4.9-3.3,2-4.6C512.1,664.4,510.1,669,513.1,670.3L513.1,670.3z"/>
		</g>
	</g>
	<g>
		<g>
			<path class="st1" d="M712.6,660.8c2.9,1.3,4.9-3.3,2-4.6C711.6,654.9,709.6,659.5,712.6,660.8L712.6,660.8z"/>
		</g>
	</g>
	<g>
		<g>
			<path class="st1" d="M605.4,669.3c2.9,1.3,4.9-3.3,2-4.6C604.4,663.4,602.4,668,605.4,669.3L605.4,669.3z"/>
		</g>
	</g>
	<g>
		<g>
			<path class="st1" d="M456.4,728c2.9,1.3,4.9-3.3,2-4.6C455.4,722.1,453.4,726.7,456.4,728L456.4,728z"/>
		</g>
	</g>
	<g>
		<g>
			<path class="st1" d="M543.6,728c2.9,1.3,4.9-3.3,2-4.6C542.6,722.1,540.6,726.7,543.6,728L543.6,728z"/>
		</g>
	</g>
	<g>
		<g>
			<path class="st1" d="M477.9,658.3c2.9,1.3,4.9-3.3,2-4.6C476.9,652.5,474.9,657,477.9,658.3L477.9,658.3z"/>
		</g>
	</g>
	<g>
		<g>
			<path class="st1" d="M692.1,719.8c2.9,1.3,4.9-3.3,2-4.6C691.2,713.9,689.2,718.5,692.1,719.8L692.1,719.8z"/>
		</g>
	</g>
	<g>
		<g>
			<path class="st1" d="M635,730.5c2.9,1.3,4.9-3.3,2-4.6C634,724.6,632,729.2,635,730.5L635,730.5z"/>
		</g>
	</g>
	<g>
		<g>
			<path class="st1" d="M608.1,636.3c2.9,1.3,4.9-3.3,2-4.6C607.1,630.4,605.1,635,608.1,636.3L608.1,636.3z"/>
		</g>
	</g>
</g>
<g>
	<g>
		<g>
			<path class="st1" d="M388.1,989.3c3.2,0,3.2-5,0-5S384.9,989.3,388.1,989.3L388.1,989.3z"/>
		</g>
	</g>
	<g>
		<g>
			<path class="st1" d="M492,950.9c3.2,0,3.2-5,0-5S488.8,950.9,492,950.9L492,950.9z"/>
		</g>
	</g>
	<g>
		<g>
			<path class="st1" d="M521.1,1054.8c3.2,0,3.2-5,0-5C517.9,1049.8,517.9,1054.8,521.1,1054.8L521.1,1054.8z"/>
		</g>
	</g>
	<g>
		<g>
			<path class="st1" d="M482.3,1064.5c3.2,0,3.2-5,0-5C479.1,1059.5,479.1,1064.5,482.3,1064.5L482.3,1064.5z"/>
		</g>
	</g>
	<g>
		<g>
			<path class="st1" d="M479.4,1005.5c3.2,0,3.2-5,0-5C476.1,1000.5,476.1,1005.5,479.4,1005.5L479.4,1005.5z"/>
		</g>
	</g>
	<g>
		<g>
			<path class="st1" d="M448.5,1016.9c3.2,0,3.2-5,0-5S445.3,1016.9,448.5,1016.9L448.5,1016.9z"/>
		</g>
	</g>
	<g>
		<g>
			<path class="st1" d="M341.7,1035.4c3.2,0,3.2-5,0-5S338.5,1035.4,341.7,1035.4L341.7,1035.4z"/>
		</g>
	</g>
	<g>
		<g>
			<path class="st1" d="M304,1125.9c3.2,0,3.2-5,0-5S300.8,1125.9,304,1125.9L304,1125.9z"/>
		</g>
	</g>
	<g>
		<g>
			<path class="st1" d="M428,910.7c3.2,0,3.2-5,0-5S424.8,910.7,428,910.7L428,910.7z"/>
		</g>
	</g>
	<g>
		<g>
			<path class="st1" d="M377.7,859.9c3.2,0,3.2-5,0-5S374.4,859.9,377.7,859.9L377.7,859.9z"/>
		</g>
	</g>
	<g>
		<g>
			<path class="st1" d="M404.2,853c3.2,0,3.2-5,0-5S401,853,404.2,853L404.2,853z"/>
		</g>
	</g>
	<g>
		<g>
			<path class="st1" d="M227.5,1029c3.2,0,3.2-5,0-5S224.3,1029,227.5,1029L227.5,1029z"/>
		</g>
	</g>
	<g>
		<g>
			<path class="st1" d="M123.8,975.6c3.2,0,3.2-5,0-5C120.6,970.6,120.6,975.6,123.8,975.6L123.8,975.6z"/>
		</g>
	</g>
	<g>
		<g>
			<path class="st1" d="M253.4,921.7c3.2,0,3.2-5,0-5C250.2,916.7,250.2,921.7,253.4,921.7L253.4,921.7z"/>
		</g>
	</g>
	<g>
		<g>
			<path class="st1" d="M286.2,1016.9c3.2,0,3.2-5,0-5C282.9,1011.9,282.9,1016.9,286.2,1016.9L286.2,1016.9z"/>
		</g>
	</g>
	<g>
		<g>
			<path class="st1" d="M235.8,1002.2c3.2,0,3.2-5,0-5C232.5,997.2,232.5,1002.2,235.8,1002.2L235.8,1002.2z"/>
		</g>
	</g>
	<g>
		<g>
			<path class="st1" d="M211.6,932.4c3.2,0,3.2-5,0-5C208.4,927.4,208.4,932.4,211.6,932.4L211.6,932.4z"/>
		</g>
	</g>
	<g>
		<g>
			<path class="st1" d="M186.7,953.6c3.2,0,3.2-5,0-5S183.5,953.6,186.7,953.6L186.7,953.6z"/>
		</g>
	</g>
	<g>
		<g>
			<path class="st1" d="M101.7,986.8c3.2,0,3.2-5,0-5S98.5,986.8,101.7,986.8L101.7,986.8z"/>
		</g>
	</g>
	<g>
		<g>
			<path class="st1" d="M37.8,872.3c3.2,0,3.2-5,0-5S34.6,872.3,37.8,872.3L37.8,872.3z"/>
		</g>
	</g>
	<g>
		<g>
			<path class="st1" d="M142.3,846.4c3.2,0,3.2-5,0-5S139.1,846.4,142.3,846.4L142.3,846.4z"/>
		</g>
	</g>
	<g>
		<g>
			<path class="st1" d="M127.5,786.3c3.2,0,3.2-5,0-5S124.3,786.3,127.5,786.3L127.5,786.3z"/>
		</g>
	</g>
	<g>
		<g>
			<path class="st1" d="M159.7,795.1c3.2,0,3.2-5,0-5S156.5,795.1,159.7,795.1L159.7,795.1z"/>
		</g>
	</g>
	<g>
		<g>
			<path class="st1" d="M260.9,1266.8c3.2,0,3.2-5,0-5C257.7,1261.8,257.7,1266.8,260.9,1266.8L260.9,1266.8z"/>
		</g>
	</g>
	<g>
		<g>
			<path class="st1" d="M253.6,1199.5c3.2,0,3.2-5,0-5S250.4,1199.5,253.6,1199.5L253.6,1199.5z"/>
		</g>
	</g>
	<g>
		<g>
			<path class="st1" d="M415.9,1235.1c3.2,0,3.2-5,0-5C412.7,1230.1,412.7,1235.1,415.9,1235.1L415.9,1235.1z"/>
		</g>
	</g>
	<g>
		<g>
			<path class="st1" d="M392.7,1240.4c3.2,0,3.2-5,0-5S389.5,1240.4,392.7,1240.4L392.7,1240.4z"/>
		</g>
	</g>
	<g>
		<g>
			<path class="st1" d="M207.7,1266.8c3.2,0,3.2-5,0-5S204.5,1266.8,207.7,1266.8L207.7,1266.8z"/>
		</g>
	</g>
	<g>
		<g>
			<path class="st1" d="M121.1,1288.5c3.2,0,3.2-5,0-5S117.9,1288.5,121.1,1288.5L121.1,1288.5z"/>
		</g>
	</g>
	<g>
		<g>
			<path class="st1" d="M68.2,1481.7c3.2,0,3.2-5,0-5S65,1481.7,68.2,1481.7L68.2,1481.7z"/>
		</g>
	</g>
	<g>
		<g>
			<path class="st1" d="M164.4,1392.5c3.2,0,3.2-5,0-5S161.2,1392.5,164.4,1392.5L164.4,1392.5z"/>
		</g>
	</g>
	<g>
		<g>
			<path class="st1" d="M121.1,1442.9c3.2,0,3.2-5,0-5S117.9,1442.9,121.1,1442.9L121.1,1442.9z"/>
		</g>
	</g>
	<g>
		<g>
			<path class="st1" d="M40.8,1211.3c3.2,0,3.2-5,0-5S37.6,1211.3,40.8,1211.3L40.8,1211.3z"/>
		</g>
	</g>
	<g>
		<g>
			<path class="st1" d="M178.9,1125.9c3.2,0,3.2-5,0-5C175.6,1120.9,175.6,1125.9,178.9,1125.9L178.9,1125.9z"/>
		</g>
	</g>
	<g>
		<g>
			<path class="st1" d="M142,1080.6c3.2,0,3.2-5,0-5S138.8,1080.6,142,1080.6L142,1080.6z"/>
		</g>
	</g>
	<g>
		<g>
			<path class="st1" d="M186.3,1082.1c3.2,0,3.2-5,0-5S183.1,1082.1,186.3,1082.1L186.3,1082.1z"/>
		</g>
	</g>
	<g>
		<g>
			<path class="st1" d="M763.6,1044.9c3.2,0,3.2-5,0-5C760.4,1039.9,760.4,1044.9,763.6,1044.9L763.6,1044.9z"/>
		</g>
	</g>
	<g>
		<g>
			<path class="st1" d="M691.4,965.5c3.2,0,3.2-5,0-5S688.2,965.5,691.4,965.5L691.4,965.5z"/>
		</g>
	</g>
	<g>
		<g>
			<path class="st1" d="M744.7,918.2c3.2,0,3.2-5,0-5S741.5,918.2,744.7,918.2L744.7,918.2z"/>
		</g>
	</g>
	<g>
		<g>
			<path class="st1" d="M818.6,1035.4c3.2,0,3.2-5,0-5C815.4,1030.4,815.4,1035.4,818.6,1035.4L818.6,1035.4z"/>
		</g>
	</g>
	<g>
		<g>
			<path class="st1" d="M765.6,989.5c3.2,0,3.2-5,0-5C762.4,984.5,762.4,989.5,765.6,989.5L765.6,989.5z"/>
		</g>
	</g>
	<g>
		<g>
			<path class="st1" d="M638.7,1038.6c3.2,0,3.2-5,0-5C635.4,1033.6,635.4,1038.6,638.7,1038.6L638.7,1038.6z"/>
		</g>
	</g>
	<g>
		<g>
			<path class="st1" d="M558.1,931.6c3.2,0,3.2-5,0-5C554.8,926.6,554.8,931.6,558.1,931.6L558.1,931.6z"/>
		</g>
	</g>
	<g>
		<g>
			<path class="st1" d="M704.2,858.5c3.2,0,3.2-5,0-5C700.9,853.5,700.9,858.5,704.2,858.5L704.2,858.5z"/>
		</g>
	</g>
	<g>
		<g>
			<path class="st1" d="M671.5,805.5c3.2,0,3.2-5,0-5C668.2,800.5,668.2,805.5,671.5,805.5L671.5,805.5z"/>
		</g>
	</g>
	<g>
		<g>
			<path class="st1" d="M703.4,834.8c3.2,0,3.2-5,0-5S700.2,834.8,703.4,834.8L703.4,834.8z"/>
		</g>
	</g>
	<g>
		<g>
			<path class="st1" d="M599.6,895.2c3.2,0,3.2-5,0-5C596.4,890.2,596.3,895.2,599.6,895.2L599.6,895.2z"/>
		</g>
	</g>
	<g>
		<g>
			<path class="st1" d="M517.2,825.4c3.2,0,3.2-5,0-5S514,825.4,517.2,825.4L517.2,825.4z"/>
		</g>
	</g>
	<g>
		<g>
			<path class="st1" d="M609.1,792.9c3.2,0,3.2-5,0-5C605.9,787.9,605.9,792.9,609.1,792.9L609.1,792.9z"/>
		</g>
	</g>
	<g>
		<g>
			<path class="st1" d="M627.6,876.5c3.2,0,3.2-5,0-5C624.4,871.5,624.4,876.5,627.6,876.5L627.6,876.5z"/>
		</g>
	</g>
	<g>
		<g>
			<path class="st1" d="M604,867.5c3.2,0,3.2-5,0-5S600.8,867.5,604,867.5L604,867.5z"/>
		</g>
	</g>
	<g>
		<g>
			<path class="st1" d="M598.2,790.2c3.2,0,3.2-5,0-5C594.9,785.2,594.9,790.2,598.2,790.2L598.2,790.2z"/>
		</g>
	</g>
	<g>
		<g>
			<path class="st1" d="M578.9,843.9c3.2,0,3.2-5,0-5S575.7,843.9,578.9,843.9L578.9,843.9z"/>
		</g>
	</g>
	<g>
		<g>
			<path class="st1" d="M459.8,893.5c3.2,0,3.2-5,0-5C456.6,888.5,456.6,893.5,459.8,893.5L459.8,893.5z"/>
		</g>
	</g>
	<g>
		<g>
			<path class="st1" d="M1059.7,990.2c3.2,0,3.2-5,0-5S1056.5,990.2,1059.7,990.2L1059.7,990.2z"/>
		</g>
	</g>
	<g>
		<g>
			<path class="st1" d="M992.2,867c3.2,0,3.2-5,0-5S989,867,992.2,867L992.2,867z"/>
		</g>
	</g>
	<g>
		<g>
			<path class="st1" d="M1091.4,809.2c3.2,0,3.2-5,0-5C1088.2,804.2,1088.2,809.2,1091.4,809.2L1091.4,809.2z"/>
		</g>
	</g>
	<g>
		<g>
			<path class="st1" d="M1060.4,932c3.2,0,3.2-5,0-5C1057.2,927,1057.2,932,1060.4,932L1060.4,932z"/>
		</g>
	</g>
	<g>
		<g>
			<path class="st1" d="M1168.7,958.5c3.2,0,3.2-5,0-5S1165.5,958.5,1168.7,958.5L1168.7,958.5z"/>
		</g>
	</g>
	<g>
		<g>
			<path class="st1" d="M1053.9,834.3c3.2,0,3.2-5,0-5C1050.7,829.3,1050.7,834.3,1053.9,834.3L1053.9,834.3z"/>
		</g>
	</g>
	<g>
		<g>
			<path class="st1" d="M1023.8,874.9c3.2,0,3.2-5,0-5S1020.6,874.9,1023.8,874.9L1023.8,874.9z"/>
		</g>
	</g>
	<g>
		<g>
			<path class="st1" d="M929.8,922.5c3.2,0,3.2-5,0-5S926.6,922.5,929.8,922.5L929.8,922.5z"/>
		</g>
	</g>
	<g>
		<g>
			<path class="st1" d="M861.8,851.7c3.2,0,3.2-5,0-5S858.6,851.7,861.8,851.7L861.8,851.7z"/>
		</g>
	</g>
	<g>
		<g>
			<path class="st1" d="M1261.4,1263.9c3.2,0,3.2-5,0-5C1258.2,1258.9,1258.2,1263.9,1261.4,1263.9L1261.4,1263.9z"/>
		</g>
	</g>
	<g>
		<g>
			<path class="st1" d="M1263.7,1361.6c3.2,0,3.2-5,0-5C1260.5,1356.6,1260.5,1361.6,1263.7,1361.6L1263.7,1361.6z"/>
		</g>
	</g>
	<g>
		<g>
			<path class="st1" d="M1167.3,1197.3c3.2,0,3.2-5,0-5C1164,1192.3,1164,1197.3,1167.3,1197.3L1167.3,1197.3z"/>
		</g>
	</g>
	<g>
		<g>
			<path class="st1" d="M1261.3,1166.9c3.2,0,3.2-5,0-5C1258.1,1161.9,1258.1,1166.9,1261.3,1166.9L1261.3,1166.9z"/>
		</g>
	</g>
	<g>
		<g>
			<path class="st1" d="M1293.5,1243.8c3.2,0,3.2-5,0-5S1290.3,1243.8,1293.5,1243.8L1293.5,1243.8z"/>
		</g>
	</g>
	<g>
		<g>
			<path class="st1" d="M1264.9,1244.5c3.2,0,3.2-5,0-5C1261.7,1239.5,1261.7,1244.5,1264.9,1244.5L1264.9,1244.5z"/>
		</g>
	</g>
	<g>
		<g>
			<path class="st1" d="M1238.9,1205.9c3.2,0,3.2-5,0-5C1235.7,1200.9,1235.7,1205.9,1238.9,1205.9L1238.9,1205.9z"/>
		</g>
	</g>
	<g>
		<g>
			<path class="st1" d="M1104.4,1242.2c3.2,0,3.2-5,0-5C1101.2,1237.2,1101.2,1242.2,1104.4,1242.2L1104.4,1242.2z"/>
		</g>
	</g>
	<g>
		<g>
			<path class="st1" d="M1053.8,1208.7c3.2,0,3.2-5,0-5C1050.6,1203.7,1050.6,1208.7,1053.8,1208.7L1053.8,1208.7z"/>
		</g>
	</g>
	<g>
		<g>
			<path class="st1" d="M1048.8,1130.5c3.2,0,3.2-5,0-5C1045.6,1125.5,1045.6,1130.5,1048.8,1130.5L1048.8,1130.5z"/>
		</g>
	</g>
	<g>
		<g>
			<path class="st1" d="M1190.4,1090.2c3.2,0,3.2-5,0-5C1187.2,1085.2,1187.2,1090.2,1190.4,1090.2L1190.4,1090.2z"/>
		</g>
	</g>
	<g>
		<g>
			<path class="st1" d="M1152.5,1014.3c3.2,0,3.2-5,0-5S1149.3,1014.3,1152.5,1014.3L1152.5,1014.3z"/>
		</g>
	</g>
	<g>
		<g>
			<path class="st1" d="M1327,901.4c3.2,0,3.2-5,0-5S1323.8,901.4,1327,901.4L1327,901.4z"/>
		</g>
	</g>
	<g>
		<g>
			<path class="st1" d="M1251.8,803.6c3.2,0,3.2-5,0-5C1248.6,798.6,1248.6,803.6,1251.8,803.6L1251.8,803.6z"/>
		</g>
	</g>
	<g>
		<g>
			<path class="st1" d="M1344.7,838.9c3.2,0,3.2-5,0-5S1341.5,838.9,1344.7,838.9L1344.7,838.9z"/>
		</g>
	</g>
	<g>
		<g>
			<path class="st1" d="M1356.7,806.6c3.2,0,3.2-5,0-5S1353.5,806.6,1356.7,806.6L1356.7,806.6z"/>
		</g>
	</g>
	<g>
		<g>
			<path class="st1" d="M1322.7,854c3.2,0,3.2-5,0-5S1319.5,854,1322.7,854L1322.7,854z"/>
		</g>
	</g>
	<g>
		<g>
			<path class="st1" d="M1207.5,865.5c3.2,0,3.2-5,0-5S1204.3,865.5,1207.5,865.5L1207.5,865.5z"/>
		</g>
	</g>
	<g>
		<g>
			<path class="st1" d="M1136.8,806.8c3.2,0,3.2-5,0-5C1133.6,801.8,1133.6,806.8,1136.8,806.8L1136.8,806.8z"/>
		</g>
	</g>
	<g>
		<g>
			<path class="st1" d="M1253.8,940c3.2,0,3.2-5,0-5C1250.6,935,1250.6,940,1253.8,940L1253.8,940z"/>
		</g>
	</g>
	<g>
		<g>
			<path class="st1" d="M1125.9,1026c3.2,0,3.2-5,0-5C1122.7,1021,1122.7,1026,1125.9,1026L1125.9,1026z"/>
		</g>
	</g>
	<g>
		<g>
			<path class="st1" d="M1175.2,1024.5c3.2,0,3.2-5,0-5S1171.9,1024.5,1175.2,1024.5L1175.2,1024.5z"/>
		</g>
	</g>
	<g>
		<g>
			<path class="st1" d="M1236.4,1025c3.2,0,3.2-5,0-5C1233.1,1020,1233.1,1025,1236.4,1025L1236.4,1025z"/>
		</g>
	</g>
	<g>
		<g>
			<path class="st1" d="M1263.8,874c3.2,0,3.2-5,0-5C1260.6,869,1260.6,874,1263.8,874L1263.8,874z"/>
		</g>
	</g>
	<g>
		<g>
			<path class="st1" d="M1346.2,1068.8c3.2,0,3.2-5,0-5S1343,1068.8,1346.2,1068.8L1346.2,1068.8z"/>
		</g>
	</g>
	<g>
		<g>
			<path class="st1" d="M987.1,1192.4c3.2,0,3.2-5,0-5C983.9,1187.4,983.9,1192.4,987.1,1192.4L987.1,1192.4z"/>
		</g>
	</g>
	<g>
		<g>
			<path class="st1" d="M905.6,1104.9c3.2,0,3.2-5,0-5C902.4,1099.9,902.4,1104.9,905.6,1104.9L905.6,1104.9z"/>
		</g>
	</g>
	<g>
		<g>
			<path class="st1" d="M1004.8,1080.1c3.2,0,3.2-5,0-5S1001.6,1080.1,1004.8,1080.1L1004.8,1080.1z"/>
		</g>
	</g>
	<g>
		<g>
			<path class="st1" d="M990.2,1126.7c3.2,0,3.2-5,0-5S987,1126.7,990.2,1126.7L990.2,1126.7z"/>
		</g>
	</g>
	<g>
		<g>
			<path class="st1" d="M974,1123.3c3.2,0,3.2-5,0-5S970.8,1123.3,974,1123.3L974,1123.3z"/>
		</g>
	</g>
	<g>
		<g>
			<path class="st1" d="M849.5,1200.4c3.2,0,3.2-5,0-5S846.3,1200.4,849.5,1200.4L849.5,1200.4z"/>
		</g>
	</g>
	<g>
		<g>
			<path class="st1" d="M797.1,1096c3.2,0,3.2-5,0-5C793.9,1091,793.9,1096,797.1,1096L797.1,1096z"/>
		</g>
	</g>
	<g>
		<g>
			<path class="st1" d="M880.7,989.9c3.2,0,3.2-5,0-5S877.5,989.9,880.7,989.9L880.7,989.9z"/>
		</g>
	</g>
	<g>
		<g>
			<path class="st1" d="M934.5,954.1c3.2,0,3.2-5,0-5S931.3,954.1,934.5,954.1L934.5,954.1z"/>
		</g>
	</g>
	<g>
		<g>
			<path class="st1" d="M914.5,910.8c3.2,0,3.2-5,0-5C911.2,905.8,911.2,910.8,914.5,910.8L914.5,910.8z"/>
		</g>
	</g>
	<g>
		<g>
			<path class="st1" d="M822,788c3.2,0,3.2-5,0-5S818.8,788,822,788L822,788z"/>
		</g>
	</g>
	<g>
		<g>
			<path class="st1" d="M931.1,854.3c3.2,0,3.2-5,0-5C927.9,849.3,927.9,854.3,931.1,854.3L931.1,854.3z"/>
		</g>
	</g>
	<g>
		<g>
			<path class="st1" d="M902.5,800.4c3.2,0,3.2-5,0-5S899.3,800.4,902.5,800.4L902.5,800.4z"/>
		</g>
	</g>
	<g>
		<g>
			<path class="st1" d="M782.7,837.8c3.2,0,3.2-5,0-5S779.5,837.8,782.7,837.8L782.7,837.8z"/>
		</g>
	</g>
	<g>
		<g>
			<path class="st1" d="M405.5,1312.8c3.2,0,3.2-5,0-5S402.3,1312.8,405.5,1312.8L405.5,1312.8z"/>
		</g>
	</g>
	<g>
		<g>
			<path class="st1" d="M512.9,1245.1c3.2,0,3.2-5,0-5S509.7,1245.1,512.9,1245.1L512.9,1245.1z"/>
		</g>
	</g>
	<g>
		<g>
			<path class="st1" d="M532.1,1352.5c3.2,0,3.2-5,0-5C528.8,1347.5,528.8,1352.5,532.1,1352.5L532.1,1352.5z"/>
		</g>
	</g>
	<g>
		<g>
			<path class="st1" d="M495,1355.6c3.2,0,3.2-5,0-5S491.8,1355.6,495,1355.6L495,1355.6z"/>
		</g>
	</g>
	<g>
		<g>
			<path class="st1" d="M486.3,1295.3c3.2,0,3.2-5,0-5C483.1,1290.3,483.1,1295.3,486.3,1295.3L486.3,1295.3z"/>
		</g>
	</g>
	<g>
		<g>
			<path class="st1" d="M345.4,1318.9c3.2,0,3.2-5,0-5C342.1,1313.9,342.1,1318.9,345.4,1318.9L345.4,1318.9z"/>
		</g>
	</g>
	<g>
		<g>
			<path class="st1" d="M306.3,1252.9c3.2,0,3.2-5,0-5C303,1247.9,303,1252.9,306.3,1252.9L306.3,1252.9z"/>
		</g>
	</g>
	<g>
		<g>
			<path class="st1" d="M404.3,1146.8c3.2,0,3.2-5,0-5C401.1,1141.8,401.1,1146.8,404.3,1146.8L404.3,1146.8z"/>
		</g>
	</g>
	<g>
		<g>
			<path class="st1" d="M417.6,1133.1c3.2,0,3.2-5,0-5S414.3,1133.1,417.6,1133.1L417.6,1133.1z"/>
		</g>
	</g>
	<g>
		<g>
			<path class="st1" d="M785.9,1437.4c3.2,0,3.2-5,0-5S782.7,1437.4,785.9,1437.4L785.9,1437.4z"/>
		</g>
	</g>
	<g>
		<g>
			<path class="st1" d="M716,1326.4c3.2,0,3.2-5,0-5S712.8,1326.4,716,1326.4L716,1326.4z"/>
		</g>
	</g>
	<g>
		<g>
			<path class="st1" d="M812.6,1394.9c3.2,0,3.2-5,0-5C809.3,1389.9,809.3,1394.9,812.6,1394.9L812.6,1394.9z"/>
		</g>
	</g>
	<g>
		<g>
			<path class="st1" d="M761.1,1330.6c3.2,0,3.2-5,0-5C757.9,1325.6,757.9,1330.6,761.1,1330.6L761.1,1330.6z"/>
		</g>
	</g>
	<g>
		<g>
			<path class="st1" d="M667.9,1359.1c3.2,0,3.2-5,0-5C664.6,1354.1,664.6,1359.1,667.9,1359.1L667.9,1359.1z"/>
		</g>
	</g>
	<g>
		<g>
			<path class="st1" d="M611.5,1307.8c3.2,0,3.2-5,0-5C608.2,1302.8,608.2,1307.8,611.5,1307.8L611.5,1307.8z"/>
		</g>
	</g>
	<g>
		<g>
			<path class="st1" d="M705,1186.4c3.2,0,3.2-5,0-5S701.8,1186.4,705,1186.4L705,1186.4z"/>
		</g>
	</g>
	<g>
		<g>
			<path class="st1" d="M684.2,1182.3c3.2,0,3.2-5,0-5S681,1182.3,684.2,1182.3L684.2,1182.3z"/>
		</g>
	</g>
	<g>
		<g>
			<path class="st1" d="M724.2,1178.7c3.2,0,3.2-5,0-5S721,1178.7,724.2,1178.7L724.2,1178.7z"/>
		</g>
	</g>
	<g>
		<g>
			<path class="st1" d="M751.2,1198.9c3.2,0,3.2-5,0-5S748,1198.9,751.2,1198.9L751.2,1198.9z"/>
		</g>
	</g>
	<g>
		<g>
			<path class="st1" d="M989,1420.5c3.2,0,3.2-5,0-5S985.8,1420.5,989,1420.5L989,1420.5z"/>
		</g>
	</g>
	<g>
		<g>
			<path class="st1" d="M1209.9,1450.8c3.2,0,3.2-5,0-5C1206.7,1445.8,1206.7,1450.8,1209.9,1450.8L1209.9,1450.8z"/>
		</g>
	</g>
	<g>
		<g>
			<path class="st1" d="M1142,1485.8c3.2,0,3.2-5,0-5C1138.8,1480.8,1138.8,1485.8,1142,1485.8L1142,1485.8z"/>
		</g>
	</g>
	<g>
		<g>
			<path class="st1" d="M1075.4,1453.3c3.2,0,3.2-5,0-5S1072.2,1453.3,1075.4,1453.3L1075.4,1453.3z"/>
		</g>
	</g>
	<g>
		<g>
			<path class="st1" d="M1007.4,1468c3.2,0,3.2-5,0-5S1004.2,1468,1007.4,1468L1007.4,1468z"/>
		</g>
	</g>
	<g>
		<g>
			<path class="st1" d="M1077.5,1354.7c3.2,0,3.2-5,0-5S1074.2,1354.7,1077.5,1354.7L1077.5,1354.7z"/>
		</g>
	</g>
	<g>
		<g>
			<path class="st1" d="M924.3,1458.3c3.2,0,3.2-5,0-5S921.1,1458.3,924.3,1458.3L924.3,1458.3z"/>
		</g>
	</g>
	<g>
		<g>
			<path class="st1" d="M836.8,1488.3c3.2,0,3.2-5,0-5S833.6,1488.3,836.8,1488.3L836.8,1488.3z"/>
		</g>
	</g>
	<g>
		<g>
			<path class="st1" d="M866.6,1412c3.2,0,3.2-5,0-5C863.4,1407,863.4,1412,866.6,1412L866.6,1412z"/>
		</g>
	</g>
	<g>
		<g>
			<path class="st1" d="M982,1314.6c3.2,0,3.2-5,0-5S978.8,1314.6,982,1314.6L982,1314.6z"/>
		</g>
	</g>
	<g>
		<g>
			<path class="st1" d="M963.3,1266.3c3.2,0,3.2-5,0-5S960.1,1266.3,963.3,1266.3L963.3,1266.3z"/>
		</g>
	</g>
	<g>
		<g>
			<path class="st1" d="M242,1053c3.2,0,3.2-5,0-5C238.7,1048,238.7,1053,242,1053L242,1053z"/>
		</g>
	</g>
	<g>
		<g>
			<path class="st1" d="M354.4,1183.2c3.2,0,3.2-5,0-5C351.2,1178.2,351.2,1183.2,354.4,1183.2L354.4,1183.2z"/>
		</g>
	</g>
	<g>
		<g>
			<path class="st1" d="M99.4,1193.9c3.2,0,3.2-5,0-5C96.2,1188.9,96.1,1193.9,99.4,1193.9L99.4,1193.9z"/>
		</g>
	</g>
	<g>
		<g>
			<path class="st1" d="M85,1117.6c3.2,0,3.2-5,0-5S81.8,1117.6,85,1117.6L85,1117.6z"/>
		</g>
	</g>
	<g>
		<g>
			<path class="st1" d="M31.9,1088.2c3.2,0,3.2-5,0-5S28.7,1088.2,31.9,1088.2L31.9,1088.2z"/>
		</g>
	</g>
	<g>
		<g>
			<path class="st1" d="M31.9,795.1c3.2,0,3.2-5,0-5S28.7,795.1,31.9,795.1L31.9,795.1z"/>
		</g>
	</g>
	<g>
		<g>
			<path class="st1" d="M512.4,891.5c3.2,0,3.2-5,0-5S509.2,891.5,512.4,891.5L512.4,891.5z"/>
		</g>
	</g>
	<g>
		<g>
			<path class="st1" d="M542.2,948.4c3.2,0,3.2-5,0-5S539,948.4,542.2,948.4L542.2,948.4z"/>
		</g>
	</g>
	<g>
		<g>
			<path class="st1" d="M567.6,1138.3c3.2,0,3.2-5,0-5C564.4,1133.3,564.4,1138.3,567.6,1138.3L567.6,1138.3z"/>
		</g>
	</g>
	<g>
		<g>
			<path class="st1" d="M578.7,1166.2c3.2,0,3.2-5,0-5S575.5,1166.2,578.7,1166.2L578.7,1166.2z"/>
		</g>
	</g>
	<g>
		<g>
			<path class="st1" d="M575.9,1001.9c3.2,0,3.2-5,0-5C572.6,996.9,572.6,1001.9,575.9,1001.9L575.9,1001.9z"/>
		</g>
	</g>
	<g>
		<g>
			<path class="st1" d="M383.6,942.1c3.2,0,3.2-5,0-5S380.4,942.1,383.6,942.1L383.6,942.1z"/>
		</g>
	</g>
	<g>
		<g>
			<path class="st1" d="M941.3,1100c3.2,0,3.2-5,0-5S938.1,1100,941.3,1100L941.3,1100z"/>
		</g>
	</g>
	<g>
		<g>
			<path class="st1" d="M997.3,1003.6c3.2,0,3.2-5,0-5C994,998.6,994,1003.6,997.3,1003.6L997.3,1003.6z"/>
		</g>
	</g>
	<g>
		<g>
			<path class="st1" d="M439.2,1406.6c3.2,0,3.2-5,0-5S436,1406.6,439.2,1406.6L439.2,1406.6z"/>
		</g>
	</g>
	<g>
		<g>
			<path class="st1" d="M352.1,1465.5c3.2,0,3.2-5,0-5S348.8,1465.5,352.1,1465.5L352.1,1465.5z"/>
		</g>
	</g>
	<g>
		<g>
			<path class="st1" d="M331.8,1434.3c3.2,0,3.2-5,0-5C328.6,1429.3,328.6,1434.3,331.8,1434.3L331.8,1434.3z"/>
		</g>
	</g>
	<g>
		<g>
			<path class="st1" d="M260.5,1409.2c3.2,0,3.2-5,0-5C257.2,1404.2,257.2,1409.2,260.5,1409.2L260.5,1409.2z"/>
		</g>
	</g>
	<g>
		<g>
			<path class="st1" d="M185.4,1485.8c3.2,0,3.2-5,0-5S182.2,1485.8,185.4,1485.8L185.4,1485.8z"/>
		</g>
	</g>
	<g>
		<g>
			<path class="st1" d="M86,1377.2c3.2,0,3.2-5,0-5C82.7,1372.2,82.7,1377.2,86,1377.2L86,1377.2z"/>
		</g>
	</g>
	<g>
		<g>
			<path class="st1" d="M77.9,1312.8c3.2,0,3.2-5,0-5C74.6,1307.8,74.6,1312.8,77.9,1312.8L77.9,1312.8z"/>
		</g>
	</g>
	<g>
		<g>
			<path class="st1" d="M40.2,1392.5c3.2,0,3.2-5,0-5C36.9,1387.5,36.9,1392.5,40.2,1392.5L40.2,1392.5z"/>
		</g>
	</g>
	<g>
		<g>
			<path class="st1" d="M18,1278.2c3.2,0,3.2-5,0-5S14.8,1278.2,18,1278.2L18,1278.2z"/>
		</g>
	</g>
	<g>
		<g>
			<path class="st1" d="M95.2,1269.1c3.2,0,3.2-5,0-5S92,1269.1,95.2,1269.1L95.2,1269.1z"/>
		</g>
	</g>
	<g>
		<g>
			<path class="st1" d="M632.9,1226.6c3.2,0,3.2-5,0-5S629.7,1226.6,632.9,1226.6L632.9,1226.6z"/>
		</g>
	</g>
	<g>
		<g>
			<path class="st1" d="M352.7,892.8c3.2,0,3.2-5,0-5S349.5,892.8,352.7,892.8L352.7,892.8z"/>
		</g>
	</g>
	<g>
		<g>
			<path class="st1" d="M315,950.9c3.2,0,3.2-5,0-5S311.8,950.9,315,950.9L315,950.9z"/>
		</g>
	</g>
	<g>
		<g>
			<path class="st1" d="M135.1,847.1c3.2,0,3.2-5,0-5C131.9,842.1,131.9,847.1,135.1,847.1L135.1,847.1z"/>
		</g>
	</g>
	<g>
		<g>
			<path class="st1" d="M73,852.4c3.2,0,3.2-5,0-5S69.8,852.4,73,852.4L73,852.4z"/>
		</g>
	</g>
	<g>
		<g>
			<path class="st1" d="M264.1,786.9c3.2,0,3.2-5,0-5S260.9,786.9,264.1,786.9L264.1,786.9z"/>
		</g>
	</g>
	<g>
		<g>
			<path class="st1" d="M1189.6,800.6c3.2,0,3.2-5,0-5S1186.4,800.6,1189.6,800.6L1189.6,800.6z"/>
		</g>
	</g>
	<g>
		<g>
			<path class="st1" d="M1036.1,790.8c3.2,0,3.2-5,0-5S1032.9,790.8,1036.1,790.8L1036.1,790.8z"/>
		</g>
	</g>
	<g>
		<g>
			<path class="st1" d="M1005,860.4c3.2,0,3.2-5,0-5S1001.8,860.4,1005,860.4L1005,860.4z"/>
		</g>
	</g>
	<g>
		<g>
			<path class="st1" d="M956.8,797.3c3.2,0,3.2-5,0-5S953.6,797.3,956.8,797.3L956.8,797.3z"/>
		</g>
	</g>
	<g>
		<g>
			<path class="st1" d="M1271.6,784c3.2,0,3.2-5,0-5S1268.4,784,1271.6,784L1271.6,784z"/>
		</g>
	</g>
	<g>
		<g>
			<g>
				<polyline class="st3" points="1180.9,772 1139,805.5 1100.5,828.6 1100.5,852.6 1087.6,847.5 1087.6,861.1 1119.3,910.8 
					1123.6,889.7 1151.8,874.8 1153.5,889.7 1180.9,902.2 				"/>
				<polyline class="st3" points="1167.2,841.4 1134.3,847.5 1100.5,828.6 				"/>
			</g>
			<g>
				<g>
					<path class="st4" d="M1165.9,846.4c6.4,0,6.4-10,0-10C1159.4,836.4,1159.4,846.4,1165.9,846.4L1165.9,846.4z"/>
				</g>
			</g>
			<g>
				<g>
					<path class="st4" d="M1087.6,866.1c6.4,0,6.4-10,0-10S1081.2,866.1,1087.6,866.1L1087.6,866.1z"/>
				</g>
			</g>
			<g>
				<g>
					<path class="st4" d="M1119.3,915.8c6.4,0,6.4-10,0-10S1112.8,915.8,1119.3,915.8L1119.3,915.8z"/>
				</g>
			</g>
			<g>
				<g>
					<path class="st4" d="M1123.6,894.7c6.4,0,6.4-10,0-10C1117.1,884.7,1117.1,894.7,1123.6,894.7L1123.6,894.7z"/>
				</g>
			</g>
			<g>
				<g>
					<path class="st4" d="M1151.8,879.8c6.4,0,6.4-10,0-10S1145.4,879.8,1151.8,879.8L1151.8,879.8z"/>
				</g>
			</g>
			<g>
				<g>
					<path class="st4" d="M1152.8,894.7c6.4,0,6.4-10,0-10S1146.4,894.7,1152.8,894.7L1152.8,894.7z"/>
				</g>
			</g>
			<g>
				<g>
					<path class="st4" d="M1100.5,857.6c6.4,0,6.4-10,0-10C1094,847.6,1094,857.6,1100.5,857.6L1100.5,857.6z"/>
				</g>
			</g>
			<g>
				<g>
					<path class="st4" d="M1087.6,852.5c6.4,0,6.4-10,0-10S1081.2,852.5,1087.6,852.5L1087.6,852.5z"/>
				</g>
			</g>
			<g>
				<g>
					<path class="st4" d="M1134.3,852.5c6.4,0,6.4-10,0-10C1127.8,842.5,1127.8,852.5,1134.3,852.5L1134.3,852.5z"/>
				</g>
			</g>
			<g>
				<g>
					<path class="st4" d="M1137.8,810.8c6.4,0,6.4-10,0-10S1131.3,810.8,1137.8,810.8L1137.8,810.8z"/>
				</g>
			</g>
			<g>
				<g>
					<path class="st4" d="M1100.5,833.6c6.4,0,6.4-10,0-10C1094,823.6,1094,833.6,1100.5,833.6L1100.5,833.6z"/>
				</g>
			</g>
			<g>
				<g>
					<path class="st4" d="M1181.2,907.6c6.4,0,6.4-10,0-10C1174.8,897.6,1174.8,907.6,1181.2,907.6L1181.2,907.6z"/>
				</g>
			</g>
		</g>
		<g>
			<g>
				<path class="st4" d="M1180.9,777c6.4,0,6.4-10,0-10S1174.4,777,1180.9,777L1180.9,777z"/>
			</g>
		</g>
	</g>
	<g>
		<g>
			<path class="st1" d="M1291.3,983.6c3.2,0,3.2-5,0-5C1288,978.6,1288,983.6,1291.3,983.6L1291.3,983.6z"/>
		</g>
	</g>
	<g>
		<g>
			<path class="st1" d="M1320.1,1017.4c3.2,0,3.2-5,0-5C1316.8,1012.4,1316.8,1017.4,1320.1,1017.4L1320.1,1017.4z"/>
		</g>
	</g>
	<g>
		<g>
			<path class="st1" d="M1105,1055.9c3.2,0,3.2-5,0-5S1101.8,1055.9,1105,1055.9L1105,1055.9z"/>
		</g>
	</g>
	<g>
		<g>
			<path class="st1" d="M1313.7,1393.9c3.2,0,3.2-5,0-5C1310.4,1388.9,1310.4,1393.9,1313.7,1393.9L1313.7,1393.9z"/>
		</g>
	</g>
	<g>
		<g>
			<path class="st1" d="M1320.1,1471c3.2,0,3.2-5,0-5C1316.8,1466,1316.8,1471,1320.1,1471L1320.1,1471z"/>
		</g>
	</g>
	<g>
		<g>
			<path class="st1" d="M1246.5,1518c3.2,0,3.2-5,0-5S1243.3,1518,1246.5,1518L1246.5,1518z"/>
		</g>
	</g>
	<g>
		<g>
			<path class="st1" d="M1203.3,1366.9c3.2,0,3.2-5,0-5C1200.1,1361.9,1200.1,1366.9,1203.3,1366.9L1203.3,1366.9z"/>
		</g>
	</g>
	<g>
		<g>
			<path class="st1" d="M898,1245.5c3.2,0,3.2-5,0-5S894.8,1245.5,898,1245.5L898,1245.5z"/>
		</g>
	</g>
	<g>
		<g>
			<g>
				<path class="st4" d="M1075.4,1283c6.4,0,6.4-10,0-10S1069,1283,1075.4,1283L1075.4,1283z"/>
			</g>
		</g>
		<g>
			<g>
				<polyline class="st3" points="1160.2,1354.7 1147.9,1379.2 1132.8,1381.4 1112.7,1347.1 1076.8,1279.5 1140.1,1310.3 
					1168.7,1333.9 1168.7,1372 1152.3,1391.8 				"/>
				<polyline class="st3" points="1188.5,1308.7 1184.4,1324.1 1168.7,1333.9 				"/>
				<line class="st3" x1="1112.7" y1="1347.1" x2="1140.1" y2="1310.3"/>
			</g>
			<g>
				<g>
					<path class="st4" d="M1132.6,1385c6.4,0,6.4-10,0-10S1126.2,1385,1132.6,1385L1132.6,1385z"/>
				</g>
			</g>
			<g>
				<g>
					<path class="st4" d="M1140.1,1315.3c6.4,0,6.4-10,0-10C1133.6,1305.3,1133.6,1315.3,1140.1,1315.3L1140.1,1315.3z"/>
				</g>
			</g>
			<g>
				<g>
					<path class="st4" d="M1112.7,1352.1c6.4,0,6.4-10,0-10C1106.2,1342.1,1106.2,1352.1,1112.7,1352.1L1112.7,1352.1z"/>
				</g>
			</g>
			<g>
				<g>
					<path class="st4" d="M1188.5,1313.7c6.4,0,6.4-10,0-10S1182,1313.7,1188.5,1313.7L1188.5,1313.7z"/>
				</g>
			</g>
			<g>
				<g>
					<path class="st4" d="M1168.7,1377c6.4,0,6.4-10,0-10C1162.2,1367,1162.2,1377,1168.7,1377L1168.7,1377z"/>
				</g>
			</g>
			<g>
				<g>
					<path class="st4" d="M1184.4,1329.1c6.4,0,6.4-10,0-10S1178,1329.1,1184.4,1329.1L1184.4,1329.1z"/>
				</g>
			</g>
			<g>
				<g>
					<path class="st4" d="M1168.7,1338.9c6.4,0,6.4-10,0-10C1162.2,1328.9,1162.2,1338.9,1168.7,1338.9L1168.7,1338.9z"/>
				</g>
			</g>
			<g>
				<g>
					<path class="st4" d="M1146.8,1385c6.4,0,6.4-10,0-10S1140.3,1385,1146.8,1385L1146.8,1385z"/>
				</g>
			</g>
			<g>
				<g>
					<path class="st4" d="M1160.2,1359.7c6.4,0,6.4-10,0-10C1153.7,1349.7,1153.7,1359.7,1160.2,1359.7L1160.2,1359.7z"/>
				</g>
			</g>
			<g>
				<g>
					<path class="st4" d="M1152.3,1396.8c6.4,0,6.4-10,0-10S1145.9,1396.8,1152.3,1396.8L1152.3,1396.8z"/>
				</g>
			</g>
		</g>
	</g>
	<g>
		<g>
			<path class="st1" d="M784.8,1174.8c3.2,0,3.2-5,0-5S781.6,1174.8,784.8,1174.8L784.8,1174.8z"/>
		</g>
	</g>
	<g>
		<g>
			<path class="st1" d="M726.7,1275.5c3.2,0,3.2-5,0-5S723.5,1275.5,726.7,1275.5L726.7,1275.5z"/>
		</g>
	</g>
	<g>
		<g>
			<path class="st1" d="M592.5,1136c3.2,0,3.2-5,0-5S589.3,1136,592.5,1136L592.5,1136z"/>
		</g>
	</g>
	<g>
		<g>
			<path class="st1" d="M1192.4,1140c3.2,0,3.2-5,0-5C1189.2,1135,1189.2,1140,1192.4,1140L1192.4,1140z"/>
		</g>
	</g>
	<g>
		<g>
			<path class="st1" d="M1334.7,1221.6c3.2,0,3.2-5,0-5S1331.5,1221.6,1334.7,1221.6L1334.7,1221.6z"/>
		</g>
	</g>
	<g>
		<g>
			<path class="st1" d="M1304.9,1310.3c3.2,0,3.2-5,0-5S1301.7,1310.3,1304.9,1310.3L1304.9,1310.3z"/>
		</g>
	</g>
	<g>
		<g>
			<path class="st1" d="M934,1349.9c3.2,0,3.2-5,0-5S930.8,1349.9,934,1349.9L934,1349.9z"/>
		</g>
	</g>
	<g>
		<g>
			<path class="st1" d="M834.4,1327.6c3.2,0,3.2-5,0-5S831.2,1327.6,834.4,1327.6L834.4,1327.6z"/>
		</g>
	</g>
	<g>
		<g>
			<g>
				<path class="st4" d="M164.4,1371.4c6.4,0,6.4-10,0-10C157.9,1361.4,157.9,1371.4,164.4,1371.4L164.4,1371.4z"/>
			</g>
		</g>
		<g>
			<g>
				<path class="st4" d="M223.7,1361.5c6.4,0,6.4-10,0-10S217.3,1361.5,223.7,1361.5L223.7,1361.5z"/>
			</g>
		</g>
		<g>
			<g>
				<path class="st4" d="M256.2,1324.2c6.4,0,6.4-10,0-10C249.7,1314.2,249.7,1324.2,256.2,1324.2L256.2,1324.2z"/>
			</g>
		</g>
		<g>
			<g>
				<path class="st4" d="M223.7,1310.7c6.4,0,6.4-10,0-10S217.3,1310.7,223.7,1310.7L223.7,1310.7z"/>
			</g>
		</g>
		<g>
			<polyline class="st3" points="164.4,1366.4 178.3,1342.8 200.3,1332.2 256.2,1319.2 223.7,1305.7 			"/>
			<polyline class="st3" points="200.3,1332.2 224.6,1356.3 203,1372 178.3,1342.8 			"/>
			<g>
				<g>
					<path class="st4" d="M200.8,1337.2c6.4,0,6.4-10,0-10C194.3,1327.2,194.3,1337.2,200.8,1337.2L200.8,1337.2z"/>
				</g>
			</g>
			<g>
				<g>
					<path class="st4" d="M178.2,1347.8c6.4,0,6.4-10,0-10S171.8,1347.8,178.2,1347.8L178.2,1347.8z"/>
				</g>
			</g>
		</g>
		<g>
			<g>
				<path class="st4" d="M203,1377c6.4,0,6.4-10,0-10C196.5,1367,196.5,1377,203,1377L203,1377z"/>
			</g>
		</g>
	</g>
	<g>
		<g>
			<g>
				<path class="st4" d="M63.5,941.9c6.4,0,6.4-10,0-10C57,931.9,57,941.9,63.5,941.9L63.5,941.9z"/>
			</g>
		</g>
		<g>
			<g>
				<path class="st4" d="M56.8,971.6c6.4,0,6.4-10,0-10S50.4,971.6,56.8,971.6L56.8,971.6z"/>
			</g>
		</g>
		<g>
			<g>
				<path class="st4" d="M74.1,1004.5c6.4,0,6.4-10,0-10S67.7,1004.5,74.1,1004.5L74.1,1004.5z"/>
			</g>
		</g>
		<g>
			<g>
				<path class="st4" d="M128,1066.4c6.4,0,6.4-10,0-10C121.6,1056.4,121.6,1066.4,128,1066.4L128,1066.4z"/>
			</g>
		</g>
		<g>
			<g>
				<path class="st4" d="M136.2,1042.2c6.4,0,6.4-10,0-10S129.8,1042.2,136.2,1042.2L136.2,1042.2z"/>
			</g>
		</g>
		<g>
			<g>
				<path class="st4" d="M103.3,1030c6.4,0,6.4-10,0-10S96.9,1030,103.3,1030L103.3,1030z"/>
			</g>
		</g>
		<g>
			<g>
				<path class="st4" d="M89.7,1053c6.4,0,6.4-10,0-10C83.2,1043,83.2,1053,89.7,1053L89.7,1053z"/>
			</g>
		</g>
		<polyline class="st3" points="63.5,936.9 56.8,966.6 74.1,999.5 103.6,1024.3 136.2,1037.2 126.5,1061.4 89.7,1048 103.6,1024.3 
					"/>
	</g>
	<g>
		<g>
			<g>
				<path class="st4" d="M228.7,828.6c6.4,0,6.4-10,0-10S222.3,828.6,228.7,828.6L228.7,828.6z"/>
			</g>
		</g>
		<g>
			<g>
				<path class="st4" d="M338.9,848c6.4,0,6.4-10,0-10S332.5,848,338.9,848L338.9,848z"/>
			</g>
		</g>
		<g>
			<g>
				<path class="st4" d="M257.3,865c6.4,0,6.4-10,0-10S250.9,865,257.3,865L257.3,865z"/>
			</g>
		</g>
		<g>
			<g>
				<path class="st4" d="M207.7,897.1c6.4,0,6.4-10,0-10C201.2,887.1,201.2,897.1,207.7,897.1L207.7,897.1z"/>
			</g>
		</g>
		<g>
			<g>
				<path class="st4" d="M220.2,853.2c6.4,0,6.4-10,0-10C213.7,843.2,213.7,853.2,220.2,853.2L220.2,853.2z"/>
			</g>
		</g>
		<g>
			<g>
				<path class="st4" d="M286.2,836.2c6.4,0,6.4-10,0-10C279.7,826.2,279.7,836.2,286.2,836.2L286.2,836.2z"/>
			</g>
		</g>
		<g>
			<polyline class="st3" points="338.9,843 286.2,831.2 256.3,862.2 220.2,848.2 207.7,892.1 			"/>
			<line class="st3" x1="228.7" y1="823.6" x2="220.2" y2="848.2"/>
		</g>
	</g>
	<g>
		<g>
			<g>
				<path class="st4" d="M1245.4,1076.2c6.4,0,6.4-10,0-10C1238.9,1066.2,1238.9,1076.2,1245.4,1076.2L1245.4,1076.2z"/>
			</g>
		</g>
		<g>
			<g>
				<path class="st4" d="M1245.3,1114.8c6.4,0,6.4-10,0-10S1238.8,1114.8,1245.3,1114.8L1245.3,1114.8z"/>
			</g>
		</g>
		<g>
			<g>
				<path class="st4" d="M1295.2,1144.1c6.4,0,6.4-10,0-10C1288.7,1134.1,1288.7,1144.1,1295.2,1144.1L1295.2,1144.1z"/>
			</g>
		</g>
		<g>
			<g>
				<path class="st4" d="M1334.7,1122c6.4,0,6.4-10,0-10C1328.3,1112,1328.3,1122,1334.7,1122L1334.7,1122z"/>
			</g>
		</g>
		<g>
			<g>
				<path class="st4" d="M1300.1,1078.2c6.4,0,6.4-10,0-10S1293.7,1078.2,1300.1,1078.2L1300.1,1078.2z"/>
			</g>
		</g>
		<g>
			<g>
				<path class="st4" d="M1226.3,1065.7c6.4,0,6.4-10,0-10S1219.9,1065.7,1226.3,1065.7L1226.3,1065.7z"/>
			</g>
		</g>
		<g>
			<g>
				<path class="st4" d="M1306.1,1064.6c6.4,0,6.4-10,0-10S1299.7,1064.6,1306.1,1064.6L1306.1,1064.6z"/>
			</g>
		</g>
		<g>
			<polyline class="st3" points="1306.9,1059.8 1300.1,1073.2 1309.3,1086.3 1334.7,1117 1295.2,1139.1 1245.8,1107.7 
				1245.4,1071.2 1226.1,1061.5 			"/>
			<line class="st3" x1="1334.7" y1="1117" x2="1245.8" y2="1107.7"/>
		</g>
	</g>
	<g>
		<g>
			<g>
				<path class="st4" d="M856.9,883.7c6.4,0,6.4-10,0-10S850.4,883.7,856.9,883.7L856.9,883.7z"/>
			</g>
		</g>
		<g>
			<g>
				<path class="st4" d="M774,860.3c6.4,0,6.4-10,0-10S767.6,860.3,774,860.3L774,860.3z"/>
			</g>
		</g>
		<g>
			<g>
				<path class="st4" d="M784.6,874.1c6.4,0,6.4-10,0-10C778.1,864.1,778.1,874.1,784.6,874.1L784.6,874.1z"/>
			</g>
		</g>
		<g>
			<g>
				<path class="st4" d="M792.5,925.5c6.4,0,6.4-10,0-10S786.1,925.5,792.5,925.5L792.5,925.5z"/>
			</g>
		</g>
		<g>
			<g>
				<path class="st4" d="M737.4,832.5c6.4,0,6.4-10,0-10C730.9,822.5,730.9,832.5,737.4,832.5L737.4,832.5z"/>
			</g>
		</g>
		<g>
			<polyline class="st3" points="792.5,920.5 784.6,869.1 774.3,855 737.4,827.5 			"/>
			<line class="st3" x1="856.9" y1="878.7" x2="784.6" y2="869.1"/>
		</g>
	</g>
	<g>
		<g>
			<path class="st1" d="M513.1,1421.3c2.9,1.3,4.9-3.3,2-4.6C512.1,1415.4,510.1,1420,513.1,1421.3L513.1,1421.3z"/>
		</g>
	</g>
	<g>
		<g>
			<path class="st1" d="M712.6,1411.8c2.9,1.3,4.9-3.3,2-4.6C711.6,1405.9,709.6,1410.5,712.6,1411.8L712.6,1411.8z"/>
		</g>
	</g>
	<g>
		<g>
			<path class="st1" d="M605.4,1420.3c2.9,1.3,4.9-3.3,2-4.6C604.4,1414.4,602.4,1419,605.4,1420.3L605.4,1420.3z"/>
		</g>
	</g>
	<g>
		<g>
			<path class="st1" d="M456.4,1479c2.9,1.3,4.9-3.3,2-4.6C455.4,1473.1,453.4,1477.7,456.4,1479L456.4,1479z"/>
		</g>
	</g>
	<g>
		<g>
			<path class="st1" d="M543.6,1479c2.9,1.3,4.9-3.3,2-4.6C542.6,1473.1,540.6,1477.7,543.6,1479L543.6,1479z"/>
		</g>
	</g>
	<g>
		<g>
			<path class="st1" d="M477.9,1409.3c2.9,1.3,4.9-3.3,2-4.6C476.9,1403.5,474.9,1408,477.9,1409.3L477.9,1409.3z"/>
		</g>
	</g>
	<g>
		<g>
			<path class="st1" d="M692.1,1470.8c2.9,1.3,4.9-3.3,2-4.6S689.2,1469.5,692.1,1470.8L692.1,1470.8z"/>
		</g>
	</g>
	<g>
		<g>
			<path class="st1" d="M635,1481.5c2.9,1.3,4.9-3.3,2-4.6C634,1475.6,632,1480.2,635,1481.5L635,1481.5z"/>
		</g>
	</g>
	<g>
		<g>
			<path class="st1" d="M608.1,1387.3c2.9,1.3,4.9-3.3,2-4.6C607.1,1381.4,605.1,1386,608.1,1387.3L608.1,1387.3z"/>
		</g>
	</g>
</g>
<g>
	<g>
		<g>
			<path class="st1" d="M388.1,1740.3c3.2,0,3.2-5,0-5S384.9,1740.3,388.1,1740.3L388.1,1740.3z"/>
		</g>
	</g>
	<g>
		<g>
			<path class="st1" d="M492,1701.9c3.2,0,3.2-5,0-5S488.8,1701.9,492,1701.9L492,1701.9z"/>
		</g>
	</g>
	<g>
		<g>
			<path class="st1" d="M521.1,1805.8c3.2,0,3.2-5,0-5C517.9,1800.8,517.9,1805.8,521.1,1805.8L521.1,1805.8z"/>
		</g>
	</g>
	<g>
		<g>
			<path class="st1" d="M482.3,1815.5c3.2,0,3.2-5,0-5C479.1,1810.5,479.1,1815.5,482.3,1815.5L482.3,1815.5z"/>
		</g>
	</g>
	<g>
		<g>
			<path class="st1" d="M479.4,1756.5c3.2,0,3.2-5,0-5C476.1,1751.5,476.1,1756.5,479.4,1756.5L479.4,1756.5z"/>
		</g>
	</g>
	<g>
		<g>
			<path class="st1" d="M448.5,1767.9c3.2,0,3.2-5,0-5S445.3,1767.9,448.5,1767.9L448.5,1767.9z"/>
		</g>
	</g>
	<g>
		<g>
			<path class="st1" d="M341.7,1786.4c3.2,0,3.2-5,0-5S338.5,1786.4,341.7,1786.4L341.7,1786.4z"/>
		</g>
	</g>
	<g>
		<g>
			<path class="st1" d="M304,1876.9c3.2,0,3.2-5,0-5S300.8,1876.9,304,1876.9L304,1876.9z"/>
		</g>
	</g>
	<g>
		<g>
			<path class="st1" d="M428,1661.7c3.2,0,3.2-5,0-5S424.8,1661.7,428,1661.7L428,1661.7z"/>
		</g>
	</g>
	<g>
		<g>
			<path class="st1" d="M377.7,1610.9c3.2,0,3.2-5,0-5S374.4,1610.9,377.7,1610.9L377.7,1610.9z"/>
		</g>
	</g>
	<g>
		<g>
			<path class="st1" d="M404.2,1604c3.2,0,3.2-5,0-5S401,1604,404.2,1604L404.2,1604z"/>
		</g>
	</g>
	<g>
		<g>
			<path class="st1" d="M227.5,1780c3.2,0,3.2-5,0-5S224.3,1780,227.5,1780L227.5,1780z"/>
		</g>
	</g>
	<g>
		<g>
			<path class="st1" d="M123.8,1726.6c3.2,0,3.2-5,0-5C120.6,1721.6,120.6,1726.6,123.8,1726.6L123.8,1726.6z"/>
		</g>
	</g>
	<g>
		<g>
			<path class="st1" d="M253.4,1672.7c3.2,0,3.2-5,0-5C250.2,1667.7,250.2,1672.7,253.4,1672.7L253.4,1672.7z"/>
		</g>
	</g>
	<g>
		<g>
			<path class="st1" d="M286.2,1767.9c3.2,0,3.2-5,0-5C282.9,1762.9,282.9,1767.9,286.2,1767.9L286.2,1767.9z"/>
		</g>
	</g>
	<g>
		<g>
			<path class="st1" d="M235.8,1753.2c3.2,0,3.2-5,0-5C232.5,1748.2,232.5,1753.2,235.8,1753.2L235.8,1753.2z"/>
		</g>
	</g>
	<g>
		<g>
			<path class="st1" d="M211.6,1683.4c3.2,0,3.2-5,0-5C208.4,1678.4,208.4,1683.4,211.6,1683.4L211.6,1683.4z"/>
		</g>
	</g>
	<g>
		<g>
			<path class="st1" d="M186.7,1704.6c3.2,0,3.2-5,0-5S183.5,1704.6,186.7,1704.6L186.7,1704.6z"/>
		</g>
	</g>
	<g>
		<g>
			<path class="st1" d="M101.7,1737.8c3.2,0,3.2-5,0-5S98.5,1737.8,101.7,1737.8L101.7,1737.8z"/>
		</g>
	</g>
	<g>
		<g>
			<path class="st1" d="M37.8,1623.3c3.2,0,3.2-5,0-5S34.6,1623.3,37.8,1623.3L37.8,1623.3z"/>
		</g>
	</g>
	<g>
		<g>
			<path class="st1" d="M142.3,1597.4c3.2,0,3.2-5,0-5S139.1,1597.4,142.3,1597.4L142.3,1597.4z"/>
		</g>
	</g>
	<g>
		<g>
			<path class="st1" d="M127.5,1537.3c3.2,0,3.2-5,0-5S124.3,1537.3,127.5,1537.3L127.5,1537.3z"/>
		</g>
	</g>
	<g>
		<g>
			<path class="st1" d="M159.7,1546.1c3.2,0,3.2-5,0-5S156.5,1546.1,159.7,1546.1L159.7,1546.1z"/>
		</g>
	</g>
	<g>
		<g>
			<path class="st1" d="M253.6,1950.5c3.2,0,3.2-5,0-5S250.4,1950.5,253.6,1950.5L253.6,1950.5z"/>
		</g>
	</g>
	<g>
		<g>
			<path class="st1" d="M415.9,1986.1c3.2,0,3.2-5,0-5C412.7,1981.1,412.7,1986.1,415.9,1986.1L415.9,1986.1z"/>
		</g>
	</g>
	<g>
		<g>
			<path class="st1" d="M392.7,1991.4c3.2,0,3.2-5,0-5S389.5,1991.4,392.7,1991.4L392.7,1991.4z"/>
		</g>
	</g>
	<g>
		<g>
			<path class="st1" d="M40.8,1962.3c3.2,0,3.2-5,0-5S37.6,1962.3,40.8,1962.3L40.8,1962.3z"/>
		</g>
	</g>
	<g>
		<g>
			<path class="st1" d="M178.9,1876.9c3.2,0,3.2-5,0-5C175.6,1871.9,175.6,1876.9,178.9,1876.9L178.9,1876.9z"/>
		</g>
	</g>
	<g>
		<g>
			<path class="st1" d="M142,1831.6c3.2,0,3.2-5,0-5S138.8,1831.6,142,1831.6L142,1831.6z"/>
		</g>
	</g>
	<g>
		<g>
			<path class="st1" d="M186.3,1833.1c3.2,0,3.2-5,0-5S183.1,1833.1,186.3,1833.1L186.3,1833.1z"/>
		</g>
	</g>
	<g>
		<g>
			<path class="st1" d="M763.6,1795.9c3.2,0,3.2-5,0-5C760.4,1790.9,760.4,1795.9,763.6,1795.9L763.6,1795.9z"/>
		</g>
	</g>
	<g>
		<g>
			<path class="st1" d="M691.4,1716.5c3.2,0,3.2-5,0-5S688.2,1716.5,691.4,1716.5L691.4,1716.5z"/>
		</g>
	</g>
	<g>
		<g>
			<path class="st1" d="M744.7,1669.2c3.2,0,3.2-5,0-5S741.5,1669.2,744.7,1669.2L744.7,1669.2z"/>
		</g>
	</g>
	<g>
		<g>
			<path class="st1" d="M818.6,1786.4c3.2,0,3.2-5,0-5C815.4,1781.4,815.4,1786.4,818.6,1786.4L818.6,1786.4z"/>
		</g>
	</g>
	<g>
		<g>
			<path class="st1" d="M765.6,1740.5c3.2,0,3.2-5,0-5C762.4,1735.5,762.4,1740.5,765.6,1740.5L765.6,1740.5z"/>
		</g>
	</g>
	<g>
		<g>
			<path class="st1" d="M638.7,1789.6c3.2,0,3.2-5,0-5C635.4,1784.6,635.4,1789.6,638.7,1789.6L638.7,1789.6z"/>
		</g>
	</g>
	<g>
		<g>
			<path class="st1" d="M558.1,1682.6c3.2,0,3.2-5,0-5C554.8,1677.6,554.8,1682.6,558.1,1682.6L558.1,1682.6z"/>
		</g>
	</g>
	<g>
		<g>
			<path class="st1" d="M704.2,1609.5c3.2,0,3.2-5,0-5C700.9,1604.5,700.9,1609.5,704.2,1609.5L704.2,1609.5z"/>
		</g>
	</g>
	<g>
		<g>
			<path class="st1" d="M671.5,1556.5c3.2,0,3.2-5,0-5C668.2,1551.5,668.2,1556.5,671.5,1556.5L671.5,1556.5z"/>
		</g>
	</g>
	<g>
		<g>
			<path class="st1" d="M703.4,1585.8c3.2,0,3.2-5,0-5S700.2,1585.8,703.4,1585.8L703.4,1585.8z"/>
		</g>
	</g>
	<g>
		<g>
			<path class="st1" d="M599.6,1646.2c3.2,0,3.2-5,0-5C596.4,1641.2,596.3,1646.2,599.6,1646.2L599.6,1646.2z"/>
		</g>
	</g>
	<g>
		<g>
			<path class="st1" d="M517.2,1576.4c3.2,0,3.2-5,0-5S514,1576.4,517.2,1576.4L517.2,1576.4z"/>
		</g>
	</g>
	<g>
		<g>
			<path class="st1" d="M609.1,1543.9c3.2,0,3.2-5,0-5C605.9,1538.9,605.9,1543.9,609.1,1543.9L609.1,1543.9z"/>
		</g>
	</g>
	<g>
		<g>
			<path class="st1" d="M627.6,1627.5c3.2,0,3.2-5,0-5C624.4,1622.5,624.4,1627.5,627.6,1627.5L627.6,1627.5z"/>
		</g>
	</g>
	<g>
		<g>
			<path class="st1" d="M604,1618.5c3.2,0,3.2-5,0-5S600.8,1618.5,604,1618.5L604,1618.5z"/>
		</g>
	</g>
	<g>
		<g>
			<path class="st1" d="M598.2,1541.2c3.2,0,3.2-5,0-5C594.9,1536.2,594.9,1541.2,598.2,1541.2L598.2,1541.2z"/>
		</g>
	</g>
	<g>
		<g>
			<path class="st1" d="M578.9,1594.9c3.2,0,3.2-5,0-5S575.7,1594.9,578.9,1594.9L578.9,1594.9z"/>
		</g>
	</g>
	<g>
		<g>
			<path class="st1" d="M459.8,1644.5c3.2,0,3.2-5,0-5C456.6,1639.5,456.6,1644.5,459.8,1644.5L459.8,1644.5z"/>
		</g>
	</g>
	<g>
		<g>
			<path class="st1" d="M1059.7,1741.2c3.2,0,3.2-5,0-5S1056.5,1741.2,1059.7,1741.2L1059.7,1741.2z"/>
		</g>
	</g>
	<g>
		<g>
			<path class="st1" d="M992.2,1618c3.2,0,3.2-5,0-5S989,1618,992.2,1618L992.2,1618z"/>
		</g>
	</g>
	<g>
		<g>
			<path class="st1" d="M1091.4,1560.2c3.2,0,3.2-5,0-5C1088.2,1555.2,1088.2,1560.2,1091.4,1560.2L1091.4,1560.2z"/>
		</g>
	</g>
	<g>
		<g>
			<path class="st1" d="M1060.4,1683c3.2,0,3.2-5,0-5C1057.2,1678,1057.2,1683,1060.4,1683L1060.4,1683z"/>
		</g>
	</g>
	<g>
		<g>
			<path class="st1" d="M1168.7,1709.5c3.2,0,3.2-5,0-5S1165.5,1709.5,1168.7,1709.5L1168.7,1709.5z"/>
		</g>
	</g>
	<g>
		<g>
			<path class="st1" d="M1053.9,1585.3c3.2,0,3.2-5,0-5C1050.7,1580.3,1050.7,1585.3,1053.9,1585.3L1053.9,1585.3z"/>
		</g>
	</g>
	<g>
		<g>
			<path class="st1" d="M1023.8,1625.9c3.2,0,3.2-5,0-5S1020.6,1625.9,1023.8,1625.9L1023.8,1625.9z"/>
		</g>
	</g>
	<g>
		<g>
			<path class="st1" d="M929.8,1673.5c3.2,0,3.2-5,0-5S926.6,1673.5,929.8,1673.5L929.8,1673.5z"/>
		</g>
	</g>
	<g>
		<g>
			<path class="st1" d="M861.8,1602.7c3.2,0,3.2-5,0-5S858.6,1602.7,861.8,1602.7L861.8,1602.7z"/>
		</g>
	</g>
	<g>
		<g>
			<path class="st1" d="M1167.3,1948.3c3.2,0,3.2-5,0-5C1164,1943.3,1164,1948.3,1167.3,1948.3L1167.3,1948.3z"/>
		</g>
	</g>
	<g>
		<g>
			<path class="st1" d="M1261.3,1917.9c3.2,0,3.2-5,0-5C1258.1,1912.9,1258.1,1917.9,1261.3,1917.9L1261.3,1917.9z"/>
		</g>
	</g>
	<g>
		<g>
			<path class="st1" d="M1293.5,1994.8c3.2,0,3.2-5,0-5S1290.3,1994.8,1293.5,1994.8L1293.5,1994.8z"/>
		</g>
	</g>
	<g>
		<g>
			<path class="st1" d="M1264.9,1995.5c3.2,0,3.2-5,0-5C1261.7,1990.5,1261.7,1995.5,1264.9,1995.5L1264.9,1995.5z"/>
		</g>
	</g>
	<g>
		<g>
			<path class="st1" d="M1238.9,1956.9c3.2,0,3.2-5,0-5C1235.7,1951.9,1235.7,1956.9,1238.9,1956.9L1238.9,1956.9z"/>
		</g>
	</g>
	<g>
		<g>
			<path class="st1" d="M1104.4,1993.2c3.2,0,3.2-5,0-5C1101.2,1988.2,1101.2,1993.2,1104.4,1993.2L1104.4,1993.2z"/>
		</g>
	</g>
	<g>
		<g>
			<path class="st1" d="M1053.8,1959.7c3.2,0,3.2-5,0-5C1050.6,1954.7,1050.6,1959.7,1053.8,1959.7L1053.8,1959.7z"/>
		</g>
	</g>
	<g>
		<g>
			<path class="st1" d="M1048.8,1881.5c3.2,0,3.2-5,0-5C1045.6,1876.5,1045.6,1881.5,1048.8,1881.5L1048.8,1881.5z"/>
		</g>
	</g>
	<g>
		<g>
			<path class="st1" d="M1190.4,1841.2c3.2,0,3.2-5,0-5C1187.2,1836.2,1187.2,1841.2,1190.4,1841.2L1190.4,1841.2z"/>
		</g>
	</g>
	<g>
		<g>
			<path class="st1" d="M1152.5,1765.3c3.2,0,3.2-5,0-5S1149.3,1765.3,1152.5,1765.3L1152.5,1765.3z"/>
		</g>
	</g>
	<g>
		<g>
			<path class="st1" d="M1327,1652.4c3.2,0,3.2-5,0-5S1323.8,1652.4,1327,1652.4L1327,1652.4z"/>
		</g>
	</g>
	<g>
		<g>
			<path class="st1" d="M1251.8,1554.6c3.2,0,3.2-5,0-5C1248.6,1549.6,1248.6,1554.6,1251.8,1554.6L1251.8,1554.6z"/>
		</g>
	</g>
	<g>
		<g>
			<path class="st1" d="M1344.7,1589.9c3.2,0,3.2-5,0-5S1341.5,1589.9,1344.7,1589.9L1344.7,1589.9z"/>
		</g>
	</g>
	<g>
		<g>
			<path class="st1" d="M1356.7,1557.6c3.2,0,3.2-5,0-5S1353.5,1557.6,1356.7,1557.6L1356.7,1557.6z"/>
		</g>
	</g>
	<g>
		<g>
			<path class="st1" d="M1322.7,1605c3.2,0,3.2-5,0-5S1319.5,1605,1322.7,1605L1322.7,1605z"/>
		</g>
	</g>
	<g>
		<g>
			<path class="st1" d="M1207.5,1616.5c3.2,0,3.2-5,0-5S1204.3,1616.5,1207.5,1616.5L1207.5,1616.5z"/>
		</g>
	</g>
	<g>
		<g>
			<path class="st1" d="M1136.8,1557.8c3.2,0,3.2-5,0-5C1133.6,1552.8,1133.6,1557.8,1136.8,1557.8L1136.8,1557.8z"/>
		</g>
	</g>
	<g>
		<g>
			<path class="st1" d="M1253.8,1691c3.2,0,3.2-5,0-5C1250.6,1686,1250.6,1691,1253.8,1691L1253.8,1691z"/>
		</g>
	</g>
	<g>
		<g>
			<path class="st1" d="M1125.9,1777c3.2,0,3.2-5,0-5C1122.7,1772,1122.7,1777,1125.9,1777L1125.9,1777z"/>
		</g>
	</g>
	<g>
		<g>
			<path class="st1" d="M1175.2,1775.5c3.2,0,3.2-5,0-5S1171.9,1775.5,1175.2,1775.5L1175.2,1775.5z"/>
		</g>
	</g>
	<g>
		<g>
			<path class="st1" d="M1236.4,1776c3.2,0,3.2-5,0-5C1233.1,1771,1233.1,1776,1236.4,1776L1236.4,1776z"/>
		</g>
	</g>
	<g>
		<g>
			<path class="st1" d="M1263.8,1625c3.2,0,3.2-5,0-5C1260.6,1620,1260.6,1625,1263.8,1625L1263.8,1625z"/>
		</g>
	</g>
	<g>
		<g>
			<path class="st1" d="M1346.2,1819.8c3.2,0,3.2-5,0-5S1343,1819.8,1346.2,1819.8L1346.2,1819.8z"/>
		</g>
	</g>
	<g>
		<g>
			<path class="st1" d="M987.1,1943.4c3.2,0,3.2-5,0-5C983.9,1938.4,983.9,1943.4,987.1,1943.4L987.1,1943.4z"/>
		</g>
	</g>
	<g>
		<g>
			<path class="st1" d="M905.6,1855.9c3.2,0,3.2-5,0-5C902.4,1850.9,902.4,1855.9,905.6,1855.9L905.6,1855.9z"/>
		</g>
	</g>
	<g>
		<g>
			<path class="st1" d="M1004.8,1831.1c3.2,0,3.2-5,0-5S1001.6,1831.1,1004.8,1831.1L1004.8,1831.1z"/>
		</g>
	</g>
	<g>
		<g>
			<path class="st1" d="M990.2,1877.7c3.2,0,3.2-5,0-5S987,1877.7,990.2,1877.7L990.2,1877.7z"/>
		</g>
	</g>
	<g>
		<g>
			<path class="st1" d="M974,1874.3c3.2,0,3.2-5,0-5S970.8,1874.3,974,1874.3L974,1874.3z"/>
		</g>
	</g>
	<g>
		<g>
			<path class="st1" d="M849.5,1951.4c3.2,0,3.2-5,0-5S846.3,1951.4,849.5,1951.4L849.5,1951.4z"/>
		</g>
	</g>
	<g>
		<g>
			<path class="st1" d="M797.1,1847c3.2,0,3.2-5,0-5C793.9,1842,793.9,1847,797.1,1847L797.1,1847z"/>
		</g>
	</g>
	<g>
		<g>
			<path class="st1" d="M880.7,1740.9c3.2,0,3.2-5,0-5S877.5,1740.9,880.7,1740.9L880.7,1740.9z"/>
		</g>
	</g>
	<g>
		<g>
			<path class="st1" d="M934.5,1705.1c3.2,0,3.2-5,0-5S931.3,1705.1,934.5,1705.1L934.5,1705.1z"/>
		</g>
	</g>
	<g>
		<g>
			<path class="st1" d="M914.5,1661.8c3.2,0,3.2-5,0-5C911.2,1656.8,911.2,1661.8,914.5,1661.8L914.5,1661.8z"/>
		</g>
	</g>
	<g>
		<g>
			<path class="st1" d="M822,1539c3.2,0,3.2-5,0-5S818.8,1539,822,1539L822,1539z"/>
		</g>
	</g>
	<g>
		<g>
			<path class="st1" d="M931.1,1605.3c3.2,0,3.2-5,0-5C927.9,1600.3,927.9,1605.3,931.1,1605.3L931.1,1605.3z"/>
		</g>
	</g>
	<g>
		<g>
			<path class="st1" d="M902.5,1551.4c3.2,0,3.2-5,0-5S899.3,1551.4,902.5,1551.4L902.5,1551.4z"/>
		</g>
	</g>
	<g>
		<g>
			<path class="st1" d="M782.7,1588.8c3.2,0,3.2-5,0-5S779.5,1588.8,782.7,1588.8L782.7,1588.8z"/>
		</g>
	</g>
	<g>
		<g>
			<path class="st1" d="M512.9,1996.1c3.2,0,3.2-5,0-5S509.7,1996.1,512.9,1996.1L512.9,1996.1z"/>
		</g>
	</g>
	<g>
		<g>
			<path class="st1" d="M404.3,1897.8c3.2,0,3.2-5,0-5C401.1,1892.8,401.1,1897.8,404.3,1897.8L404.3,1897.8z"/>
		</g>
	</g>
	<g>
		<g>
			<path class="st1" d="M417.6,1884.1c3.2,0,3.2-5,0-5S414.3,1884.1,417.6,1884.1L417.6,1884.1z"/>
		</g>
	</g>
	<g>
		<g>
			<path class="st1" d="M705,1937.4c3.2,0,3.2-5,0-5S701.8,1937.4,705,1937.4L705,1937.4z"/>
		</g>
	</g>
	<g>
		<g>
			<path class="st1" d="M684.2,1933.3c3.2,0,3.2-5,0-5S681,1933.3,684.2,1933.3L684.2,1933.3z"/>
		</g>
	</g>
	<g>
		<g>
			<path class="st1" d="M724.2,1929.7c3.2,0,3.2-5,0-5S721,1929.7,724.2,1929.7L724.2,1929.7z"/>
		</g>
	</g>
	<g>
		<g>
			<path class="st1" d="M751.2,1949.9c3.2,0,3.2-5,0-5S748,1949.9,751.2,1949.9L751.2,1949.9z"/>
		</g>
	</g>
	<g>
		<g>
			<path class="st1" d="M242,1804c3.2,0,3.2-5,0-5C238.7,1799,238.7,1804,242,1804L242,1804z"/>
		</g>
	</g>
	<g>
		<g>
			<path class="st1" d="M354.4,1934.2c3.2,0,3.2-5,0-5C351.2,1929.2,351.2,1934.2,354.4,1934.2L354.4,1934.2z"/>
		</g>
	</g>
	<g>
		<g>
			<path class="st1" d="M99.4,1944.9c3.2,0,3.2-5,0-5C96.2,1939.9,96.1,1944.9,99.4,1944.9L99.4,1944.9z"/>
		</g>
	</g>
	<g>
		<g>
			<path class="st1" d="M85,1868.6c3.2,0,3.2-5,0-5S81.8,1868.6,85,1868.6L85,1868.6z"/>
		</g>
	</g>
	<g>
		<g>
			<path class="st1" d="M31.9,1839.2c3.2,0,3.2-5,0-5S28.7,1839.2,31.9,1839.2L31.9,1839.2z"/>
		</g>
	</g>
	<g>
		<g>
			<path class="st1" d="M31.9,1546.1c3.2,0,3.2-5,0-5S28.7,1546.1,31.9,1546.1L31.9,1546.1z"/>
		</g>
	</g>
	<g>
		<g>
			<path class="st1" d="M512.4,1642.5c3.2,0,3.2-5,0-5S509.2,1642.5,512.4,1642.5L512.4,1642.5z"/>
		</g>
	</g>
	<g>
		<g>
			<path class="st1" d="M542.2,1699.4c3.2,0,3.2-5,0-5S539,1699.4,542.2,1699.4L542.2,1699.4z"/>
		</g>
	</g>
	<g>
		<g>
			<path class="st1" d="M567.6,1889.3c3.2,0,3.2-5,0-5C564.4,1884.3,564.4,1889.3,567.6,1889.3L567.6,1889.3z"/>
		</g>
	</g>
	<g>
		<g>
			<path class="st1" d="M578.7,1917.2c3.2,0,3.2-5,0-5S575.5,1917.2,578.7,1917.2L578.7,1917.2z"/>
		</g>
	</g>
	<g>
		<g>
			<path class="st1" d="M575.9,1752.9c3.2,0,3.2-5,0-5C572.6,1747.9,572.6,1752.9,575.9,1752.9L575.9,1752.9z"/>
		</g>
	</g>
	<g>
		<g>
			<path class="st1" d="M383.6,1693.1c3.2,0,3.2-5,0-5S380.4,1693.1,383.6,1693.1L383.6,1693.1z"/>
		</g>
	</g>
	<g>
		<g>
			<path class="st1" d="M941.3,1851c3.2,0,3.2-5,0-5S938.1,1851,941.3,1851L941.3,1851z"/>
		</g>
	</g>
	<g>
		<g>
			<path class="st1" d="M997.3,1754.6c3.2,0,3.2-5,0-5C994,1749.6,994,1754.6,997.3,1754.6L997.3,1754.6z"/>
		</g>
	</g>
	<g>
		<g>
			<path class="st1" d="M632.9,1977.6c3.2,0,3.2-5,0-5S629.7,1977.6,632.9,1977.6L632.9,1977.6z"/>
		</g>
	</g>
	<g>
		<g>
			<path class="st1" d="M352.7,1643.8c3.2,0,3.2-5,0-5S349.5,1643.8,352.7,1643.8L352.7,1643.8z"/>
		</g>
	</g>
	<g>
		<g>
			<path class="st1" d="M315,1701.9c3.2,0,3.2-5,0-5S311.8,1701.9,315,1701.9L315,1701.9z"/>
		</g>
	</g>
	<g>
		<g>
			<path class="st1" d="M135.1,1598.1c3.2,0,3.2-5,0-5C131.9,1593.1,131.9,1598.1,135.1,1598.1L135.1,1598.1z"/>
		</g>
	</g>
	<g>
		<g>
			<path class="st1" d="M73,1603.4c3.2,0,3.2-5,0-5S69.8,1603.4,73,1603.4L73,1603.4z"/>
		</g>
	</g>
	<g>
		<g>
			<path class="st1" d="M264.1,1537.9c3.2,0,3.2-5,0-5S260.9,1537.9,264.1,1537.9L264.1,1537.9z"/>
		</g>
	</g>
	<g>
		<g>
			<path class="st1" d="M1189.6,1551.6c3.2,0,3.2-5,0-5S1186.4,1551.6,1189.6,1551.6L1189.6,1551.6z"/>
		</g>
	</g>
	<g>
		<g>
			<path class="st1" d="M1036.1,1541.8c3.2,0,3.2-5,0-5S1032.9,1541.8,1036.1,1541.8L1036.1,1541.8z"/>
		</g>
	</g>
	<g>
		<g>
			<path class="st1" d="M1005,1611.4c3.2,0,3.2-5,0-5S1001.8,1611.4,1005,1611.4L1005,1611.4z"/>
		</g>
	</g>
	<g>
		<g>
			<path class="st1" d="M956.8,1548.3c3.2,0,3.2-5,0-5S953.6,1548.3,956.8,1548.3L956.8,1548.3z"/>
		</g>
	</g>
	<g>
		<g>
			<path class="st1" d="M1271.6,1535c3.2,0,3.2-5,0-5S1268.4,1535,1271.6,1535L1271.6,1535z"/>
		</g>
	</g>
	<g>
		<g>
			<g>
				<polyline class="st3" points="1180.9,1523 1139,1556.5 1100.5,1579.6 1100.5,1603.6 1087.6,1598.5 1087.6,1612.1 1119.3,1661.8 
					1123.6,1640.7 1151.8,1625.8 1153.5,1640.7 1180.9,1653.2 				"/>
				<polyline class="st3" points="1167.2,1592.4 1134.3,1598.5 1100.5,1579.6 				"/>
			</g>
			<g>
				<g>
					<path class="st4" d="M1165.9,1597.4c6.4,0,6.4-10,0-10C1159.4,1587.4,1159.4,1597.4,1165.9,1597.4L1165.9,1597.4z"/>
				</g>
			</g>
			<g>
				<g>
					<path class="st4" d="M1087.6,1617.1c6.4,0,6.4-10,0-10S1081.2,1617.1,1087.6,1617.1L1087.6,1617.1z"/>
				</g>
			</g>
			<g>
				<g>
					<path class="st4" d="M1119.3,1666.8c6.4,0,6.4-10,0-10S1112.8,1666.8,1119.3,1666.8L1119.3,1666.8z"/>
				</g>
			</g>
			<g>
				<g>
					<path class="st4" d="M1123.6,1645.7c6.4,0,6.4-10,0-10C1117.1,1635.7,1117.1,1645.7,1123.6,1645.7L1123.6,1645.7z"/>
				</g>
			</g>
			<g>
				<g>
					<path class="st4" d="M1151.8,1630.8c6.4,0,6.4-10,0-10S1145.4,1630.8,1151.8,1630.8L1151.8,1630.8z"/>
				</g>
			</g>
			<g>
				<g>
					<path class="st4" d="M1152.8,1645.7c6.4,0,6.4-10,0-10S1146.4,1645.7,1152.8,1645.7L1152.8,1645.7z"/>
				</g>
			</g>
			<g>
				<g>
					<path class="st4" d="M1100.5,1608.6c6.4,0,6.4-10,0-10C1094,1598.6,1094,1608.6,1100.5,1608.6L1100.5,1608.6z"/>
				</g>
			</g>
			<g>
				<g>
					<path class="st4" d="M1087.6,1603.5c6.4,0,6.4-10,0-10S1081.2,1603.5,1087.6,1603.5L1087.6,1603.5z"/>
				</g>
			</g>
			<g>
				<g>
					<path class="st4" d="M1134.3,1603.5c6.4,0,6.4-10,0-10C1127.8,1593.5,1127.8,1603.5,1134.3,1603.5L1134.3,1603.5z"/>
				</g>
			</g>
			<g>
				<g>
					<path class="st4" d="M1137.8,1561.8c6.4,0,6.4-10,0-10S1131.3,1561.8,1137.8,1561.8L1137.8,1561.8z"/>
				</g>
			</g>
			<g>
				<g>
					<path class="st4" d="M1100.5,1584.6c6.4,0,6.4-10,0-10C1094,1574.6,1094,1584.6,1100.5,1584.6L1100.5,1584.6z"/>
				</g>
			</g>
			<g>
				<g>
					<path class="st4" d="M1181.2,1658.6c6.4,0,6.4-10,0-10C1174.8,1648.6,1174.8,1658.6,1181.2,1658.6L1181.2,1658.6z"/>
				</g>
			</g>
		</g>
		<g>
			<g>
				<path class="st4" d="M1180.9,1528c6.4,0,6.4-10,0-10S1174.4,1528,1180.9,1528L1180.9,1528z"/>
			</g>
		</g>
	</g>
	<g>
		<g>
			<path class="st1" d="M1291.3,1734.6c3.2,0,3.2-5,0-5C1288,1729.6,1288,1734.6,1291.3,1734.6L1291.3,1734.6z"/>
		</g>
	</g>
	<g>
		<g>
			<path class="st1" d="M1320.1,1768.4c3.2,0,3.2-5,0-5C1316.8,1763.4,1316.8,1768.4,1320.1,1768.4L1320.1,1768.4z"/>
		</g>
	</g>
	<g>
		<g>
			<path class="st1" d="M1105,1806.9c3.2,0,3.2-5,0-5S1101.8,1806.9,1105,1806.9L1105,1806.9z"/>
		</g>
	</g>
	<g>
		<g>
			<path class="st1" d="M898,1996.5c3.2,0,3.2-5,0-5S894.8,1996.5,898,1996.5L898,1996.5z"/>
		</g>
	</g>
	<g>
		<g>
			<path class="st1" d="M784.8,1925.8c3.2,0,3.2-5,0-5S781.6,1925.8,784.8,1925.8L784.8,1925.8z"/>
		</g>
	</g>
	<g>
		<g>
			<path class="st1" d="M592.5,1887c3.2,0,3.2-5,0-5S589.3,1887,592.5,1887L592.5,1887z"/>
		</g>
	</g>
	<g>
		<g>
			<path class="st1" d="M1192.4,1891c3.2,0,3.2-5,0-5C1189.2,1886,1189.2,1891,1192.4,1891L1192.4,1891z"/>
		</g>
	</g>
	<g>
		<g>
			<path class="st1" d="M1334.7,1972.6c3.2,0,3.2-5,0-5S1331.5,1972.6,1334.7,1972.6L1334.7,1972.6z"/>
		</g>
	</g>
	<g>
		<g>
			<g>
				<path class="st4" d="M63.5,1692.9c6.4,0,6.4-10,0-10C57,1682.9,57,1692.9,63.5,1692.9L63.5,1692.9z"/>
			</g>
		</g>
		<g>
			<g>
				<path class="st4" d="M56.8,1722.6c6.4,0,6.4-10,0-10S50.4,1722.6,56.8,1722.6L56.8,1722.6z"/>
			</g>
		</g>
		<g>
			<g>
				<path class="st4" d="M74.1,1755.5c6.4,0,6.4-10,0-10S67.7,1755.5,74.1,1755.5L74.1,1755.5z"/>
			</g>
		</g>
		<g>
			<g>
				<path class="st4" d="M128,1817.4c6.4,0,6.4-10,0-10C121.6,1807.4,121.6,1817.4,128,1817.4L128,1817.4z"/>
			</g>
		</g>
		<g>
			<g>
				<path class="st4" d="M136.2,1793.2c6.4,0,6.4-10,0-10S129.8,1793.2,136.2,1793.2L136.2,1793.2z"/>
			</g>
		</g>
		<g>
			<g>
				<path class="st4" d="M103.3,1781c6.4,0,6.4-10,0-10S96.9,1781,103.3,1781L103.3,1781z"/>
			</g>
		</g>
		<g>
			<g>
				<path class="st4" d="M89.7,1804c6.4,0,6.4-10,0-10C83.2,1794,83.2,1804,89.7,1804L89.7,1804z"/>
			</g>
		</g>
		<polyline class="st3" points="63.5,1687.9 56.8,1717.6 74.1,1750.5 103.6,1775.3 136.2,1788.2 126.5,1812.4 89.7,1799 
			103.6,1775.3 		"/>
	</g>
	<g>
		<g>
			<g>
				<path class="st4" d="M228.7,1579.6c6.4,0,6.4-10,0-10S222.3,1579.6,228.7,1579.6L228.7,1579.6z"/>
			</g>
		</g>
		<g>
			<g>
				<path class="st4" d="M338.9,1599c6.4,0,6.4-10,0-10S332.5,1599,338.9,1599L338.9,1599z"/>
			</g>
		</g>
		<g>
			<g>
				<path class="st4" d="M257.3,1616c6.4,0,6.4-10,0-10S250.9,1616,257.3,1616L257.3,1616z"/>
			</g>
		</g>
		<g>
			<g>
				<path class="st4" d="M207.7,1648.1c6.4,0,6.4-10,0-10C201.2,1638.1,201.2,1648.1,207.7,1648.1L207.7,1648.1z"/>
			</g>
		</g>
		<g>
			<g>
				<path class="st4" d="M220.2,1604.2c6.4,0,6.4-10,0-10C213.7,1594.2,213.7,1604.2,220.2,1604.2L220.2,1604.2z"/>
			</g>
		</g>
		<g>
			<g>
				<path class="st4" d="M286.2,1587.2c6.4,0,6.4-10,0-10C279.7,1577.2,279.7,1587.2,286.2,1587.2L286.2,1587.2z"/>
			</g>
		</g>
		<g>
			<polyline class="st3" points="338.9,1594 286.2,1582.2 256.3,1613.2 220.2,1599.2 207.7,1643.1 			"/>
			<line class="st3" x1="228.7" y1="1574.6" x2="220.2" y2="1599.2"/>
		</g>
	</g>
	<g>
		<g>
			<g>
				<path class="st4" d="M1245.4,1827.2c6.4,0,6.4-10,0-10C1238.9,1817.2,1238.9,1827.2,1245.4,1827.2L1245.4,1827.2z"/>
			</g>
		</g>
		<g>
			<g>
				<path class="st4" d="M1245.3,1865.8c6.4,0,6.4-10,0-10S1238.8,1865.8,1245.3,1865.8L1245.3,1865.8z"/>
			</g>
		</g>
		<g>
			<g>
				<path class="st4" d="M1295.2,1895.1c6.4,0,6.4-10,0-10C1288.7,1885.1,1288.7,1895.1,1295.2,1895.1L1295.2,1895.1z"/>
			</g>
		</g>
		<g>
			<g>
				<path class="st4" d="M1334.7,1873c6.4,0,6.4-10,0-10C1328.3,1863,1328.3,1873,1334.7,1873L1334.7,1873z"/>
			</g>
		</g>
		<g>
			<g>
				<path class="st4" d="M1300.1,1829.2c6.4,0,6.4-10,0-10S1293.7,1829.2,1300.1,1829.2L1300.1,1829.2z"/>
			</g>
		</g>
		<g>
			<g>
				<path class="st4" d="M1226.3,1816.7c6.4,0,6.4-10,0-10S1219.9,1816.7,1226.3,1816.7L1226.3,1816.7z"/>
			</g>
		</g>
		<g>
			<g>
				<path class="st4" d="M1306.1,1815.6c6.4,0,6.4-10,0-10S1299.7,1815.6,1306.1,1815.6L1306.1,1815.6z"/>
			</g>
		</g>
		<g>
			<polyline class="st3" points="1306.9,1810.8 1300.1,1824.2 1309.3,1837.3 1334.7,1868 1295.2,1890.1 1245.8,1858.7 
				1245.4,1822.2 1226.1,1812.5 			"/>
			<line class="st3" x1="1334.7" y1="1868" x2="1245.8" y2="1858.7"/>
		</g>
	</g>
	<g>
		<g>
			<g>
				<path class="st4" d="M856.9,1634.7c6.4,0,6.4-10,0-10S850.4,1634.7,856.9,1634.7L856.9,1634.7z"/>
			</g>
		</g>
		<g>
			<g>
				<path class="st4" d="M774,1611.3c6.4,0,6.4-10,0-10S767.6,1611.3,774,1611.3L774,1611.3z"/>
			</g>
		</g>
		<g>
			<g>
				<path class="st4" d="M784.6,1625.1c6.4,0,6.4-10,0-10C778.1,1615.1,778.1,1625.1,784.6,1625.1L784.6,1625.1z"/>
			</g>
		</g>
		<g>
			<g>
				<path class="st4" d="M792.5,1676.5c6.4,0,6.4-10,0-10S786.1,1676.5,792.5,1676.5L792.5,1676.5z"/>
			</g>
		</g>
		<g>
			<g>
				<path class="st4" d="M737.4,1583.5c6.4,0,6.4-10,0-10C730.9,1573.5,730.9,1583.5,737.4,1583.5L737.4,1583.5z"/>
			</g>
		</g>
		<g>
			<polyline class="st3" points="792.5,1671.5 784.6,1620.1 774.3,1606 737.4,1578.5 			"/>
			<line class="st3" x1="856.9" y1="1629.7" x2="784.6" y2="1620.1"/>
		</g>
	</g>
</g>
</svg>
