<?xml version="1.0" encoding="utf-8"?>
<!-- Generator: Adobe Illustrator 23.0.1, SVG Export Plug-In . SVG Version: 6.00 Build 0)  -->
<svg version="1.1" id="Layer_1" xmlns="http://www.w3.org/2000/svg" xmlns:xlink="http://www.w3.org/1999/xlink" x="0px" y="0px"
	 viewBox="0 0 1366 768" style="enable-background:new 0 0 1366 768;" xml:space="preserve">
<style type="text/css">
	.st0{fill:#FFFFFF;}
	.st1{fill:none;}
	.st2{fill:#062039;}
	.st3{fill:none;stroke:#F9F6C7;stroke-width:2;stroke-miterlimit:10;}
	.st4{fill:#F9F6C7;}
</style>
<g>
	<g>
		<path class="st0" d="M37.8,121.3c3.2,0,3.2-5,0-5S34.6,121.3,37.8,121.3L37.8,121.3z"/>
	</g>
</g>
<g>
	<g>
		<path class="st0" d="M40.8,460.3c3.2,0,3.2-5,0-5S37.6,460.3,40.8,460.3L40.8,460.3z"/>
	</g>
</g>
<g>
	<g>
		<path class="st0" d="M31.9,337.2c3.2,0,3.2-5,0-5S28.7,337.2,31.9,337.2L31.9,337.2z"/>
	</g>
</g>
<g>
	<g>
		<path class="st0" d="M31.9,44.1c3.2,0,3.2-5,0-5S28.7,44.1,31.9,44.1L31.9,44.1z"/>
	</g>
</g>
<g>
	<g>
		<path class="st0" d="M18,527.2c3.2,0,3.2-5,0-5S14.8,527.2,18,527.2L18,527.2z"/>
	</g>
</g>
<g>
	<polyline class="st1" points="-1898.9,891.7 -1854.5,1001.9 -1761.2,1017.2 -1741.3,1099.8 -1646.4,1067.7 	"/>
	<line class="st1" x1="-1796.4" y1="1115.1" x2="-1741.3" y2="1099.8"/>
</g>
<g>
	<g>
		<g>
			<path class="st0" d="M17.2,131.3c3.2,0,3.2-5,0-5S14,131.3,17.2,131.3L17.2,131.3z"/>
		</g>
	</g>
	<g>
		<g>
			<path class="st0" d="M23.3,566.8c3.2,0,3.2-5,0-5C20,561.8,20,566.8,23.3,566.8L23.3,566.8z"/>
		</g>
	</g>
	<g>
		<g>
			<path class="st0" d="M14.8,438.9c3.2,0,3.2-5,0-5S11.6,438.9,14.8,438.9L14.8,438.9z"/>
		</g>
	</g>
	<g>
		<rect class="st2" width="1366" height="768"/>
		<g>
			<g>
				<path class="st0" d="M388.1,238.3c3.2,0,3.2-5,0-5S384.9,238.3,388.1,238.3L388.1,238.3z"/>
			</g>
		</g>
		<g>
			<g>
				<path class="st0" d="M492,199.9c3.2,0,3.2-5,0-5S488.8,199.9,492,199.9L492,199.9z"/>
			</g>
		</g>
		<g>
			<g>
				<path class="st0" d="M521.1,303.8c3.2,0,3.2-5,0-5C517.9,298.8,517.9,303.8,521.1,303.8L521.1,303.8z"/>
			</g>
		</g>
		<g>
			<g>
				<path class="st0" d="M482.3,313.5c3.2,0,3.2-5,0-5C479.1,308.5,479.1,313.5,482.3,313.5L482.3,313.5z"/>
			</g>
		</g>
		<g>
			<g>
				<path class="st0" d="M479.4,254.5c3.2,0,3.2-5,0-5C476.1,249.5,476.1,254.5,479.4,254.5L479.4,254.5z"/>
			</g>
		</g>
		<g>
			<g>
				<path class="st0" d="M448.5,265.9c3.2,0,3.2-5,0-5S445.3,265.9,448.5,265.9L448.5,265.9z"/>
			</g>
		</g>
		<g>
			<g>
				<path class="st0" d="M341.7,284.4c3.2,0,3.2-5,0-5S338.5,284.4,341.7,284.4L341.7,284.4z"/>
			</g>
		</g>
		<g>
			<g>
				<path class="st0" d="M304,374.9c3.2,0,3.2-5,0-5S300.8,374.9,304,374.9L304,374.9z"/>
			</g>
		</g>
		<g>
			<g>
				<path class="st0" d="M428,159.7c3.2,0,3.2-5,0-5S424.8,159.7,428,159.7L428,159.7z"/>
			</g>
		</g>
		<g>
			<g>
				<path class="st0" d="M377.7,108.9c3.2,0,3.2-5,0-5S374.4,108.9,377.7,108.9L377.7,108.9z"/>
			</g>
		</g>
		<g>
			<g>
				<path class="st0" d="M404.2,102c3.2,0,3.2-5,0-5S401,102,404.2,102L404.2,102z"/>
			</g>
		</g>
		<g>
			<g>
				<path class="st0" d="M201.9,22.2c3.2,0,3.2-5,0-5S198.7,22.2,201.9,22.2L201.9,22.2z"/>
			</g>
		</g>
		<g>
			<g>
				<path class="st0" d="M227.5,278c3.2,0,3.2-5,0-5S224.3,278,227.5,278L227.5,278z"/>
			</g>
		</g>
		<g>
			<g>
				<path class="st0" d="M123.8,224.6c3.2,0,3.2-5,0-5C120.6,219.6,120.6,224.6,123.8,224.6L123.8,224.6z"/>
			</g>
		</g>
		<g>
			<g>
				<path class="st0" d="M253.4,170.7c3.2,0,3.2-5,0-5C250.2,165.7,250.2,170.7,253.4,170.7L253.4,170.7z"/>
			</g>
		</g>
		<g>
			<g>
				<path class="st0" d="M286.2,265.9c3.2,0,3.2-5,0-5C282.9,260.9,282.9,265.9,286.2,265.9L286.2,265.9z"/>
			</g>
		</g>
		<g>
			<g>
				<path class="st0" d="M235.8,251.2c3.2,0,3.2-5,0-5C232.5,246.2,232.5,251.2,235.8,251.2L235.8,251.2z"/>
			</g>
		</g>
		<g>
			<g>
				<path class="st0" d="M211.6,181.4c3.2,0,3.2-5,0-5C208.4,176.4,208.4,181.4,211.6,181.4L211.6,181.4z"/>
			</g>
		</g>
		<g>
			<g>
				<path class="st0" d="M186.7,202.6c3.2,0,3.2-5,0-5S183.5,202.6,186.7,202.6L186.7,202.6z"/>
			</g>
		</g>
		<g>
			<g>
				<path class="st0" d="M101.7,235.8c3.2,0,3.2-5,0-5S98.5,235.8,101.7,235.8L101.7,235.8z"/>
			</g>
		</g>
		<g>
			<g>
				<path class="st0" d="M28.1,238.9c3.2,0,3.2-5,0-5S24.9,238.9,28.1,238.9L28.1,238.9z"/>
			</g>
		</g>
		<g>
			<g>
				<path class="st0" d="M142.3,95.4c3.2,0,3.2-5,0-5S139.1,95.4,142.3,95.4L142.3,95.4z"/>
			</g>
		</g>
		<g>
			<g>
				<path class="st0" d="M127.5,35.3c3.2,0,3.2-5,0-5S124.3,35.3,127.5,35.3L127.5,35.3z"/>
			</g>
		</g>
		<g>
			<g>
				<path class="st0" d="M159.7,44.1c3.2,0,3.2-5,0-5S156.5,44.1,159.7,44.1L159.7,44.1z"/>
			</g>
		</g>
		<g>
			<g>
				<path class="st0" d="M260.9,515.8c3.2,0,3.2-5,0-5C257.7,510.8,257.7,515.8,260.9,515.8L260.9,515.8z"/>
			</g>
		</g>
		<g>
			<g>
				<path class="st0" d="M253.6,448.5c3.2,0,3.2-5,0-5S250.4,448.5,253.6,448.5L253.6,448.5z"/>
			</g>
		</g>
		<g>
			<g>
				<path class="st0" d="M415.9,484.1c3.2,0,3.2-5,0-5C412.7,479.1,412.7,484.1,415.9,484.1L415.9,484.1z"/>
			</g>
		</g>
		<g>
			<g>
				<path class="st0" d="M392.7,489.4c3.2,0,3.2-5,0-5S389.5,489.4,392.7,489.4L392.7,489.4z"/>
			</g>
		</g>
		<g>
			<g>
				<path class="st0" d="M207.7,515.8c3.2,0,3.2-5,0-5S204.5,515.8,207.7,515.8L207.7,515.8z"/>
			</g>
		</g>
		<g>
			<g>
				<path class="st0" d="M121.1,537.5c3.2,0,3.2-5,0-5S117.9,537.5,121.1,537.5L121.1,537.5z"/>
			</g>
		</g>
		<g>
			<g>
				<path class="st0" d="M178.9,374.9c3.2,0,3.2-5,0-5C175.6,369.9,175.6,374.9,178.9,374.9L178.9,374.9z"/>
			</g>
		</g>
		<g>
			<g>
				<path class="st0" d="M142,329.6c3.2,0,3.2-5,0-5S138.8,329.6,142,329.6L142,329.6z"/>
			</g>
		</g>
		<g>
			<g>
				<path class="st0" d="M186.3,331.1c3.2,0,3.2-5,0-5S183.1,331.1,186.3,331.1L186.3,331.1z"/>
			</g>
		</g>
		<g>
			<g>
				<path class="st0" d="M763.6,293.9c3.2,0,3.2-5,0-5C760.4,288.9,760.4,293.9,763.6,293.9L763.6,293.9z"/>
			</g>
		</g>
		<g>
			<g>
				<path class="st0" d="M691.4,214.5c3.2,0,3.2-5,0-5S688.2,214.5,691.4,214.5L691.4,214.5z"/>
			</g>
		</g>
		<g>
			<g>
				<path class="st0" d="M744.7,167.2c3.2,0,3.2-5,0-5S741.5,167.2,744.7,167.2L744.7,167.2z"/>
			</g>
		</g>
		<g>
			<g>
				<path class="st0" d="M818.6,284.4c3.2,0,3.2-5,0-5C815.4,279.4,815.4,284.4,818.6,284.4L818.6,284.4z"/>
			</g>
		</g>
		<g>
			<g>
				<path class="st0" d="M765.6,238.5c3.2,0,3.2-5,0-5C762.4,233.5,762.4,238.5,765.6,238.5L765.6,238.5z"/>
			</g>
		</g>
		<g>
			<g>
				<path class="st0" d="M638.7,287.6c3.2,0,3.2-5,0-5C635.4,282.6,635.4,287.6,638.7,287.6L638.7,287.6z"/>
			</g>
		</g>
		<g>
			<g>
				<path class="st0" d="M558.1,180.6c3.2,0,3.2-5,0-5C554.8,175.6,554.8,180.6,558.1,180.6L558.1,180.6z"/>
			</g>
		</g>
		<g>
			<g>
				<path class="st0" d="M704.2,107.5c3.2,0,3.2-5,0-5C700.9,102.5,700.9,107.5,704.2,107.5L704.2,107.5z"/>
			</g>
		</g>
		<g>
			<g>
				<path class="st0" d="M671.5,54.5c3.2,0,3.2-5,0-5C668.2,49.5,668.2,54.5,671.5,54.5L671.5,54.5z"/>
			</g>
		</g>
		<g>
			<g>
				<path class="st0" d="M703.4,83.8c3.2,0,3.2-5,0-5S700.2,83.8,703.4,83.8L703.4,83.8z"/>
			</g>
		</g>
		<g>
			<g>
				<path class="st0" d="M599.6,144.2c3.2,0,3.2-5,0-5C596.4,139.2,596.3,144.2,599.6,144.2L599.6,144.2z"/>
			</g>
		</g>
		<g>
			<g>
				<path class="st0" d="M517.2,74.4c3.2,0,3.2-5,0-5S514,74.4,517.2,74.4L517.2,74.4z"/>
			</g>
		</g>
		<g>
			<g>
				<path class="st0" d="M609.1,41.9c3.2,0,3.2-5,0-5C605.9,36.9,605.9,41.9,609.1,41.9L609.1,41.9z"/>
			</g>
		</g>
		<g>
			<g>
				<path class="st0" d="M627.6,125.5c3.2,0,3.2-5,0-5C624.4,120.5,624.4,125.5,627.6,125.5L627.6,125.5z"/>
			</g>
		</g>
		<g>
			<g>
				<path class="st0" d="M604,116.5c3.2,0,3.2-5,0-5S600.8,116.5,604,116.5L604,116.5z"/>
			</g>
		</g>
		<g>
			<g>
				<path class="st0" d="M598.2,39.2c3.2,0,3.2-5,0-5C594.9,34.2,594.9,39.2,598.2,39.2L598.2,39.2z"/>
			</g>
		</g>
		<g>
			<g>
				<path class="st0" d="M578.9,92.9c3.2,0,3.2-5,0-5S575.7,92.9,578.9,92.9L578.9,92.9z"/>
			</g>
		</g>
		<g>
			<g>
				<path class="st0" d="M459.8,142.5c3.2,0,3.2-5,0-5C456.6,137.5,456.6,142.5,459.8,142.5L459.8,142.5z"/>
			</g>
		</g>
		<g>
			<g>
				<path class="st0" d="M1059.7,239.2c3.2,0,3.2-5,0-5S1056.5,239.2,1059.7,239.2L1059.7,239.2z"/>
			</g>
		</g>
		<g>
			<g>
				<path class="st0" d="M992.2,116c3.2,0,3.2-5,0-5S989,116,992.2,116L992.2,116z"/>
			</g>
		</g>
		<g>
			<g>
				<path class="st0" d="M1091.4,58.2c3.2,0,3.2-5,0-5C1088.2,53.2,1088.2,58.2,1091.4,58.2L1091.4,58.2z"/>
			</g>
		</g>
		<g>
			<g>
				<path class="st0" d="M1060.4,181c3.2,0,3.2-5,0-5C1057.2,176,1057.2,181,1060.4,181L1060.4,181z"/>
			</g>
		</g>
		<g>
			<g>
				<path class="st0" d="M1168.7,207.5c3.2,0,3.2-5,0-5S1165.5,207.5,1168.7,207.5L1168.7,207.5z"/>
			</g>
		</g>
		<g>
			<g>
				<path class="st0" d="M1053.9,83.3c3.2,0,3.2-5,0-5C1050.7,78.3,1050.7,83.3,1053.9,83.3L1053.9,83.3z"/>
			</g>
		</g>
		<g>
			<g>
				<path class="st0" d="M1023.8,123.9c3.2,0,3.2-5,0-5S1020.6,123.9,1023.8,123.9L1023.8,123.9z"/>
			</g>
		</g>
		<g>
			<g>
				<path class="st0" d="M929.8,171.5c3.2,0,3.2-5,0-5S926.6,171.5,929.8,171.5L929.8,171.5z"/>
			</g>
		</g>
		<g>
			<g>
				<path class="st0" d="M861.8,100.7c3.2,0,3.2-5,0-5S858.6,100.7,861.8,100.7L861.8,100.7z"/>
			</g>
		</g>
		<g>
			<g>
				<path class="st0" d="M999.5,13.9c3.2,0,3.2-5,0-5S996.3,13.9,999.5,13.9L999.5,13.9z"/>
			</g>
		</g>
		<g>
			<g>
				<path class="st0" d="M1261.4,512.9c3.2,0,3.2-5,0-5C1258.2,507.9,1258.2,512.9,1261.4,512.9L1261.4,512.9z"/>
			</g>
		</g>
		<g>
			<g>
				<path class="st0" d="M1167.3,446.3c3.2,0,3.2-5,0-5C1164,441.3,1164,446.3,1167.3,446.3L1167.3,446.3z"/>
			</g>
		</g>
		<g>
			<g>
				<path class="st0" d="M1261.3,415.9c3.2,0,3.2-5,0-5C1258.1,410.9,1258.1,415.9,1261.3,415.9L1261.3,415.9z"/>
			</g>
		</g>
		<g>
			<g>
				<path class="st0" d="M1293.5,492.8c3.2,0,3.2-5,0-5S1290.3,492.8,1293.5,492.8L1293.5,492.8z"/>
			</g>
		</g>
		<g>
			<g>
				<path class="st0" d="M1329.9,564.3c3.2,0,3.2-5,0-5S1326.7,564.3,1329.9,564.3L1329.9,564.3z"/>
			</g>
		</g>
		<g>
			<g>
				<path class="st0" d="M1264.9,493.5c3.2,0,3.2-5,0-5C1261.7,488.5,1261.7,493.5,1264.9,493.5L1264.9,493.5z"/>
			</g>
		</g>
		<g>
			<g>
				<path class="st0" d="M1238.9,454.9c3.2,0,3.2-5,0-5C1235.7,449.9,1235.7,454.9,1238.9,454.9L1238.9,454.9z"/>
			</g>
		</g>
		<g>
			<g>
				<path class="st0" d="M1104.4,491.2c3.2,0,3.2-5,0-5C1101.2,486.2,1101.2,491.2,1104.4,491.2L1104.4,491.2z"/>
			</g>
		</g>
		<g>
			<g>
				<path class="st0" d="M1053.8,457.7c3.2,0,3.2-5,0-5C1050.6,452.7,1050.6,457.7,1053.8,457.7L1053.8,457.7z"/>
			</g>
		</g>
		<g>
			<g>
				<path class="st0" d="M1048.8,379.5c3.2,0,3.2-5,0-5C1045.6,374.5,1045.6,379.5,1048.8,379.5L1048.8,379.5z"/>
			</g>
		</g>
		<g>
			<g>
				<path class="st0" d="M1190.4,339.2c3.2,0,3.2-5,0-5C1187.2,334.2,1187.2,339.2,1190.4,339.2L1190.4,339.2z"/>
			</g>
		</g>
		<g>
			<g>
				<path class="st0" d="M1152.5,263.3c3.2,0,3.2-5,0-5S1149.3,263.3,1152.5,263.3L1152.5,263.3z"/>
			</g>
		</g>
		<g>
			<g>
				<path class="st0" d="M1327,150.4c3.2,0,3.2-5,0-5S1323.8,150.4,1327,150.4L1327,150.4z"/>
			</g>
		</g>
		<g>
			<g>
				<path class="st0" d="M1251.8,52.6c3.2,0,3.2-5,0-5C1248.6,47.6,1248.6,52.6,1251.8,52.6L1251.8,52.6z"/>
			</g>
		</g>
		<g>
			<g>
				<path class="st0" d="M1344.7,18.4c3.2,0,3.2-5,0-5S1341.5,18.4,1344.7,18.4L1344.7,18.4z"/>
			</g>
		</g>
		<g>
			<g>
				<path class="st0" d="M1344.7,87.9c3.2,0,3.2-5,0-5S1341.5,87.9,1344.7,87.9L1344.7,87.9z"/>
			</g>
		</g>
		<g>
			<g>
				<path class="st0" d="M1356.7,55.6c3.2,0,3.2-5,0-5S1353.5,55.6,1356.7,55.6L1356.7,55.6z"/>
			</g>
		</g>
		<g>
			<g>
				<path class="st0" d="M1322.7,103c3.2,0,3.2-5,0-5S1319.5,103,1322.7,103L1322.7,103z"/>
			</g>
		</g>
		<g>
			<g>
				<path class="st0" d="M1207.5,114.5c3.2,0,3.2-5,0-5S1204.3,114.5,1207.5,114.5L1207.5,114.5z"/>
			</g>
		</g>
		<g>
			<g>
				<path class="st0" d="M1232,13.9c3.2,0,3.2-5,0-5S1228.8,13.9,1232,13.9L1232,13.9z"/>
			</g>
		</g>
		<g>
			<g>
				<path class="st0" d="M1136.8,55.8c3.2,0,3.2-5,0-5C1133.6,50.8,1133.6,55.8,1136.8,55.8L1136.8,55.8z"/>
			</g>
		</g>
		<g>
			<g>
				<path class="st0" d="M1253.8,189c3.2,0,3.2-5,0-5C1250.6,184,1250.6,189,1253.8,189L1253.8,189z"/>
			</g>
		</g>
		<g>
			<g>
				<path class="st0" d="M1125.9,275c3.2,0,3.2-5,0-5C1122.7,270,1122.7,275,1125.9,275L1125.9,275z"/>
			</g>
		</g>
		<g>
			<g>
				<path class="st0" d="M1175.2,273.5c3.2,0,3.2-5,0-5S1171.9,273.5,1175.2,273.5L1175.2,273.5z"/>
			</g>
		</g>
		<g>
			<g>
				<path class="st0" d="M1236.4,274c3.2,0,3.2-5,0-5C1233.1,269,1233.1,274,1236.4,274L1236.4,274z"/>
			</g>
		</g>
		<g>
			<g>
				<path class="st0" d="M1263.8,123c3.2,0,3.2-5,0-5C1260.6,118,1260.6,123,1263.8,123L1263.8,123z"/>
			</g>
		</g>
		<g>
			<g>
				<path class="st0" d="M1346.2,317.8c3.2,0,3.2-5,0-5S1343,317.8,1346.2,317.8L1346.2,317.8z"/>
			</g>
		</g>
		<g>
			<g>
				<path class="st0" d="M987.1,441.4c3.2,0,3.2-5,0-5C983.9,436.4,983.9,441.4,987.1,441.4L987.1,441.4z"/>
			</g>
		</g>
		<g>
			<g>
				<path class="st0" d="M905.6,353.9c3.2,0,3.2-5,0-5C902.4,348.9,902.4,353.9,905.6,353.9L905.6,353.9z"/>
			</g>
		</g>
		<g>
			<g>
				<path class="st0" d="M1004.8,329.1c3.2,0,3.2-5,0-5S1001.6,329.1,1004.8,329.1L1004.8,329.1z"/>
			</g>
		</g>
		<g>
			<g>
				<path class="st0" d="M990.2,375.7c3.2,0,3.2-5,0-5S987,375.7,990.2,375.7L990.2,375.7z"/>
			</g>
		</g>
		<g>
			<g>
				<path class="st0" d="M974,372.3c3.2,0,3.2-5,0-5S970.8,372.3,974,372.3L974,372.3z"/>
			</g>
		</g>
		<g>
			<g>
				<path class="st0" d="M849.5,449.4c3.2,0,3.2-5,0-5S846.3,449.4,849.5,449.4L849.5,449.4z"/>
			</g>
		</g>
		<g>
			<g>
				<path class="st0" d="M797.1,345c3.2,0,3.2-5,0-5C793.9,340,793.9,345,797.1,345L797.1,345z"/>
			</g>
		</g>
		<g>
			<g>
				<path class="st0" d="M880.7,238.9c3.2,0,3.2-5,0-5S877.5,238.9,880.7,238.9L880.7,238.9z"/>
			</g>
		</g>
		<g>
			<g>
				<path class="st0" d="M934.5,203.1c3.2,0,3.2-5,0-5S931.3,203.1,934.5,203.1L934.5,203.1z"/>
			</g>
		</g>
		<g>
			<g>
				<path class="st0" d="M914.5,159.8c3.2,0,3.2-5,0-5C911.2,154.8,911.2,159.8,914.5,159.8L914.5,159.8z"/>
			</g>
		</g>
		<g>
			<g>
				<path class="st0" d="M822,37c3.2,0,3.2-5,0-5S818.8,37,822,37L822,37z"/>
			</g>
		</g>
		<g>
			<g>
				<path class="st0" d="M931.1,103.3c3.2,0,3.2-5,0-5C927.9,98.3,927.9,103.3,931.1,103.3L931.1,103.3z"/>
			</g>
		</g>
		<g>
			<g>
				<path class="st0" d="M902.5,49.4c3.2,0,3.2-5,0-5S899.3,49.4,902.5,49.4L902.5,49.4z"/>
			</g>
		</g>
		<g>
			<g>
				<path class="st0" d="M877.9,22.2c3.2,0,3.2-5,0-5S874.7,22.2,877.9,22.2L877.9,22.2z"/>
			</g>
		</g>
		<g>
			<g>
				<path class="st0" d="M782.7,86.8c3.2,0,3.2-5,0-5S779.5,86.8,782.7,86.8L782.7,86.8z"/>
			</g>
		</g>
		<g>
			<g>
				<path class="st0" d="M744.7,18.4c3.2,0,3.2-5,0-5S741.5,18.4,744.7,18.4L744.7,18.4z"/>
			</g>
		</g>
		<g>
			<g>
				<path class="st0" d="M405.5,561.8c3.2,0,3.2-5,0-5S402.3,561.8,405.5,561.8L405.5,561.8z"/>
			</g>
		</g>
		<g>
			<g>
				<path class="st0" d="M512.9,494.1c3.2,0,3.2-5,0-5S509.7,494.1,512.9,494.1L512.9,494.1z"/>
			</g>
		</g>
		<g>
			<g>
				<path class="st0" d="M532.1,601.5c3.2,0,3.2-5,0-5C528.8,596.5,528.8,601.5,532.1,601.5L532.1,601.5z"/>
			</g>
		</g>
		<g>
			<g>
				<path class="st0" d="M495,604.6c3.2,0,3.2-5,0-5S491.8,604.6,495,604.6L495,604.6z"/>
			</g>
		</g>
		<g>
			<g>
				<path class="st0" d="M486.3,544.3c3.2,0,3.2-5,0-5C483.1,539.3,483.1,544.3,486.3,544.3L486.3,544.3z"/>
			</g>
		</g>
		<g>
			<g>
				<path class="st0" d="M345.4,567.9c3.2,0,3.2-5,0-5C342.1,562.9,342.1,567.9,345.4,567.9L345.4,567.9z"/>
			</g>
		</g>
		<g>
			<g>
				<path class="st0" d="M306.3,501.9c3.2,0,3.2-5,0-5C303,496.9,303,501.9,306.3,501.9L306.3,501.9z"/>
			</g>
		</g>
		<g>
			<g>
				<path class="st0" d="M404.3,395.8c3.2,0,3.2-5,0-5C401.1,390.8,401.1,395.8,404.3,395.8L404.3,395.8z"/>
			</g>
		</g>
		<g>
			<g>
				<path class="st0" d="M417.6,382.1c3.2,0,3.2-5,0-5S414.3,382.1,417.6,382.1L417.6,382.1z"/>
			</g>
		</g>
		<g>
			<g>
				<path class="st0" d="M785.9,686.4c3.2,0,3.2-5,0-5S782.7,686.4,785.9,686.4L785.9,686.4z"/>
			</g>
		</g>
		<g>
			<g>
				<path class="st0" d="M716,575.4c3.2,0,3.2-5,0-5S712.8,575.4,716,575.4L716,575.4z"/>
			</g>
		</g>
		<g>
			<g>
				<path class="st0" d="M812.6,643.9c3.2,0,3.2-5,0-5C809.3,638.9,809.3,643.9,812.6,643.9L812.6,643.9z"/>
			</g>
		</g>
		<g>
			<g>
				<path class="st0" d="M761.1,579.6c3.2,0,3.2-5,0-5C757.9,574.6,757.9,579.6,761.1,579.6L761.1,579.6z"/>
			</g>
		</g>
		<g>
			<g>
				<path class="st0" d="M667.9,608.1c3.2,0,3.2-5,0-5C664.6,603.1,664.6,608.1,667.9,608.1L667.9,608.1z"/>
			</g>
		</g>
		<g>
			<g>
				<path class="st0" d="M705,435.4c3.2,0,3.2-5,0-5S701.8,435.4,705,435.4L705,435.4z"/>
			</g>
		</g>
		<g>
			<g>
				<path class="st0" d="M684.2,431.3c3.2,0,3.2-5,0-5S681,431.3,684.2,431.3L684.2,431.3z"/>
			</g>
		</g>
		<g>
			<g>
				<path class="st0" d="M724.2,427.7c3.2,0,3.2-5,0-5S721,427.7,724.2,427.7L724.2,427.7z"/>
			</g>
		</g>
		<g>
			<g>
				<path class="st0" d="M751.2,447.9c3.2,0,3.2-5,0-5S748,447.9,751.2,447.9L751.2,447.9z"/>
			</g>
		</g>
		<g>
			<g>
				<path class="st0" d="M989,669.5c3.2,0,3.2-5,0-5S985.8,669.5,989,669.5L989,669.5z"/>
			</g>
		</g>
		<g>
			<g>
				<path class="st0" d="M1077.5,603.7c3.2,0,3.2-5,0-5S1074.2,603.7,1077.5,603.7L1077.5,603.7z"/>
			</g>
		</g>
		<g>
			<g>
				<path class="st0" d="M924.3,707.3c3.2,0,3.2-5,0-5S921.1,707.3,924.3,707.3L924.3,707.3z"/>
			</g>
		</g>
		<g>
			<g>
				<path class="st0" d="M982,563.6c3.2,0,3.2-5,0-5S978.8,563.6,982,563.6L982,563.6z"/>
			</g>
		</g>
		<g>
			<g>
				<path class="st0" d="M963.3,515.3c3.2,0,3.2-5,0-5S960.1,515.3,963.3,515.3L963.3,515.3z"/>
			</g>
		</g>
		<g>
			<g>
				<path class="st0" d="M242,302c3.2,0,3.2-5,0-5C238.7,297,238.7,302,242,302L242,302z"/>
			</g>
		</g>
		<g>
			<g>
				<path class="st0" d="M354.4,432.2c3.2,0,3.2-5,0-5C351.2,427.2,351.2,432.2,354.4,432.2L354.4,432.2z"/>
			</g>
		</g>
		<g>
			<g>
				<path class="st0" d="M99.4,442.9c3.2,0,3.2-5,0-5C96.2,437.9,96.1,442.9,99.4,442.9L99.4,442.9z"/>
			</g>
		</g>
		<g>
			<g>
				<path class="st0" d="M85,366.6c3.2,0,3.2-5,0-5S81.8,366.6,85,366.6L85,366.6z"/>
			</g>
		</g>
		<g>
			<g>
				<path class="st0" d="M25.7,341.7c3.2,0,3.2-5,0-5S22.5,341.7,25.7,341.7L25.7,341.7z"/>
			</g>
		</g>
		<g>
			<g>
				<path class="st0" d="M463.5,26.9c3.2,0,3.2-5,0-5S460.2,26.9,463.5,26.9L463.5,26.9z"/>
			</g>
		</g>
		<g>
			<g>
				<path class="st0" d="M352.7,13.7c3.2,0,3.2-5,0-5S349.5,13.7,352.7,13.7L352.7,13.7z"/>
			</g>
		</g>
		<g>
			<g>
				<path class="st0" d="M512.4,140.5c3.2,0,3.2-5,0-5S509.2,140.5,512.4,140.5L512.4,140.5z"/>
			</g>
		</g>
		<g>
			<g>
				<path class="st0" d="M542.2,197.4c3.2,0,3.2-5,0-5S539,197.4,542.2,197.4L542.2,197.4z"/>
			</g>
		</g>
		<g>
			<g>
				<path class="st0" d="M567.6,387.3c3.2,0,3.2-5,0-5C564.4,382.3,564.4,387.3,567.6,387.3L567.6,387.3z"/>
			</g>
		</g>
		<g>
			<g>
				<path class="st0" d="M578.7,415.2c3.2,0,3.2-5,0-5S575.5,415.2,578.7,415.2L578.7,415.2z"/>
			</g>
		</g>
		<g>
			<g>
				<path class="st0" d="M575.9,250.9c3.2,0,3.2-5,0-5C572.6,245.9,572.6,250.9,575.9,250.9L575.9,250.9z"/>
			</g>
		</g>
		<g>
			<g>
				<path class="st0" d="M383.6,191.1c3.2,0,3.2-5,0-5S380.4,191.1,383.6,191.1L383.6,191.1z"/>
			</g>
		</g>
		<g>
			<g>
				<path class="st0" d="M941.3,349c3.2,0,3.2-5,0-5S938.1,349,941.3,349L941.3,349z"/>
			</g>
		</g>
		<g>
			<g>
				<path class="st0" d="M997.3,252.6c3.2,0,3.2-5,0-5C994,247.6,994,252.6,997.3,252.6L997.3,252.6z"/>
			</g>
		</g>
		<g>
			<g>
				<path class="st0" d="M439.2,655.6c3.2,0,3.2-5,0-5S436,655.6,439.2,655.6L439.2,655.6z"/>
			</g>
		</g>
		<g>
			<g>
				<path class="st0" d="M352.1,714.5c3.2,0,3.2-5,0-5S348.8,714.5,352.1,714.5L352.1,714.5z"/>
			</g>
		</g>
		<g>
			<g>
				<path class="st0" d="M331.8,683.3c3.2,0,3.2-5,0-5C328.6,678.3,328.6,683.3,331.8,683.3L331.8,683.3z"/>
			</g>
		</g>
		<g>
			<g>
				<path class="st0" d="M260.5,658.2c3.2,0,3.2-5,0-5C257.2,653.2,257.2,658.2,260.5,658.2L260.5,658.2z"/>
			</g>
		</g>
		<g>
			<g>
				<path class="st0" d="M185.4,734.8c3.2,0,3.2-5,0-5S182.2,734.8,185.4,734.8L185.4,734.8z"/>
			</g>
		</g>
		<g>
			<g>
				<path class="st0" d="M86,626.2c3.2,0,3.2-5,0-5C82.7,621.2,82.7,626.2,86,626.2L86,626.2z"/>
			</g>
		</g>
		<g>
			<g>
				<path class="st0" d="M74.1,744.6c3.2,0,3.2-5,0-5C70.8,739.6,70.8,744.6,74.1,744.6L74.1,744.6z"/>
			</g>
		</g>
		<g>
			<g>
				<path class="st0" d="M28.2,680.8c3.2,0,3.2-5,0-5C24.9,675.8,24.9,680.8,28.2,680.8L28.2,680.8z"/>
			</g>
		</g>
		<g>
			<g>
				<path class="st0" d="M95.2,518.1c3.2,0,3.2-5,0-5S92,518.1,95.2,518.1L95.2,518.1z"/>
			</g>
		</g>
		<g>
			<g>
				<path class="st0" d="M56.8,580.6c3.2,0,3.2-5,0-5S53.6,580.6,56.8,580.6L56.8,580.6z"/>
			</g>
		</g>
		<g>
			<g>
				<path class="st0" d="M45.5,529.5c3.2,0,3.2-5,0-5S42.3,529.5,45.5,529.5L45.5,529.5z"/>
			</g>
		</g>
		<g>
			<g>
				<path class="st0" d="M632.9,475.6c3.2,0,3.2-5,0-5S629.7,475.6,632.9,475.6L632.9,475.6z"/>
			</g>
		</g>
		<g>
			<g>
				<path class="st0" d="M352.7,141.8c3.2,0,3.2-5,0-5S349.5,141.8,352.7,141.8L352.7,141.8z"/>
			</g>
		</g>
		<g>
			<g>
				<path class="st0" d="M315,199.9c3.2,0,3.2-5,0-5S311.8,199.9,315,199.9L315,199.9z"/>
			</g>
		</g>
		<g>
			<g>
				<path class="st0" d="M135.1,96.1c3.2,0,3.2-5,0-5C131.9,91.1,131.9,96.1,135.1,96.1L135.1,96.1z"/>
			</g>
		</g>
		<g>
			<g>
				<path class="st0" d="M73,101.4c3.2,0,3.2-5,0-5S69.8,101.4,73,101.4L73,101.4z"/>
			</g>
		</g>
		<g>
			<g>
				<path class="st0" d="M61.6,35.3c3.2,0,3.2-5,0-5S58.4,35.3,61.6,35.3L61.6,35.3z"/>
			</g>
		</g>
		<g>
			<g>
				<path class="st0" d="M264.1,35.9c3.2,0,3.2-5,0-5C260.9,30.9,260.9,35.9,264.1,35.9L264.1,35.9z"/>
			</g>
		</g>
		<g>
			<g>
				<path class="st0" d="M1189.6,49.6c3.2,0,3.2-5,0-5S1186.4,49.6,1189.6,49.6L1189.6,49.6z"/>
			</g>
		</g>
		<g>
			<g>
				<path class="st0" d="M1036.1,39.8c3.2,0,3.2-5,0-5S1032.9,39.8,1036.1,39.8L1036.1,39.8z"/>
			</g>
		</g>
		<g>
			<g>
				<path class="st0" d="M1005,109.4c3.2,0,3.2-5,0-5S1001.8,109.4,1005,109.4L1005,109.4z"/>
			</g>
		</g>
		<g>
			<g>
				<path class="st0" d="M956.8,46.3c3.2,0,3.2-5,0-5S953.6,46.3,956.8,46.3L956.8,46.3z"/>
			</g>
		</g>
		<g>
			<g>
				<path class="st0" d="M1271.6,33c3.2,0,3.2-5,0-5S1268.4,33,1271.6,33L1271.6,33z"/>
			</g>
		</g>
		<g>
			<g>
				<g>
					<polyline class="st3" points="1180.9,21 1139,54.5 1100.5,77.6 1100.5,101.6 1087.6,96.5 1087.6,110.1 1119.3,159.8 
						1123.6,138.7 1151.8,123.8 1153.5,138.7 1180.9,151.2 					"/>
					<polyline class="st3" points="1167.2,90.4 1134.3,96.5 1100.5,77.6 					"/>
				</g>
				<g>
					<g>
						<path class="st4" d="M1165.9,95.4c6.4,0,6.4-10,0-10C1159.4,85.4,1159.4,95.4,1165.9,95.4L1165.9,95.4z"/>
					</g>
				</g>
				<g>
					<g>
						<path class="st4" d="M1087.6,115.1c6.4,0,6.4-10,0-10S1081.2,115.1,1087.6,115.1L1087.6,115.1z"/>
					</g>
				</g>
				<g>
					<g>
						<path class="st4" d="M1119.3,164.8c6.4,0,6.4-10,0-10S1112.8,164.8,1119.3,164.8L1119.3,164.8z"/>
					</g>
				</g>
				<g>
					<g>
						<path class="st4" d="M1123.6,143.7c6.4,0,6.4-10,0-10C1117.1,133.7,1117.1,143.7,1123.6,143.7L1123.6,143.7z"/>
					</g>
				</g>
				<g>
					<g>
						<path class="st4" d="M1151.8,128.8c6.4,0,6.4-10,0-10S1145.4,128.8,1151.8,128.8L1151.8,128.8z"/>
					</g>
				</g>
				<g>
					<g>
						<path class="st4" d="M1152.8,143.7c6.4,0,6.4-10,0-10S1146.4,143.7,1152.8,143.7L1152.8,143.7z"/>
					</g>
				</g>
				<g>
					<g>
						<path class="st4" d="M1100.5,106.6c6.4,0,6.4-10,0-10C1094,96.6,1094,106.6,1100.5,106.6L1100.5,106.6z"/>
					</g>
				</g>
				<g>
					<g>
						<path class="st4" d="M1087.6,101.5c6.4,0,6.4-10,0-10S1081.2,101.5,1087.6,101.5L1087.6,101.5z"/>
					</g>
				</g>
				<g>
					<g>
						<path class="st4" d="M1134.3,101.5c6.4,0,6.4-10,0-10C1127.8,91.5,1127.8,101.5,1134.3,101.5L1134.3,101.5z"/>
					</g>
				</g>
				<g>
					<g>
						<path class="st4" d="M1137.8,59.8c6.4,0,6.4-10,0-10S1131.3,59.8,1137.8,59.8L1137.8,59.8z"/>
					</g>
				</g>
				<g>
					<g>
						<path class="st4" d="M1100.5,82.6c6.4,0,6.4-10,0-10C1094,72.6,1094,82.6,1100.5,82.6L1100.5,82.6z"/>
					</g>
				</g>
				<g>
					<g>
						<path class="st4" d="M1181.2,156.6c6.4,0,6.4-10,0-10C1174.8,146.6,1174.8,156.6,1181.2,156.6L1181.2,156.6z"/>
					</g>
				</g>
			</g>
			<g>
				<g>
					<path class="st4" d="M1180.9,26c6.4,0,6.4-10,0-10S1174.4,26,1180.9,26L1180.9,26z"/>
				</g>
			</g>
		</g>
		<g>
			<g>
				<path class="st0" d="M1291.3,232.6c3.2,0,3.2-5,0-5C1288,227.6,1288,232.6,1291.3,232.6L1291.3,232.6z"/>
			</g>
		</g>
		<g>
			<g>
				<path class="st0" d="M1320.1,266.4c3.2,0,3.2-5,0-5C1316.8,261.4,1316.8,266.4,1320.1,266.4L1320.1,266.4z"/>
			</g>
		</g>
		<g>
			<g>
				<path class="st0" d="M1105,304.9c3.2,0,3.2-5,0-5S1101.8,304.9,1105,304.9L1105,304.9z"/>
			</g>
		</g>
		<g>
			<g>
				<path class="st0" d="M1313.7,642.9c3.2,0,3.2-5,0-5C1310.4,637.9,1310.4,642.9,1313.7,642.9L1313.7,642.9z"/>
			</g>
		</g>
		<g>
			<g>
				<path class="st0" d="M1256.2,660.7c3.2,0,3.2-5,0-5C1252.9,655.7,1252.9,660.7,1256.2,660.7L1256.2,660.7z"/>
			</g>
		</g>
		<g>
			<g>
				<path class="st0" d="M1246.5,767c3.2,0,3.2-5,0-5S1243.3,767,1246.5,767L1246.5,767z"/>
			</g>
		</g>
		<g>
			<g>
				<path class="st0" d="M1203.3,615.9c3.2,0,3.2-5,0-5C1200.1,610.9,1200.1,615.9,1203.3,615.9L1203.3,615.9z"/>
			</g>
		</g>
		<g>
			<g>
				<path class="st0" d="M898,494.5c3.2,0,3.2-5,0-5S894.8,494.5,898,494.5L898,494.5z"/>
			</g>
		</g>
		<g>
			<g>
				<g>
					<path class="st4" d="M1075.4,532c6.4,0,6.4-10,0-10S1069,532,1075.4,532L1075.4,532z"/>
				</g>
			</g>
			<g>
				<g>
					<polyline class="st3" points="1160.2,603.7 1147.9,628.2 1132.8,630.4 1112.7,596.1 1076.8,528.5 1140.1,559.3 1168.7,582.9 
						1168.7,621 1152.3,640.8 					"/>
					<polyline class="st3" points="1188.5,557.7 1184.4,573.1 1168.7,582.9 					"/>
					<line class="st3" x1="1112.7" y1="596.1" x2="1140.1" y2="559.3"/>
				</g>
				<g>
					<g>
						<path class="st4" d="M1132.6,634c6.4,0,6.4-10,0-10S1126.2,634,1132.6,634L1132.6,634z"/>
					</g>
				</g>
				<g>
					<g>
						<path class="st4" d="M1140.1,564.3c6.4,0,6.4-10,0-10C1133.6,554.3,1133.6,564.3,1140.1,564.3L1140.1,564.3z"/>
					</g>
				</g>
				<g>
					<g>
						<path class="st4" d="M1112.7,601.1c6.4,0,6.4-10,0-10C1106.2,591.1,1106.2,601.1,1112.7,601.1L1112.7,601.1z"/>
					</g>
				</g>
				<g>
					<g>
						<path class="st4" d="M1188.5,562.7c6.4,0,6.4-10,0-10S1182,562.7,1188.5,562.7L1188.5,562.7z"/>
					</g>
				</g>
				<g>
					<g>
						<path class="st4" d="M1168.7,626c6.4,0,6.4-10,0-10C1162.2,616,1162.2,626,1168.7,626L1168.7,626z"/>
					</g>
				</g>
				<g>
					<g>
						<path class="st4" d="M1184.4,578.1c6.4,0,6.4-10,0-10S1178,578.1,1184.4,578.1L1184.4,578.1z"/>
					</g>
				</g>
				<g>
					<g>
						<path class="st4" d="M1168.7,587.9c6.4,0,6.4-10,0-10C1162.2,577.9,1162.2,587.9,1168.7,587.9L1168.7,587.9z"/>
					</g>
				</g>
				<g>
					<g>
						<path class="st4" d="M1146.8,634c6.4,0,6.4-10,0-10S1140.3,634,1146.8,634L1146.8,634z"/>
					</g>
				</g>
				<g>
					<g>
						<path class="st4" d="M1160.2,608.7c6.4,0,6.4-10,0-10C1153.7,598.7,1153.7,608.7,1160.2,608.7L1160.2,608.7z"/>
					</g>
				</g>
				<g>
					<g>
						<path class="st4" d="M1152.3,645.8c6.4,0,6.4-10,0-10S1145.9,645.8,1152.3,645.8L1152.3,645.8z"/>
					</g>
				</g>
			</g>
		</g>
		<g>
			<g>
				<path class="st0" d="M784.8,423.8c3.2,0,3.2-5,0-5S781.6,423.8,784.8,423.8L784.8,423.8z"/>
			</g>
		</g>
		<g>
			<g>
				<path class="st0" d="M726.7,524.5c3.2,0,3.2-5,0-5S723.5,524.5,726.7,524.5L726.7,524.5z"/>
			</g>
		</g>
		<g>
			<g>
				<path class="st0" d="M592.5,385c3.2,0,3.2-5,0-5S589.3,385,592.5,385L592.5,385z"/>
			</g>
		</g>
		<g>
			<g>
				<path class="st0" d="M1192.4,389c3.2,0,3.2-5,0-5C1189.2,384,1189.2,389,1192.4,389L1192.4,389z"/>
			</g>
		</g>
		<g>
			<g>
				<path class="st0" d="M1334.7,470.6c3.2,0,3.2-5,0-5S1331.5,470.6,1334.7,470.6L1334.7,470.6z"/>
			</g>
		</g>
		<g>
			<g>
				<path class="st0" d="M1337.1,707.3c3.2,0,3.2-5,0-5S1333.9,707.3,1337.1,707.3L1337.1,707.3z"/>
			</g>
		</g>
		<g>
			<g>
				<path class="st0" d="M934,598.9c3.2,0,3.2-5,0-5S930.8,598.9,934,598.9L934,598.9z"/>
			</g>
		</g>
		<g>
			<g>
				<path class="st0" d="M834.4,576.6c3.2,0,3.2-5,0-5S831.2,576.6,834.4,576.6L834.4,576.6z"/>
			</g>
		</g>
		<g>
			<g>
				<g>
					<path class="st4" d="M164.4,620.4c6.4,0,6.4-10,0-10C157.9,610.4,157.9,620.4,164.4,620.4L164.4,620.4z"/>
				</g>
			</g>
			<g>
				<g>
					<path class="st4" d="M223.7,610.5c6.4,0,6.4-10,0-10S217.3,610.5,223.7,610.5L223.7,610.5z"/>
				</g>
			</g>
			<g>
				<g>
					<path class="st4" d="M256.2,573.2c6.4,0,6.4-10,0-10C249.7,563.2,249.7,573.2,256.2,573.2L256.2,573.2z"/>
				</g>
			</g>
			<g>
				<g>
					<path class="st4" d="M223.7,559.7c6.4,0,6.4-10,0-10S217.3,559.7,223.7,559.7L223.7,559.7z"/>
				</g>
			</g>
			<g>
				<polyline class="st3" points="164.4,615.4 178.3,591.8 200.3,581.2 256.2,568.2 223.7,554.7 				"/>
				<polyline class="st3" points="200.3,581.2 224.6,605.3 203,621 178.3,591.8 				"/>
				<g>
					<g>
						<path class="st4" d="M200.8,586.2c6.4,0,6.4-10,0-10C194.3,576.2,194.3,586.2,200.8,586.2L200.8,586.2z"/>
					</g>
				</g>
				<g>
					<g>
						<path class="st4" d="M178.2,596.8c6.4,0,6.4-10,0-10S171.8,596.8,178.2,596.8L178.2,596.8z"/>
					</g>
				</g>
			</g>
			<g>
				<g>
					<path class="st4" d="M203,626c6.4,0,6.4-10,0-10C196.5,616,196.5,626,203,626L203,626z"/>
				</g>
			</g>
		</g>
		<g>
			<g>
				<g>
					<path class="st4" d="M63.5,190.9c6.4,0,6.4-10,0-10C57,180.9,57,190.9,63.5,190.9L63.5,190.9z"/>
				</g>
			</g>
			<g>
				<g>
					<path class="st4" d="M56.8,220.6c6.4,0,6.4-10,0-10S50.4,220.6,56.8,220.6L56.8,220.6z"/>
				</g>
			</g>
			<g>
				<g>
					<path class="st4" d="M74.1,253.5c6.4,0,6.4-10,0-10S67.7,253.5,74.1,253.5L74.1,253.5z"/>
				</g>
			</g>
			<g>
				<g>
					<path class="st4" d="M128,315.4c6.4,0,6.4-10,0-10C121.6,305.4,121.6,315.4,128,315.4L128,315.4z"/>
				</g>
			</g>
			<g>
				<g>
					<path class="st4" d="M136.2,291.2c6.4,0,6.4-10,0-10S129.8,291.2,136.2,291.2L136.2,291.2z"/>
				</g>
			</g>
			<g>
				<g>
					<path class="st4" d="M103.3,279c6.4,0,6.4-10,0-10S96.9,279,103.3,279L103.3,279z"/>
				</g>
			</g>
			<g>
				<g>
					<path class="st4" d="M89.7,302c6.4,0,6.4-10,0-10C83.2,292,83.2,302,89.7,302L89.7,302z"/>
				</g>
			</g>
			<polyline class="st3" points="63.5,185.9 56.8,215.6 74.1,248.5 103.6,273.3 136.2,286.2 126.5,310.4 89.7,297 103.6,273.3 			
				"/>
		</g>
		<g>
			<g>
				<g>
					<path class="st4" d="M228.7,77.6c6.4,0,6.4-10,0-10S222.3,77.6,228.7,77.6L228.7,77.6z"/>
				</g>
			</g>
			<g>
				<g>
					<path class="st4" d="M338.9,97c6.4,0,6.4-10,0-10S332.5,97,338.9,97L338.9,97z"/>
				</g>
			</g>
			<g>
				<g>
					<path class="st4" d="M257.3,114c6.4,0,6.4-10,0-10S250.9,114,257.3,114L257.3,114z"/>
				</g>
			</g>
			<g>
				<g>
					<path class="st4" d="M207.7,146.1c6.4,0,6.4-10,0-10C201.2,136.1,201.2,146.1,207.7,146.1L207.7,146.1z"/>
				</g>
			</g>
			<g>
				<g>
					<path class="st4" d="M220.2,102.2c6.4,0,6.4-10,0-10C213.7,92.2,213.7,102.2,220.2,102.2L220.2,102.2z"/>
				</g>
			</g>
			<g>
				<g>
					<path class="st4" d="M286.2,85.2c6.4,0,6.4-10,0-10C279.7,75.2,279.7,85.2,286.2,85.2L286.2,85.2z"/>
				</g>
			</g>
			<g>
				<polyline class="st3" points="338.9,92 286.2,80.2 256.3,111.2 220.2,97.2 207.7,141.1 				"/>
				<line class="st3" x1="228.7" y1="72.6" x2="220.2" y2="97.2"/>
			</g>
		</g>
		<g>
			<g>
				<g>
					<path class="st4" d="M1245.4,325.2c6.4,0,6.4-10,0-10C1238.9,315.2,1238.9,325.2,1245.4,325.2L1245.4,325.2z"/>
				</g>
			</g>
			<g>
				<g>
					<path class="st4" d="M1245.3,363.8c6.4,0,6.4-10,0-10S1238.8,363.8,1245.3,363.8L1245.3,363.8z"/>
				</g>
			</g>
			<g>
				<g>
					<path class="st4" d="M1295.2,393.1c6.4,0,6.4-10,0-10C1288.7,383.1,1288.7,393.1,1295.2,393.1L1295.2,393.1z"/>
				</g>
			</g>
			<g>
				<g>
					<path class="st4" d="M1334.7,371c6.4,0,6.4-10,0-10C1328.3,361,1328.3,371,1334.7,371L1334.7,371z"/>
				</g>
			</g>
			<g>
				<g>
					<path class="st4" d="M1300.1,327.2c6.4,0,6.4-10,0-10S1293.7,327.2,1300.1,327.2L1300.1,327.2z"/>
				</g>
			</g>
			<g>
				<g>
					<path class="st4" d="M1226.3,314.7c6.4,0,6.4-10,0-10S1219.9,314.7,1226.3,314.7L1226.3,314.7z"/>
				</g>
			</g>
			<g>
				<g>
					<path class="st4" d="M1306.1,313.6c6.4,0,6.4-10,0-10S1299.7,313.6,1306.1,313.6L1306.1,313.6z"/>
				</g>
			</g>
			<g>
				<polyline class="st3" points="1306.9,308.8 1300.1,322.2 1309.3,335.3 1334.7,366 1295.2,388.1 1245.8,356.7 1245.4,320.2 
					1226.1,310.5 				"/>
				<line class="st3" x1="1334.7" y1="366" x2="1245.8" y2="356.7"/>
			</g>
		</g>
		<g>
			<g>
				<g>
					<path class="st4" d="M856.9,132.7c6.4,0,6.4-10,0-10S850.4,132.7,856.9,132.7L856.9,132.7z"/>
				</g>
			</g>
			<g>
				<g>
					<path class="st4" d="M774,109.3c6.4,0,6.4-10,0-10S767.6,109.3,774,109.3L774,109.3z"/>
				</g>
			</g>
			<g>
				<g>
					<path class="st4" d="M784.6,123.1c6.4,0,6.4-10,0-10C778.1,113.1,778.1,123.1,784.6,123.1L784.6,123.1z"/>
				</g>
			</g>
			<g>
				<g>
					<path class="st4" d="M792.5,174.5c6.4,0,6.4-10,0-10S786.1,174.5,792.5,174.5L792.5,174.5z"/>
				</g>
			</g>
			<g>
				<g>
					<path class="st4" d="M737.4,81.5c6.4,0,6.4-10,0-10C730.9,71.5,730.9,81.5,737.4,81.5L737.4,81.5z"/>
				</g>
			</g>
			<g>
				<polyline class="st3" points="792.5,169.5 784.6,118.1 774.3,104 737.4,76.5 				"/>
				<line class="st3" x1="856.9" y1="127.7" x2="784.6" y2="118.1"/>
			</g>
		</g>
	</g>
</g>
</svg>
