<?xml version="1.0" encoding="utf-8"?>
<!-- Generator: Adobe Illustrator 23.0.1, SVG Export Plug-In . SVG Version: 6.00 Build 0)  -->
<svg version="1.1" id="Layer_1" xmlns="http://www.w3.org/2000/svg" xmlns:xlink="http://www.w3.org/1999/xlink" x="0px" y="0px"
	 viewBox="0 0 300 300" style="enable-background:new 0 0 300 300;" xml:space="preserve">
<style type="text/css">
	.st0{fill:#C4775C;}
	.st1{fill:#FFFFFF;}
</style>
<g>
	<g>
		<g>
			<g>
				<path class="st0" d="M185.3,128.1c0,0,89.8-4.3,100.8-7.3c-4,3.3-10.1,5.1-10.1,5.1c18.4-1.2,22.3-1.1,22.3-1.1
					c-5.2,4.4-16.9,5-16.9,5c8.7,0.7,17.2,0.3,17.9-0.3c-5.2,4.4-19.9,5-19.9,5c7.2,2,19.5,2.6,19.3,4.8c-5.4,4.6-22.4,2.5-22.4,2.5
					c9.4,3.1,20.2,10,20.2,10c-6.8,1.9-14.6,2.2-25-2.6c2.5,3,17.2,12.9,15.7,14.6c-4.5,1.7-21.2-4.5-21.2-4.5
					c2.9,3.5,10.1,13-13.6,3.9c4.8,7.7-4.1,7.7-7.2,6c0.3,4.4-6.4,7.5-11.2,5.2c-0.8,3.6-7.1,3.1-7.1,3.1c0.7,4.9-7.6,8.5-11.9,5
					c-1.1,5.2-8.1,7.3-11.5-0.9c-4.6,6.4-10.3,8.7-13.8,7c0,0-5.9,1.6-8.2-1.2c-4.3,4.5-11.1,0.9-10.7-1.1c-4,3.3-7.2-1.1-7-3.8
					c-4,3.8-12.2,0.1-10-3.4C156.1,175.6,177.1,133.3,185.3,128.1z"/>
			</g>
			<g>
				<path class="st0" d="M163.1,121.8c-21.3-6.2-110.9-51.8-120.5-52.7c1.1,5.4,6.2,7.4,6.2,7.4c-16-8.5-20.5-9.8-26.8-11.7
					C24.8,71,38,79.7,39.7,81.3c-4.3,0.2-31.1-8.8-32.8-7.8c3.3,4,9.3,9.5,30.2,14.7c-13-1.3-36.6-3.8-37.6-3
					c2.7,3.2,14.4,11.1,33,11.1C9.5,97-0.6,99.6-0.6,99.6c4.5,3.8,27,7.4,29.7,7.6c-13.9,3.6-22.6,4.2-24.4,5.7
					c6.1,4.2,23.2,4.5,27.9,3.1c-13.9,7.1-13.3,11.2-8.4,12.1c-1.2,6.5,10,8.9,11.8,7.4c0.8,6.9,6.7,5.3,6.7,5.3
					c-0.9,4.6,0.4,6.4,5,5.9c3.3,6.5,6.5,6.8,12.2,7c4.8,8.7,9.8,6.6,9.8,6.6c-1.5,4.7,6.9,8.2,9.1,6.7c6,7.6,14,2.6,14,2.6
					c2.6,5,8.1,2.1,8.1,2.1c2.5,3,6.4,2.6,8.7,0.3c3.9,2.2,6.2,2.4,9.4-0.3c3.3,1.9,5.7,0.3,10.1-5.1
					C133.4,161.2,163.1,121.8,163.1,121.8z"/>
			</g>
			<g>
				<path class="st0" d="M164.3,120.9c3.5-2.3,15.9-10.7,19.4-8.4c3.5,2.5,3.1,4.8,2.9,7.1c-0.2,8.2-2.3,40.9-34.4,62.5
					c-4.7,4.5-3.7,41.2-12.2,35.7c-4.4,13.8-13,7.2-13,7.2c-4.3,4.5-9,3.8-10.7,1.4c-4.8,4.9-13.5,0-13.3-2.3
					c-7.8,5.3-9.9,0.3-8.6-1.2c-7.1,4.2-10.2-2.9-9.1-5c1.2-2.3,10.7-10.7,10.7-10.7s-4.7-1.1-1.5-3.8c3.2-2.7,26.8-23.4,35.8-40.8
					S157.4,125.4,164.3,120.9z"/>
			</g>
			<path class="st0" d="M176.3,118.2c-0.1-0.5,2.2-2.3,3.6-1.4C180.3,118.4,178.7,120,176.3,118.2z"/>
			<path class="st0" d="M183.9,112.6c2.8-1.1,6.8-1.1,8.5,2.5c-4.4,1.6-5.7,3.9-6.4,4.4c-0.7,0.5-5.2,5.4-5.3,2.4
				C183.4,116.7,180.5,113.9,183.9,112.6z"/>
			<path class="st0" d="M177.4,117c0.8,1.8,2.8,0.9,2-0.4C179.4,116.6,178.5,116.3,177.4,117"/>
			<g>
				<path class="st0" d="M163.3,113.3c0.3,1.4,1.3,2.5,2.6,3.1c-1.9-0.3-3.7-0.6-5.6-1c0.5,1.4,1.7,2.4,3.1,2.9
					c1.4,0.5,2.9,0.5,4.3,0.3c0.9-0.1,7.3-1.9,6.6-3c-0.3-0.5-2.8-0.1-3.4-0.1c-1.2-0.1-2.5-0.3-3.7-0.6
					C165.9,114.5,164.5,114,163.3,113.3z"/>
			</g>
			<path class="st0" d="M137,169.2c0.5-0.8,1-1.7,1.8-2.3c0.8-0.6,1.9-0.8,2.7-0.2c0.3,0.2,0.6,0.6,1,0.5c0.2,0,0.4-0.2,0.5-0.4
				c0.4-0.5,1-0.9,1.7-1c0.6-0.1,1.4,0.1,1.8,0.6c0.6,0.8,0.2,1.9-0.2,2.8c-1.5,3.5-3.2,7.1-6.1,9.6c-0.1,0.1-0.2,0.2-0.3,0.2
				c-0.2,0.1-0.4-0.1-0.6-0.3c-1-1-1.4-2.6-0.9-3.9c0.1-0.1,0.1-0.3,0-0.4c-0.1-0.1-0.2-0.1-0.3-0.1c-0.9-0.2-2.6-1.2-2.7-2.3
				C135.4,171,136.6,170,137,169.2z"/>
			<path class="st0" d="M153.1,171.6c0.3-0.5,0.6-1.1,1.1-1.5c0.5-0.4,1.2-0.5,1.7-0.2c0.2,0.2,0.4,0.5,0.5,0.8
				c0.3,0.8,0.2,1.6-0.1,2.4c0.5-0.6,1.3-1.3,2.1-1.1c0.6,0.2,1,0.8,1,1.5s-0.3,1.3-0.6,1.8c-1.4,2.5-3.3,4.6-5.7,6.2
				c-0.5,0.3-1,0.6-1.6,0.5c-0.6-0.2-0.8-1.2-0.3-1.7c-1,0.9-1.9-3.2-1.7-3.8C150,174.8,152.2,173.3,153.1,171.6z"/>
			<g>
				<path class="st0" d="M165.1,139.1c0.5,0.7,1.7,0.8,2.1,0c0,0.8,0.1,1.7,0.1,2.5c1,0.4,2.2,0.2,3-0.6c0,1.1,0.1,2.1,0.1,3.2
					c0,0.5,0.2,1.2,0.7,1.2c0.3,0,0.5-0.2,0.6-0.4c0.7-0.8,1.4-1.6,2-2.5c0.3,0.5,0.1,1.2,0,1.8c-0.1,0.6,0.2,1.4,0.9,1.3
					c0.2,0,0.4-0.2,0.5-0.3c0.7-0.6,1.4-1.2,2.1-1.8c-0.1,0.9,0,2,0.9,2.2c0.5,0.1,1.1-0.2,1.4-0.7s0.5-1,0.9-1.4
					c0,0.3,0.1,0.5,0.2,0.7c1.1-0.6,2-1.6,2.3-2.7c-0.6,0.4-1.2,0.8-1.9,1.2c0.3-0.4-0.5-0.7-0.9-0.4c-0.4,0.3-0.5,0.8-0.8,1.2
					c-0.3,0.4-0.9,0.5-1.4,0.3c-0.1-0.5-0.2-1-0.3-1.5c-1.2,0.4-2.4,1-3.3,1.8c0-1.1-0.2-2.1-0.4-3.2c-0.6,0.6-1.3,1.2-1.9,1.9
					c-0.2,0.2-0.4,0.3-0.6,0.3c-0.3-0.1-0.3-0.4-0.3-0.7c-0.1-1-0.1-2.1-0.2-3.1c-0.9,0.4-1.5,1.9-2.5,1.6c-0.6-0.2-0.8-1-0.8-1.7
					c0-0.7,0.1-1.4-0.3-1.9c-0.1,0.8-1.3,1.2-2,0.7c-0.5-0.4-0.8-1-0.8-1.6C164.6,137.2,164.5,138.3,165.1,139.1z"/>
			</g>
		</g>
	</g>
	<g>
		<g>
			<path class="st1" d="M182.7,118.7c3.2,0,3.2-5,0-5C179.5,113.7,179.5,118.7,182.7,118.7L182.7,118.7z"/>
		</g>
	</g>
	<g>
		<g>
			<path class="st1" d="M50.8,82.5c3.2,0,3.2-5,0-5C47.6,77.5,47.6,82.5,50.8,82.5L50.8,82.5z"/>
		</g>
	</g>
	<g>
		<g>
			<path class="st1" d="M52.1,151.1c3.2,0,3.2-5,0-5C48.9,146.1,48.9,151.1,52.1,151.1L52.1,151.1z"/>
		</g>
	</g>
	<g>
		<g>
			<path class="st1" d="M126.2,172.6c3.2,0,3.2-5,0-5C123,167.6,123,172.6,126.2,172.6L126.2,172.6z"/>
		</g>
	</g>
	<g>
		<g>
			<path class="st1" d="M92.2,220.5c3.2,0,3.2-5,0-5C89,215.5,89,220.5,92.2,220.5L92.2,220.5z"/>
		</g>
	</g>
	<g>
		<g>
			<path class="st1" d="M129.7,223.9c3.2,0,3.2-5,0-5C126.5,218.9,126.5,223.9,129.7,223.9L129.7,223.9z"/>
		</g>
	</g>
	<g>
		<g>
			<path class="st1" d="M141.3,215.3c3.2,0,3.2-5,0-5C138.1,210.3,138.1,215.3,141.3,215.3L141.3,215.3z"/>
		</g>
	</g>
	<g>
		<g>
			<path class="st1" d="M149.5,182.5c3.2,0,3.2-5,0-5C146.3,177.5,146.3,182.5,149.5,182.5L149.5,182.5z"/>
		</g>
	</g>
	<g>
		<g>
			<path class="st1" d="M191.3,187.7c3.2,0,3.2-5,0-5C188.1,182.7,188.1,187.7,191.3,187.7L191.3,187.7z"/>
		</g>
	</g>
	<g>
		<g>
			<path class="st1" d="M246.5,169.2c3.2,0,3.2-5,0-5C243.3,164.2,243.3,169.2,246.5,169.2L246.5,169.2z"/>
		</g>
	</g>
	<g>
		<g>
			<path class="st1" d="M293.5,142.4c3.2,0,3.2-5,0-5C290.3,137.4,290.3,142.4,293.5,142.4L293.5,142.4z"/>
		</g>
	</g>
	<g>
		<g>
			<path class="st1" d="M193.9,132.9c3.2,0,3.2-5,0-5C190.7,127.9,190.7,132.9,193.9,132.9L193.9,132.9z"/>
		</g>
	</g>
	<g>
		<g>
			<path class="st1" d="M270.2,128.6c3.2,0,3.2-5,0-5C267,123.6,267,128.6,270.2,128.6L270.2,128.6z"/>
		</g>
	</g>
	<g>
		<g>
			<path class="st1" d="M13.7,104.1c3.2,0,3.2-5,0-5C10.5,99.1,10.5,104.1,13.7,104.1L13.7,104.1z"/>
		</g>
	</g>
</g>
</svg>
