<?xml version="1.0" encoding="utf-8"?>
<!-- Generator: Adobe Illustrator 23.0.1, SVG Export Plug-In . SVG Version: 6.00 Build 0)  -->
<svg version="1.1" id="Layer_1" xmlns="http://www.w3.org/2000/svg" xmlns:xlink="http://www.w3.org/1999/xlink" x="0px" y="0px"
	 viewBox="0 0 300 300" style="enable-background:new 0 0 300 300;" xml:space="preserve">
<style type="text/css">
	.st0{fill:#C4775C;}
	.st1{fill:#FFFFFF;}
</style>
<g>
	<g>
		<g>
			<path class="st0" d="M72.6,248.5c-12.5-3.2-26.3-125.9-3.9-142.4s49.7,31.4,44,38.2C90.9,152.4,85.6,205.4,72.6,248.5z"/>
			<g>
				<path class="st0" d="M98.2,120.2c-4.9,9.6-12.7,6-21.9,8.1c-8.1,18.4-13.4,17.9-19.4,24c-1.6-16.3,4.8-45.9,11.7-48.1
					C75.5,101.9,102.9,111,98.2,120.2z"/>
			</g>
			<path class="st0" d="M90,83.3c9.5-13.7,15.1-28.7,76.6-31.3s76.7,6.6,76.7,6.6c-27.8,25.3-101.6,28.2-101,51.8
				c0.6,23.6-7.8,18.8,28,47.7s72.7,53.6,71.2,57.4c-21-12-59.8-50.4-73.9-44.8c16.3,31.1,57.7,66.8,57.7,66.8
				c-19.8-14.5-80.4-77.5-88.7-79.6c-8.4-2.2-62.7-37.4-68-51.9S60.8,83,63.6,81.1C66.4,79.2,73.1,72,90,83.3z"/>
			<g>
				<path class="st0" d="M79.4,89.9c0.4,0.3,0.8,0.6,1,1c0.5,0.8,0.3,1.9,0.1,2.8c-0.3,1.5-0.7,2.9-1.3,4.3c-1.1,2.2-3.1,4-5.4,4.8
					c-1,0.4-2.1,0.6-3,1.2c-0.4,0.3-0.7,0.7-1.2,0.6c-0.4,0-0.6-0.3-0.9-0.5c-1.5-1.5-3-3.1-3.4-5.2c-0.1-0.5-0.5-0.9-0.6-1.4
					c-0.2-0.8-0.4-1.6-0.8-2.3c-1.3-2.4-1.3-5.3-1.3-8c0-1.3,0-2.6,0-3.9c0-0.4,0-0.8,0.3-1.1c0.6-0.6,3-0.9,4-0.9
					c1.3,0,2.3,0.9,3.4,1.6C73.3,85.2,76.3,87.6,79.4,89.9z"/>
			</g>
			<g>
				<path class="st0" d="M131.1,120.2c-6.9-4.6-6.6-18.1-7.3-18.7c2.4-4.8,2.7-20.9-0.4-23.7c10.4-9.1,28.2-16.7,28.8-23.1
					c-4.3-3.2-39.7,2.4-50.5,13.9s-10,15.7-10,15.7c5.3,4.1-4.7,1-2.7,7.7c2,6.6-11.3,14.4-11.1,20.1c0.2,5.7-8.8-4.6-9.2-6
					c-0.3,5.4,27.8,34.2,68.8,52.4c23.9,9.7,24.9,8.2,24.9,8.2s-14.4-23.3-17.2-25.4C142.3,139.2,139.5,125.9,131.1,120.2z"/>
			</g>
			<path class="st0" d="M68,81.5c-0.3-0.4-0.5-0.9-0.3-1.3c0.2-0.4,0.7-0.8,0.6-1.2c-0.1-0.3-0.4-0.5-0.7-0.5
				c-0.3,0-0.6,0.1-0.9,0.2c-2.2,0.6-4.5-0.4-6.8-0.8c-0.2,0-0.3,0-0.5,0c-0.4,0.2-0.1,0.8,0.2,1.1c1.2,1.3,2,2.9,2.5,4.6
				c0.4-0.5,1-0.6,1.6-0.6c0.6,0,1.1,0.2,1.7,0.3c0.8,0.2,1.7,0.2,2.5,0.2C69.5,83.3,68.5,82.1,68,81.5z"/>
			<path class="st0" d="M75.3,82.3c-0.4,0.1-0.7,0-1.1-0.2c-0.3-0.2-0.6-0.4-0.9-0.7c0.1-0.2,0.2-0.5,0.4-0.6
				c0.4-0.3,1.4,0.1,1.8,0.3C76.1,81.5,75.9,82.1,75.3,82.3z"/>
		</g>
	</g>
	<g>
		<g>
			<path class="st1" d="M70.9,84.7c3.2,0,3.2-5,0-5C67.7,79.7,67.7,84.7,70.9,84.7L70.9,84.7z"/>
		</g>
	</g>
	<g>
		<g>
			<path class="st1" d="M64.6,127.9c3.2,0,3.2-5,0-5C61.4,122.9,61.4,127.9,64.6,127.9L64.6,127.9z"/>
		</g>
	</g>
	<g>
		<g>
			<path class="st1" d="M70.9,239.6c3.2,0,3.2-5,0-5C67.7,234.6,67.7,239.6,70.9,239.6L70.9,239.6z"/>
		</g>
	</g>
	<g>
		<g>
			<path class="st1" d="M104.3,146.9c3.2,0,3.2-5,0-5C101.1,141.9,101.1,146.9,104.3,146.9L104.3,146.9z"/>
		</g>
	</g>
	<g>
		<g>
			<path class="st1" d="M222.4,236.2c3.2,0,3.2-5,0-5C219.1,231.2,219.1,236.2,222.4,236.2L222.4,236.2z"/>
		</g>
	</g>
	<g>
		<g>
			<path class="st1" d="M239.6,214.3c3.2,0,3.2-5,0-5C236.4,209.3,236.4,214.3,239.6,214.3L239.6,214.3z"/>
		</g>
	</g>
	<g>
		<g>
			<path class="st1" d="M152.7,152.7c3.2,0,3.2-5,0-5C149.5,147.7,149.5,152.7,152.7,152.7L152.7,152.7z"/>
		</g>
	</g>
	<g>
		<g>
			<path class="st1" d="M138.9,107.2c3.2,0,3.2-5,0-5C135.7,102.2,135.6,107.2,138.9,107.2L138.9,107.2z"/>
		</g>
	</g>
	<g>
		<g>
			<path class="st1" d="M235.6,61.1c3.2,0,3.2-5,0-5C232.4,56.1,232.4,61.1,235.6,61.1L235.6,61.1z"/>
		</g>
	</g>
	<g>
		<g>
			<path class="st1" d="M108.4,72.1c3.2,0,3.2-5,0-5C105.1,67.1,105.1,72.1,108.4,72.1L108.4,72.1z"/>
		</g>
	</g>
</g>
</svg>
