<?xml version="1.0" encoding="utf-8"?>
<!-- Generator: Adobe Illustrator 23.0.1, SVG Export Plug-In . SVG Version: 6.00 Build 0)  -->
<svg version="1.1" id="Layer_1" xmlns="http://www.w3.org/2000/svg" xmlns:xlink="http://www.w3.org/1999/xlink" x="0px" y="0px"
	 viewBox="0 0 100 180" style="enable-background:new 0 0 100 180;" xml:space="preserve">
<style type="text/css">
	.st0{fill:#253672;}
	.st1{fill:#DAE3EE;}
	.st2{fill:#E8F1F9;}
	.st3{fill:#2A57A7;}
</style>
<g>
	<g>
		<path class="st0" d="M74.8,170.1c-6.4,11.7-44.6,11-50.9-0.4l0.5-52.4c-0.1,11.8,50.9,12.3,50.9,0.4L74.8,170.1z"/>
		
			<rect x="36.1" y="14" transform="matrix(8.928382e-03 -1 1 8.928382e-03 10.6108 89.611)" class="st1" width="28.9" height="50.9"/>
		
			<ellipse transform="matrix(8.928382e-03 -1 1 8.928382e-03 25.0529 75.5247)" class="st2" cx="50.6" cy="25.1" rx="8.6" ry="25.5"/>
		<path class="st3" d="M75.5,165c-0.1,13.7-52.4,13.3-52.3-0.5l1-118.9c0,12.2,52.3,12.7,52.4,0.5L75.5,165z"/>
		<path class="st1" d="M76.5,64.9c-6.9,5-17.6,4.6-24.9,4c-2.1-0.2-3.9,1.5-3.9,3.6l-0.5,55.1c0,1.5,0.8,2.9,2.2,3.4
			c8.2,3.2,22.8,1.8,26.5-4.2"/>
		<path class="st0" d="M77,48c0.1,13.8-52.7,14-52.7,0.1l-0.1-35.4c-0.7,3.9,52,3.5,52.7-0.1L77,48z"/>
	</g>
	<g>
		<path class="st3" d="M76.9,44.5c0.1,13.8-52.7,14-52.7,0.1L24.1,9.2c-0.7,3.9,52,3.5,52.7-0.1L76.9,44.5z"/>
		
			<ellipse transform="matrix(1 -2.445014e-03 2.445014e-03 1 -2.323913e-02 0.1235)" class="st0" cx="50.5" cy="9.6" rx="26.4" ry="8.1"/>
	</g>
</g>
</svg>
