<?xml version="1.0" encoding="utf-8"?>
<!-- Generator: Adobe Illustrator 23.0.1, SVG Export Plug-In . SVG Version: 6.00 Build 0)  -->
<svg version="1.1" id="Layer_1" xmlns="http://www.w3.org/2000/svg" xmlns:xlink="http://www.w3.org/1999/xlink" x="0px" y="0px"
	 viewBox="0 0 180 300" style="enable-background:new 0 0 180 300;" xml:space="preserve">
<style type="text/css">
	.st0{fill:#253672;}
	.st1{fill:#DAE3EE;}
	.st2{fill:#E8F1F9;}
	.st3{fill:#2A57A7;}
</style>
<g>
	<g>
		<path class="st0" d="M128.5,276.7c-10,18.3-70.1,17.4-80-0.7l0.8-82.4c-0.2,18.6,79.9,19.3,80,0.7L128.5,276.7z"/>
		
			<rect x="67.7" y="31.6" transform="matrix(8.928382e-03 -1 1 8.928382e-03 17.9824 161.2963)" class="st1" width="45.4" height="80"/>
		
			<ellipse transform="matrix(8.928382e-03 -1 1 8.928382e-03 40.8498 138.9166)" class="st2" cx="90.5" cy="48.9" rx="13.4" ry="40.1"/>
		<path class="st3" d="M129.7,268.7c-0.2,21.6-82.3,20.9-82.1-0.8l1.6-186.8c-0.2,19.1,82,19.8,82.1,0.8L129.7,268.7z"/>
		<path class="st1" d="M131.1,111.3c-10.9,7.8-27.7,7.2-39.1,6.3c-3.2-0.3-6.1,2.3-6.1,5.6l-0.8,86.6c0,2.3,1.3,4.5,3.5,5.3
			c12.9,5,35.8,2.8,41.7-6.7"/>
		<path class="st0" d="M132,84.8c0.1,21.7-82.9,21.9-82.9,0.2L49,29.3c-1.1,6.2,81.7,5.4,82.9-0.2L132,84.8z"/>
	</g>
	<g>
		<path class="st3" d="M132.4,78.2c0.1,22-84,22.2-84,0.2L48.4,22c-1.2,6.3,82.8,5.5,84-0.2L132.4,78.2z"/>
		
			<ellipse transform="matrix(1 -2.445021e-03 2.445021e-03 1 -5.560338e-02 0.2209)" class="st0" cx="90.3" cy="22.9" rx="42" ry="12.9"/>
	</g>
</g>
</svg>
