<?xml version="1.0" encoding="utf-8"?>
<!-- Generator: Adobe Illustrator 23.0.1, SVG Export Plug-In . SVG Version: 6.00 Build 0)  -->
<svg version="1.1" id="Layer_1" xmlns="http://www.w3.org/2000/svg" xmlns:xlink="http://www.w3.org/1999/xlink" x="0px" y="0px"
	 viewBox="0 0 195 345" style="enable-background:new 0 0 195 345;" xml:space="preserve">
<style type="text/css">
	.st0{fill:#253672;}
	.st1{fill:#DAE3EE;}
	.st2{fill:#E8F1F9;}
	.st3{fill:#2A57A7;}
</style>
<g>
	<path class="st0" d="M85,337.8c-17.5,13.2-74.4-13.9-76.1-35.4L45.3,224c-8.2,17.7,67.9,53.1,76.1,35.4L85,337.8z"/>
	
		<rect x="113.8" y="83.4" transform="matrix(0.4219 -0.9066 0.9066 0.4219 -34.1189 197.1653)" class="st1" width="47.6" height="83.9"/>
	
		<ellipse transform="matrix(0.4219 -0.9066 0.9066 0.4219 -8.7753 193.7982)" class="st2" cx="147.6" cy="103.8" rx="14.1" ry="42"/>
	<path class="st3" d="M89.6,330.5c-9.5,20.5-87.6-15.8-78.1-36.3l82.7-177.6c-8.4,18.1,69.7,54.5,78.1,36.3L89.6,330.5z"/>
	<path class="st0" d="M128.3,145.2c-19.8-9.2-34.1-21.4-33.9-28.4c-0.4,0.4-0.8,0.9-1.1,1.4c-3.1,6.6,11.9,20.1,33.5,30.1
		s41.5,12.8,44.6,6.2c0.2-0.5,0.4-1.1,0.4-1.7C166.6,157.5,148.2,154.4,128.3,145.2z"/>
	<path class="st1" d="M159.1,181c-13.8,2.7-29.5-5-40.1-10.9c-3-1.7-6.8-0.5-8.3,2.7l-38.3,82.3c-1,2.2-0.7,4.8,1.1,6.6
		c10.1,10.3,32.9,18.2,42.7,11.7"/>
	<g>
		<path class="st3" d="M150.1,61.3c7.8,21.2-73.2,50.8-80.9,29.5L49.4,36.5c1,6.5,81.7-23.6,80.9-29.5L150.1,61.3z"/>
		
			<ellipse transform="matrix(0.9394 -0.3428 0.3428 0.9394 -2.2699 32.2585)" class="st0" cx="90.1" cy="22.6" rx="43.1" ry="13.2"/>
	</g>
</g>
</svg>
