<?xml version="1.0" encoding="utf-8"?>
<!-- Generator: Adobe Illustrator 23.0.1, SVG Export Plug-In . SVG Version: 6.00 Build 0)  -->
<svg version="1.1" id="Layer_1" xmlns="http://www.w3.org/2000/svg" xmlns:xlink="http://www.w3.org/1999/xlink" x="0px" y="0px"
	 viewBox="0 0 100 180" style="enable-background:new 0 0 100 180;" xml:space="preserve">
<style type="text/css">
	.st0{fill:#EBF6FC;}
	.st1{fill:#91CDDB;}
	.st2{fill:#A3DEE8;}
	.st3{fill:none;stroke:#FFFFFF;stroke-width:4;stroke-linecap:round;stroke-miterlimit:10;}
	.st4{fill:#33373A;}
	.st5{fill:#4F565C;}
</style>
<g>
	<path class="st0" d="M79.1,38.9V28.6c0-0.8-0.6-1.5-1.5-1.5H22.3c-0.8,0-1.5,0.6-1.5,1.5v10.2C17.3,42,15,46.6,15,51.7v56.4v13v33
		c0,13.4,11,24.4,24.4,24.4h21c13.4,0,24.4-11,24.4-24.4v-33v-13V51.7C84.9,46.6,82.6,42,79.1,38.9z"/>
	<ellipse class="st0" cx="50" cy="28.4" rx="28.3" ry="4.6"/>
	<path class="st1" d="M18.9,53.4v26.6c-0.2,1-0.3,2-0.3,3V113v11.5v29.2c0,11.9,10.2,21.6,22.7,21.6h17.4c12.5,0,22.7-9.7,22.7-21.6
		v-29.2V113V91v-8.2V53.4H18.9z"/>
	<ellipse class="st2" cx="50.1" cy="53.6" rx="31.4" ry="6.2"/>
	<line class="st3" x1="75.7" y1="129.4" x2="75.7" y2="152.6"/>
	<line class="st3" x1="75.7" y1="118.9" x2="75.7" y2="124.9"/>
	<line class="st3" x1="75.7" y1="31.7" x2="75.7" y2="36.1"/>
	<g>
		<path class="st4" d="M18.3,7.2v28c0,3.1,14.2,5.7,31.8,5.7s31.8-2.5,31.8-5.7v-28H18.3z"/>
		<ellipse class="st5" cx="50.1" cy="7.2" rx="31.8" ry="5.7"/>
	</g>
</g>
</svg>
