<?xml version="1.0" encoding="utf-8"?>
<!-- Generator: Adobe Illustrator 23.0.1, SVG Export Plug-In . SVG Version: 6.00 Build 0)  -->
<svg version="1.1" id="Layer_1" xmlns="http://www.w3.org/2000/svg" xmlns:xlink="http://www.w3.org/1999/xlink" x="0px" y="0px"
	 viewBox="0 0 180 300" style="enable-background:new 0 0 180 300;" xml:space="preserve">
<style type="text/css">
	.st0{fill:#EBF6FC;}
	.st1{fill:#91CDDB;}
	.st2{fill:#A3DEE8;}
	.st3{fill:none;stroke:#FFFFFF;stroke-width:4;stroke-linecap:round;stroke-miterlimit:10;}
	.st4{fill:#33373A;}
	.st5{fill:#4F565C;}
</style>
<g>
	<path class="st0" d="M136.2,69.1V52.9c0-1.3-1.1-2.4-2.4-2.4H46.2c-1.3,0-2.4,1.1-2.4,2.4v16.2c-5.7,4.9-9.2,12.2-9.2,20.3v89.2
		v20.6v52.3c0,21.2,17.4,38.6,38.6,38.6h33.4c21.2,0,38.6-17.4,38.6-38.6v-52.3v-20.6v-89C145.5,81.4,141.9,74.1,136.2,69.1z"/>
	<ellipse class="st0" cx="90.1" cy="52.6" rx="44.8" ry="7.3"/>
	<path class="st1" d="M40.8,92v42c-0.3,1.6-0.5,3.2-0.5,4.8v47.7v18.2v46.2c0,18.8,16.2,34.2,36,34.2h27.6c19.8,0,36-15.4,36-34.2
		v-46.2v-18.2v-34.8v-13V92H40.8z"/>
	<ellipse class="st2" cx="90.4" cy="92.4" rx="49.7" ry="9.8"/>
	<line class="st3" x1="130.8" y1="212.6" x2="130.8" y2="249.3"/>
	<line class="st3" x1="130.8" y1="195.8" x2="130.8" y2="205.4"/>
	<line class="st3" x1="130.8" y1="57.8" x2="130.8" y2="64.8"/>
	<g>
		<path class="st4" d="M40,18.9v44.3c0,4.9,22.5,8.9,50.4,8.9s50.4-4,50.4-8.9V18.9H40z"/>
		<ellipse class="st5" cx="90.4" cy="18.9" rx="50.4" ry="8.9"/>
	</g>
</g>
</svg>
