<?xml version="1.0" encoding="utf-8"?>
<!-- Generator: Adobe Illustrator 23.0.1, SVG Export Plug-In . SVG Version: 6.00 Build 0)  -->
<svg version="1.1" id="Layer_1" xmlns="http://www.w3.org/2000/svg" xmlns:xlink="http://www.w3.org/1999/xlink" x="0px" y="0px"
	 viewBox="0 0 100 194.4" style="enable-background:new 0 0 100 194.4;" xml:space="preserve">
<style type="text/css">
	.st0{fill:none;stroke:#FFFFFF;stroke-miterlimit:10;}
</style>
<g>
	<path class="st0" d="M20.8,44.2V46c-3.5,3.2-5.8,7.8-5.8,12.9v56.4v13v33c0,13.4,11,24.4,24.4,24.4h21c13.4,0,24.4-11,24.4-24.4
		v-33v-13V58.9c0.1-5.1-2.2-9.7-5.7-12.8v-1.3"/>
	<path class="st0" d="M18.9,60.6v26.6c-0.2,1-0.3,2-0.3,3v30v11.5v29.2c0,11.9,10.2,21.6,22.7,21.6h17.4c12.5,0,22.7-9.7,22.7-21.6
		v-29.2v-11.5v-22V90V60.6"/>
	<ellipse class="st0" cx="50.1" cy="60.8" rx="31.4" ry="6.2"/>
	<g>
		<path class="st0" d="M18.3,14.4v28c0,3.1,14.2,5.7,31.8,5.7s31.8-2.5,31.8-5.7v-28"/>
		<ellipse class="st0" cx="50.1" cy="14.4" rx="31.8" ry="5.7"/>
	</g>
</g>
</svg>
