<?xml version="1.0" encoding="utf-8"?>
<!-- Generator: Adobe Illustrator 23.0.1, SVG Export Plug-In . SVG Version: 6.00 Build 0)  -->
<svg version="1.1" id="Layer_1" xmlns="http://www.w3.org/2000/svg" xmlns:xlink="http://www.w3.org/1999/xlink" x="0px" y="0px"
	 viewBox="0 0 100 194.4" style="enable-background:new 0 0 100 194.4;" xml:space="preserve">
<style type="text/css">
	.st0{fill:#EBF6FC;}
	.st1{fill:#91CDDB;}
	.st2{fill:#A3DEE8;}
	.st3{fill:none;stroke:#FFFFFF;stroke-width:3;stroke-linecap:round;stroke-miterlimit:10;}
	.st4{fill:none;stroke:#FFFFFF;stroke-width:4;stroke-linecap:round;stroke-miterlimit:10;}
	.st5{fill:#33373A;}
	.st6{fill:#4F565C;}
	.st7{fill:none;stroke:#FFFFFF;stroke-miterlimit:10;}
</style>
<g>
	<path class="st0" d="M79.1,47.4V37.3c0-0.8-0.6-1.5-1.5-1.5H22.4c-0.8,0-1.5,0.6-1.5,1.5v10.1c-3.6,3-5.8,7.6-5.8,12.7V116v12.8
		v32.7c0,13.2,11,24.1,24.4,24.1h21c13.4,0,24.4-10.9,24.4-24.1v-32.7V116V60.1C85,55.1,82.7,50.5,79.1,47.4z"/>
	<ellipse class="st0" cx="50" cy="37.1" rx="28.3" ry="4.6"/>
	<path class="st1" d="M19,61.8V88c-0.2,1-0.3,2-0.3,2.9v29.8v11.4v28.9c0,11.8,10.2,21.4,22.7,21.4h17.4c12.4,0,22.7-9.6,22.7-21.4
		v-28.9v-11.4V99v-8.1V61.8H19L19,61.8z"/>
	<ellipse class="st2" cx="50.2" cy="62" rx="31.4" ry="6.1"/>
	<line class="st3" x1="75.8" y1="137.1" x2="75.8" y2="160"/>
	<line class="st3" x1="75.8" y1="126.6" x2="75.8" y2="132.5"/>
	<line class="st4" x1="75.8" y1="40.3" x2="75.8" y2="44.7"/>
	<g>
		<path class="st5" d="M18.2,14.3V42c0,3.1,14.2,5.6,31.8,5.6s31.8-2.5,31.8-5.6V14.3H18.2z"/>
		<ellipse class="st6" cx="50" cy="14.3" rx="31.8" ry="5.6"/>
	</g>
</g>
<g>
	<path class="st7" d="M110.2,44.2V46c-3.5,3.2-5.8,7.8-5.8,12.9v56.4v13v33c0,13.4,11,24.4,24.4,24.4h21c13.4,0,24.4-11,24.4-24.4
		v-33v-13V58.9c0.1-5.1-2.2-9.7-5.7-12.8v-1.3"/>
	<path class="st7" d="M108.3,60.6v26.6c-0.2,1-0.3,2-0.3,3v30v11.5v29.2c0,11.9,10.2,21.6,22.7,21.6h17.4c12.5,0,22.7-9.7,22.7-21.6
		v-29.2v-11.5v-22V90V60.6"/>
	<ellipse class="st7" cx="139.5" cy="60.8" rx="31.4" ry="6.2"/>
	<g>
		<path class="st7" d="M107.7,14.4v28c0,3.1,14.2,5.7,31.8,5.7s31.8-2.5,31.8-5.7v-28"/>
		<ellipse class="st7" cx="139.5" cy="14.4" rx="31.8" ry="5.7"/>
	</g>
</g>
</svg>
