<?xml version="1.0" encoding="utf-8"?>
<!-- Generator: Adobe Illustrator 23.0.1, SVG Export Plug-In . SVG Version: 6.00 Build 0)  -->
<svg version="1.1" id="Layer_1" xmlns="http://www.w3.org/2000/svg" xmlns:xlink="http://www.w3.org/1999/xlink" x="0px" y="0px"
	 viewBox="0 0 173 344" style="enable-background:new 0 0 173 344;" xml:space="preserve">
<style type="text/css">
	.st0{fill:#EBF6FC;}
	.st1{fill:#91CDDB;}
	.st2{fill:#A3DEE8;}
	.st3{fill:none;stroke:#FFFFFF;stroke-width:4;stroke-linecap:round;stroke-miterlimit:10;}
	.st4{fill:#33373A;}
	.st5{fill:#4F565C;}
</style>
<path class="st0" d="M153.83,117.28V101.2c0-1.27-1.04-2.32-2.32-2.32H64.5c-1.27,0-2.32,1.04-2.32,2.32v16.08
	c-5.61,4.94-9.17,12.16-9.17,20.18v88.65v20.43v51.98c0,21.14,17.29,38.43,38.43,38.43h33.14c21.14,0,38.43-17.29,38.43-38.43
	v-51.98v-20.43v-88.65C163.02,129.44,159.45,122.22,153.83,117.28z"/>
<ellipse class="st0" cx="108.01" cy="100.9" rx="44.5" ry="7.27"/>
<path class="st1" d="M59.1,140.03v41.76c-0.32,1.51-0.49,3.07-0.49,4.66v47.43v18.07v45.97c0,18.69,16.08,33.99,35.73,33.99h27.36
	c19.65,0,35.73-15.3,35.73-33.99v-45.97v-18.07v-34.56v-12.87v-46.42H59.1z"/>
<ellipse class="st2" cx="108.25" cy="140.37" rx="49.41" ry="9.69"/>
<line class="st3" x1="148.46" y1="259.79" x2="148.46" y2="296.31"/>
<line class="st3" x1="148.46" y1="243.11" x2="148.46" y2="252.64"/>
<line class="st3" x1="148.46" y1="106" x2="148.46" y2="112.93"/>
<g>
	<path class="st4" d="M7.9,76.42l31.19,31.19c3.47,3.47,22.11-9.55,41.64-29.07s32.54-38.17,29.07-41.64L78.61,5.71L7.9,76.42z"/>
	<ellipse transform="matrix(0.7071 -0.7071 0.7071 0.7071 -16.3697 42.613)" class="st5" cx="43.25" cy="41.07" rx="50" ry="8.88"/>
</g>
<path class="st1" d="M122.92,65.05L122.92,65.05l1.86,14.09c0.04,0.3,0.41,0.43,0.62,0.21l10.05-10.18l-0.01,0
	c0.81-0.8,1.46-1.79,1.85-2.94c1.31-3.89-0.79-8.1-4.68-9.41c-3.89-1.31-8.1,0.79-9.41,4.68C122.81,62.68,122.73,63.9,122.92,65.05z
	"/>
<path class="st1" d="M138.38,71.35L138.38,71.35l-7.14,7.6c-0.15,0.16-0.05,0.43,0.17,0.45l10.45,0.98l0,0
	c0.83,0.09,1.69,0,2.53-0.32c2.81-1.06,4.23-4.21,3.17-7.02c-1.06-2.81-4.21-4.23-7.02-3.17C139.68,70.19,138.95,70.71,138.38,71.35
	z"/>
</svg>
