<?xml version="1.0" encoding="utf-8"?>
<!-- Generator: Adobe Illustrator 23.0.1, SVG Export Plug-In . SVG Version: 6.00 Build 0)  -->
<svg version="1.1" id="Layer_1" xmlns="http://www.w3.org/2000/svg" xmlns:xlink="http://www.w3.org/1999/xlink" x="0px" y="0px"
	 viewBox="0 0 100 194.4" style="enable-background:new 0 0 100 194.4;" xml:space="preserve">
<style type="text/css">
	.st0{fill:#EBF6FC;}
	.st1{fill:#91CDDB;}
	.st2{fill:#A3DEE8;}
	.st3{fill:none;stroke:#FFFFFF;stroke-width:4;stroke-linecap:round;stroke-miterlimit:10;}
	.st4{fill:#33373A;}
	.st5{fill:#4F565C;}
</style>
<g>
	<path class="st0" d="M74.5,49.3L73.8,39c-0.1-0.8-0.7-1.5-1.6-1.4l-55.1,3.9c-0.8,0.1-1.5,0.7-1.4,1.6l0.7,10.3
		c-3.4,3.3-5.2,8.2-4.9,13.4l4.1,56.8l0.9,13.1L19,170c1,13.5,12.7,23.8,26.1,22.8l20.9-1.5c13.4-1,23.5-12.8,22.6-26.3l-2.4-33.3
		l-0.9-13.1l-4.1-56.9C81,56.6,78.3,52.1,74.5,49.3z"/>
	
		<ellipse transform="matrix(0.9974 -7.146060e-02 7.146060e-02 0.9974 -2.8074 3.3027)" class="st0" cx="44.8" cy="40.9" rx="28.3" ry="4.7"/>
	<path class="st1" d="M15.6,68.1l1.9,26.7c-0.1,1-0.2,2-0.1,3l2.2,30.3l0.8,11.6l2.1,29.4c0.9,12,11.7,21,24.2,20.1l17.4-1.2
		c12.4-0.9,21.9-11.4,21.1-23.4l-2.1-29.4l-0.8-11.6l-1.6-22.1l-0.6-8.3L78,63.7L15.6,68.1L15.6,68.1z"/>
	
		<ellipse transform="matrix(0.9974 -7.146060e-02 7.146060e-02 0.9974 -4.6046 3.5107)" class="st2" cx="46.8" cy="66.1" rx="31.4" ry="6.2"/>
	<line class="st3" x1="77.8" y1="140.7" x2="79.4" y2="164"/>
	<line class="st3" x1="77" y1="130" x2="77.4" y2="136.1"/>
</g>
<line class="st3" x1="70.7" y1="39.2" x2="71" y2="43.7"/>
<g>
	<path class="st4" d="M40,1.9L28,27.5c-1.4,2.9,10.4,11.2,26.4,18.7s29.9,11.1,31.2,8.3l12-25.6L40,1.9z"/>
	<ellipse transform="matrix(0.4245 -0.9054 0.9054 0.4245 25.6544 71.1667)" class="st5" cx="68.8" cy="15.4" rx="5.7" ry="31.8"/>
</g>
<path class="st1" d="M13.5,32.8L13.5,32.8l8.4-1.1c0.2,0,0.2-0.2,0.1-0.4l-6.1-6l0,0c-0.5-0.5-1.1-0.9-1.7-1.1
	c-2.3-0.8-4.8,0.5-5.6,2.8s0.5,4.8,2.8,5.6C12,32.9,12.8,33,13.5,32.8z"/>
<path class="st1" d="M17.1,23.6L17.1,23.6l4.5,4.2c0.1,0.1,0.2,0.1,0.2-0.1l0.6-6.2l0,0c0.1-0.5,0-1-0.2-1.5
	c-0.7-1.7-2.5-2.5-4.2-1.9c-1.7,0.6-2.5,2.5-1.9,4.2C16.5,22.9,16.8,23.3,17.1,23.6z"/>
</svg>
