<?xml version="1.0" encoding="utf-8"?>
<!-- Generator: Adobe Illustrator 23.0.1, SVG Export Plug-In . SVG Version: 6.00 Build 0)  -->
<svg version="1.1" id="Layer_1" xmlns="http://www.w3.org/2000/svg" xmlns:xlink="http://www.w3.org/1999/xlink" x="0px" y="0px"
	 viewBox="0 0 100 180" style="enable-background:new 0 0 100 180;" xml:space="preserve">
<style type="text/css">
	.st0{fill:#DAE3EE;}
	.st1{fill:#A7B7C1;}
	.st2{fill:#33373A;}
	.st3{fill:#55A8CC;}
	.st4{fill:#84CBE4;}
	.st5{fill:#D7DF23;}
	.st6{fill:#B2CBD3;}
</style>
<g>
	<path class="st0" d="M89.6,172.5H10.4c-3.8,0-6.8-3.1-6.8-6.8V14.3c0-3.8,3.1-6.8,6.8-6.8h79.2c3.8,0,6.8,3.1,6.8,6.8v151.3
		C96.4,169.3,93.3,172.5,89.6,172.5z"/>
	<path class="st1" d="M50,154.9c-4,0-7.2,3.2-7.2,7.2s3.2,7.2,7.2,7.2s7.2-3.2,7.2-7.2S54,154.9,50,154.9z M50,168.3
		c-3.4,0-6.2-2.8-6.2-6.2s2.8-6.2,6.2-6.2s6.2,2.8,6.2,6.2C56.2,165.5,53.4,168.3,50,168.3z"/>
	<path class="st2" d="M57.7,18.6H42.3c-0.3,0-0.6-0.2-0.6-0.6v-0.9c0-0.3,0.2-0.6,0.6-0.6h15.4c0.3,0,0.6,0.2,0.6,0.6V18
		C58.3,18.4,58,18.6,57.7,18.6z"/>
	<circle class="st2" cx="37.6" cy="17.6" r="1.3"/>
	<circle class="st2" cx="50" cy="13.6" r="0.9"/>
	<g>
		<rect x="8.7" y="24.2" class="st3" width="82.6" height="129.5"/>
		<rect x="8.7" y="132" class="st4" width="82.6" height="21.7"/>
		<g>
			<path class="st5" d="M23.7,69.9h-7.9c-1.8,0-3.2-1.5-3.2-3.2v-7.9c0-1.8,1.5-3.2,3.2-3.2h7.9c1.8,0,3.2,1.5,3.2,3.2v7.9
				C27,68.5,25.5,69.9,23.7,69.9z"/>
			<path class="st5" d="M43.9,69.9H36c-1.8,0-3.2-1.5-3.2-3.2v-7.9c0-1.8,1.5-3.2,3.2-3.2h7.9c1.8,0,3.2,1.5,3.2,3.2v7.9
				C47.1,68.5,45.7,69.9,43.9,69.9z"/>
			<path class="st5" d="M64,69.9h-7.9c-1.8,0-3.2-1.5-3.2-3.2v-7.9c0-1.8,1.5-3.2,3.2-3.2H64c1.8,0,3.2,1.5,3.2,3.2v7.9
				C67.3,68.5,65.8,69.9,64,69.9z"/>
			<path class="st5" d="M84.2,69.9h-7.9c-1.8,0-3.2-1.5-3.2-3.2v-7.9c0-1.8,1.5-3.2,3.2-3.2h7.9c1.8,0,3.2,1.5,3.2,3.2v7.9
				C87.4,68.5,85.9,69.9,84.2,69.9z"/>
		</g>
		<g>
			<path class="st5" d="M23.7,90.7h-7.9c-1.8,0-3.2-1.5-3.2-3.2v-7.9c0-1.8,1.5-3.2,3.2-3.2h7.9c1.8,0,3.2,1.5,3.2,3.2v7.9
				C27,89.2,25.5,90.7,23.7,90.7z"/>
			<path class="st5" d="M43.9,90.7H36c-1.8,0-3.2-1.5-3.2-3.2v-7.9c0-1.8,1.5-3.2,3.2-3.2h7.9c1.8,0,3.2,1.5,3.2,3.2v7.9
				C47.1,89.2,45.7,90.7,43.9,90.7z"/>
		</g>
		<g>
			<path class="st5" d="M23.7,150.1h-7.9c-1.8,0-3.2-1.5-3.2-3.2v-7.9c0-1.8,1.5-3.2,3.2-3.2h7.9c1.8,0,3.2,1.5,3.2,3.2v7.9
				C27,148.6,25.5,150.1,23.7,150.1z"/>
			<path class="st5" d="M43.9,150.1H36c-1.8,0-3.2-1.5-3.2-3.2v-7.9c0-1.8,1.5-3.2,3.2-3.2h7.9c1.8,0,3.2,1.5,3.2,3.2v7.9
				C47.1,148.6,45.7,150.1,43.9,150.1z"/>
			<path class="st5" d="M64,150.1h-7.9c-1.8,0-3.2-1.5-3.2-3.2v-7.9c0-1.8,1.5-3.2,3.2-3.2H64c1.8,0,3.2,1.5,3.2,3.2v7.9
				C67.3,148.6,65.8,150.1,64,150.1z"/>
			<path class="st5" d="M84.2,150.1h-7.9c-1.8,0-3.2-1.5-3.2-3.2v-7.9c0-1.8,1.5-3.2,3.2-3.2h7.9c1.8,0,3.2,1.5,3.2,3.2v7.9
				C87.4,148.6,85.9,150.1,84.2,150.1z"/>
		</g>
		<g>
			<path class="st5" d="M23.7,48.2h-7.9c-1.8,0-3.2-1.5-3.2-3.2V37c0-1.8,1.5-3.2,3.2-3.2h7.9c1.8,0,3.2,1.5,3.2,3.2v7.9
				C27,46.7,25.5,48.2,23.7,48.2z"/>
			<path class="st5" d="M43.9,48.2H36c-1.8,0-3.2-1.5-3.2-3.2V37c0-1.8,1.5-3.2,3.2-3.2h7.9c1.8,0,3.2,1.5,3.2,3.2v7.9
				C47.1,46.7,45.7,48.2,43.9,48.2z"/>
			<path class="st5" d="M64,48.2h-7.9c-1.8,0-3.2-1.5-3.2-3.2V37c0-1.8,1.5-3.2,3.2-3.2H64c1.8,0,3.2,1.5,3.2,3.2v7.9
				C67.3,46.7,65.8,48.2,64,48.2z"/>
			<path class="st5" d="M84.2,48.2h-7.9c-1.8,0-3.2-1.5-3.2-3.2V37c0-1.8,1.5-3.2,3.2-3.2h7.9c1.8,0,3.2,1.5,3.2,3.2v7.9
				C87.4,46.7,85.9,48.2,84.2,48.2z"/>
		</g>
		<rect x="8.7" y="24.2" class="st6" width="82.6" height="4.2"/>
	</g>
</g>
</svg>
