<?xml version="1.0" encoding="utf-8"?>
<!-- Generator: Adobe Illustrator 23.0.1, SVG Export Plug-In . SVG Version: 6.00 Build 0)  -->
<svg version="1.1" id="Layer_1" xmlns="http://www.w3.org/2000/svg" xmlns:xlink="http://www.w3.org/1999/xlink" x="0px" y="0px"
	 viewBox="0 0 175 300" style="enable-background:new 0 0 175 300;" xml:space="preserve">
<style type="text/css">
	.st0{fill:#DAE3EE;}
	.st1{fill:#55A8CC;}
	.st2{fill:#A7B7C1;}
	.st3{fill:#33373A;}
	.st4{fill:#84CBE4;}
	.st5{fill:#D7DF23;}
	.st6{fill:#B2CBD3;}
</style>
<g>
	<path class="st0" d="M151.66,295H23.34c-9.57,0-17.4-7.83-17.4-17.4V22.4c0-9.57,7.83-17.4,17.4-17.4h128.33
		c9.57,0,17.4,7.83,17.4,17.4v255.2C169.06,287.17,161.23,295,151.66,295z"/>
	<rect x="15" y="34.52" class="st1" width="145" height="226.56"/>
	<path class="st2" d="M87.5,264.13c-7,0-12.69,5.68-12.69,12.69S80.5,289.5,87.5,289.5s12.69-5.68,12.69-12.69
		S94.52,264.13,87.5,264.13z M87.5,287.69c-6,0-10.88-4.87-10.88-10.88s4.87-10.88,10.88-10.88s10.88,4.87,10.88,10.88
		S93.52,287.69,87.5,287.69z"/>
	<path class="st3" d="M100.62,24.69H74.38c-0.8,0-1.45-0.65-1.45-1.45v-0.72c0-0.8,0.65-1.45,1.45-1.45h26.25
		c0.8,0,1.45,0.65,1.45,1.45v0.72C102.07,24.04,101.42,24.69,100.62,24.69z"/>
	<circle class="st3" cx="65.68" cy="22.88" r="2.26"/>
	<circle class="st3" cx="87.5" cy="15.74" r="1.62"/>
	<rect x="15" y="223.07" class="st4" width="145" height="38.02"/>
	<g>
		<path class="st5" d="M41.38,114.53H27.53c-3.13,0-5.68-2.57-5.68-5.68V95c0-3.13,2.57-5.68,5.68-5.68h13.85
			c3.13,0,5.68,2.57,5.68,5.68v13.85C47.06,111.97,44.51,114.53,41.38,114.53z"/>
		<path class="st5" d="M76.74,114.53H62.89c-3.13,0-5.68-2.57-5.68-5.68V95c0-3.13,2.57-5.68,5.68-5.68h13.85
			c3.13,0,5.68,2.57,5.68,5.68v13.85C82.43,111.97,79.87,114.53,76.74,114.53z"/>
		<path class="st5" d="M112.11,114.53H98.26c-3.13,0-5.68-2.57-5.68-5.68V95c0-3.13,2.57-5.68,5.68-5.68h13.85
			c3.13,0,5.68,2.57,5.68,5.68v13.85C117.81,111.97,115.24,114.53,112.11,114.53z"/>
		<path class="st5" d="M147.49,114.53h-13.85c-3.13,0-5.68-2.57-5.68-5.68V95c0-3.13,2.57-5.68,5.68-5.68h13.85
			c3.13,0,5.68,2.57,5.68,5.68v13.85C153.17,111.97,150.6,114.53,147.49,114.53z"/>
	</g>
	<g>
		<path class="st5" d="M41.38,150.81H27.53c-3.13,0-5.68-2.57-5.68-5.68v-13.85c0-3.13,2.57-5.68,5.68-5.68h13.85
			c3.13,0,5.68,2.57,5.68,5.68v13.85C47.06,148.25,44.51,150.81,41.38,150.81z"/>
		<path class="st5" d="M76.74,150.81H62.89c-3.13,0-5.68-2.57-5.68-5.68v-13.85c0-3.13,2.57-5.68,5.68-5.68h13.85
			c3.13,0,5.68,2.57,5.68,5.68v13.85C82.43,148.25,79.87,150.81,76.74,150.81z"/>
	</g>
	<g>
		<path class="st5" d="M41.38,254.69H27.53c-3.13,0-5.68-2.57-5.68-5.68v-13.85c0-3.13,2.57-5.68,5.68-5.68h13.85
			c3.13,0,5.68,2.57,5.68,5.68v13.85C47.06,252.12,44.51,254.69,41.38,254.69z"/>
		<path class="st5" d="M76.74,254.69H62.89c-3.13,0-5.68-2.57-5.68-5.68v-13.85c0-3.13,2.57-5.68,5.68-5.68h13.85
			c3.13,0,5.68,2.57,5.68,5.68v13.85C82.43,252.12,79.87,254.69,76.74,254.69z"/>
		<path class="st5" d="M112.11,254.69H98.26c-3.13,0-5.68-2.57-5.68-5.68v-13.85c0-3.13,2.57-5.68,5.68-5.68h13.85
			c3.13,0,5.68,2.57,5.68,5.68v13.85C117.81,252.12,115.24,254.69,112.11,254.69z"/>
		<path class="st5" d="M147.49,254.69h-13.85c-3.13,0-5.68-2.57-5.68-5.68v-13.85c0-3.13,2.57-5.68,5.68-5.68h13.85
			c3.13,0,5.68,2.57,5.68,5.68v13.85C153.17,252.12,150.6,254.69,147.49,254.69z"/>
	</g>
	<g>
		<path class="st5" d="M41.38,76.47H27.53c-3.13,0-5.68-2.57-5.68-5.68V56.94c0-3.13,2.57-5.68,5.68-5.68h13.85
			c3.13,0,5.68,2.57,5.68,5.68v13.85C47.06,73.9,44.51,76.47,41.38,76.47z"/>
		<path class="st5" d="M76.74,76.47H62.89c-3.13,0-5.68-2.57-5.68-5.68V56.94c0-3.13,2.57-5.68,5.68-5.68h13.85
			c3.13,0,5.68,2.57,5.68,5.68v13.85C82.43,73.9,79.87,76.47,76.74,76.47z"/>
		<path class="st5" d="M112.11,76.47H98.26c-3.13,0-5.68-2.57-5.68-5.68V56.94c0-3.13,2.57-5.68,5.68-5.68h13.85
			c3.13,0,5.68,2.57,5.68,5.68v13.85C117.81,73.9,115.24,76.47,112.11,76.47z"/>
		<path class="st5" d="M147.49,76.47h-13.85c-3.13,0-5.68-2.57-5.68-5.68V56.94c0-3.13,2.57-5.68,5.68-5.68h13.85
			c3.13,0,5.68,2.57,5.68,5.68v13.85C153.17,73.9,150.6,76.47,147.49,76.47z"/>
	</g>
	<rect x="15" y="34.52" class="st6" width="145" height="7.34"/>
</g>
</svg>
