<?xml version="1.0" encoding="utf-8"?>
<!-- Generator: Adobe Illustrator 23.0.1, SVG Export Plug-In . SVG Version: 6.00 Build 0)  -->
<svg version="1.1" id="Layer_1" xmlns="http://www.w3.org/2000/svg" xmlns:xlink="http://www.w3.org/1999/xlink" x="0px" y="0px"
	 viewBox="0 0 100 180" style="enable-background:new 0 0 100 180;" xml:space="preserve">
<style type="text/css">
	.st0{fill:none;stroke:#FFFFFF;stroke-miterlimit:10;}
	.st1{fill:#E1FEFF;stroke:#FFFFFF;stroke-miterlimit:10;}
</style>
<g>
	<path class="st0" d="M89.6,172.6H10.4c-3.8,0-6.8-3.1-6.8-6.8V14.4c0-3.8,3.1-6.8,6.8-6.8h79.2c3.8,0,6.8,3.1,6.8,6.8v151.3
		C96.4,169.4,93.3,172.6,89.6,172.6z"/>
	<rect x="8.8" y="24.3" class="st0" width="82.5" height="128.9"/>
	<path class="st1" d="M50,155c-4,0-7.2,3.2-7.2,7.2s3.2,7.2,7.2,7.2s7.2-3.2,7.2-7.2S54,155,50,155z M50,168.4
		c-3.4,0-6.2-2.8-6.2-6.2s2.8-6.2,6.2-6.2s6.2,2.8,6.2,6.2C56.2,165.6,53.4,168.4,50,168.4z"/>
	<path class="st0" d="M57.7,18.7H42.3c-0.3,0-0.6-0.2-0.6-0.6v-0.9c0-0.3,0.2-0.6,0.6-0.6h15.4c0.3,0,0.6,0.2,0.6,0.6v0.9
		C58.3,18.5,58,18.7,57.7,18.7z"/>
	<circle class="st0" cx="37.6" cy="17.7" r="1.3"/>
	<circle class="st0" cx="50" cy="13.7" r="0.9"/>
</g>
</svg>
