<?xml version="1.0" encoding="utf-8"?>
<!-- Generator: Adobe Illustrator 23.0.1, SVG Export Plug-In . SVG Version: 6.00 Build 0)  -->
<svg version="1.1" id="Layer_1" xmlns="http://www.w3.org/2000/svg" xmlns:xlink="http://www.w3.org/1999/xlink" x="0px" y="0px"
	 viewBox="0 0 180 300" style="enable-background:new 0 0 180 300;" xml:space="preserve">
<style type="text/css">
	.st0{fill:#DAE3EE;}
	.st1{fill:#33373A;}
	.st2{fill:#A7B7C1;}
</style>
<g>
	<path class="st0" d="M157,290H22.8c-6.3,0-11.7-5.2-11.7-11.7V21.7c0-6.3,5.2-11.7,11.7-11.7h134.3c6.3,0,11.7,5.2,11.7,11.7v256.9
		C168.7,284.8,163.5,290,157,290z"/>
	<rect x="20" y="38.5" class="st1" width="140" height="218.7"/>
	<path class="st2" d="M89.9,260.2c-6.8,0-12.3,5.5-12.3,12.3c0,6.8,5.5,12.3,12.3,12.3s12.3-5.5,12.3-12.3
		C102.2,265.7,96.7,260.2,89.9,260.2z M89.9,282.9c-5.8,0-10.6-4.7-10.6-10.6c0-5.8,4.7-10.6,10.6-10.6s10.6,4.7,10.6,10.6
		C100.5,278.2,95.7,282.9,89.9,282.9z"/>
	<path class="st1" d="M103,29.1H76.9c-0.5,0-0.9-0.5-0.9-0.9v-1.6c0-0.5,0.5-0.9,0.9-0.9H103c0.5,0,0.9,0.5,0.9,0.9v1.6
		C103.9,28.6,103.6,29.1,103,29.1z"/>
	<circle class="st1" cx="68.8" cy="27.3" r="2.2"/>
	<circle class="st1" cx="89.9" cy="20.4" r="1.6"/>
</g>
</svg>
