<?xml version="1.0" encoding="utf-8"?>
<!-- Generator: Adobe Illustrator 23.0.1, SVG Export Plug-In . SVG Version: 6.00 Build 0)  -->
<svg version="1.1" id="Layer_1" xmlns="http://www.w3.org/2000/svg" xmlns:xlink="http://www.w3.org/1999/xlink" x="0px" y="0px"
	 viewBox="0 0 100 100" style="enable-background:new 0 0 100 100;" xml:space="preserve">
<style type="text/css">
	.st0{clip-path:url(#XMLID_4_);fill:none;stroke:#F9DE6A;stroke-width:10;stroke-miterlimit:10;}
	.st1{clip-path:url(#XMLID_4_);}
	.st2{fill:#FEC661;}
	.st3{fill:#F7EFE0;}
	.st4{fill:none;stroke:#000000;stroke-miterlimit:10;}
	.st5{fill:#F99E4B;}
	.st6{clip-path:url(#XMLID_5_);}
	.st7{fill:none;stroke:#DBC8AC;stroke-width:8;stroke-miterlimit:10;}
	.st8{fill:none;stroke:#DBC8AC;stroke-width:10;stroke-miterlimit:10;}
	.st9{fill:#F2AF26;}
	.st10{clip-path:url(#XMLID_5_);fill:none;stroke:#F9DE6A;stroke-width:10;stroke-miterlimit:10;}
</style>
<g>
	<defs>
		<path id="XMLID_2_" d="M88,100H12c-6.6,0-12-5.4-12-12V12C0,5.4,5.4,0,12,0h76c6.6,0,12,5.4,12,12v76C100,94.6,94.6,100,88,100z"
			/>
	</defs>
	<use xlink:href="#XMLID_2_"  style="overflow:visible;fill:#ECE2D1;"/>
	<clipPath id="XMLID_4_">
		<use xlink:href="#XMLID_2_"  style="overflow:visible;"/>
	</clipPath>
	<line class="st0" x1="-9.69" y1="-65.05" x2="-9.69" y2="43.08"/>
	<g class="st1">
		<path class="st2" d="M58.65,88.57h-18.1c-15.29,0-27.8-12.51-27.8-27.8l2.99-21.35c0-15.29,11.49-27.8,25.54-27.8h16.63
			c14.05,0,25.54,12.51,25.54,27.8l2.99,21.35C86.45,76.06,73.94,88.57,58.65,88.57z"/>
		<path d="M12.76,68.45"/>
		<path class="st2" d="M-3.15,147.19C-9,130.01,17.4,84.58,14.47,63.09h70.27c1.04,35.29,25.34,58.97,20.66,84.11"/>
		<path class="st3" d="M47.08,32.41C41.98,52.43,18.92,60.51,30.43,74.4c0.5,0.6,0.8,1.35,0.76,2.13
			c-1.42,24.41-25.42,53.56-22.53,68.29c0.27,1.4,1.54,2.38,2.96,2.38h77.71c1.68,0,3.08-1.38,3.02-3.06
			c-0.75-20.22-19.96-50.16-21.71-67.09c-0.07-0.67,0.13-1.32,0.49-1.89C81.34,58.86,56.5,52.43,52.13,32.26
			C51.66,30.13,47.62,30.29,47.08,32.41z"/>
		<g>
			<path d="M36.38,45.65h-1.51c-0.95,0-1.73-0.78-1.73-1.73v-6.14c0-0.95,0.78-1.73,1.73-1.73h1.51c0.95,0,1.73,0.78,1.73,1.73v6.14
				C38.11,44.87,37.33,45.65,36.38,45.65z"/>
			<path d="M64.35,45.65h-1.51c-0.95,0-1.73-0.78-1.73-1.73v-6.14c0-0.95,0.78-1.73,1.73-1.73h1.51c0.95,0,1.73,0.78,1.73,1.73v6.14
				C66.08,44.87,65.3,45.65,64.35,45.65z"/>
		</g>
		<path d="M54.67,59.34h-8.23c-1.01,0-1.83-0.82-1.83-1.83v-3.25c0-1.01,0.82-1.83,1.83-1.83h8.23c1.01,0,1.83,0.82,1.83,1.83v3.25
			C56.5,58.51,55.67,59.34,54.67,59.34z"/>
		<g>
			<path class="st4" d="M50.55,66.31c0,1.47-2.46,4.28-5.5,4.28c-3.04,0-5.5-2.82-5.5-4.28"/>
			<path class="st4" d="M61.55,66.31c0,1.47-2.46,4.28-5.5,4.28c-3.04,0-5.5-2.82-5.5-4.28"/>
		</g>
		<g>
			<path class="st2" d="M35.8,27.31l-7.28,5.11c-4.12,2.89-9.42,2.51-11.78-0.85l-5.3-11.93C9.08,16.3,9.9,11.62,13.26,9.26
				l5.94-4.17c3.36-2.36,8.04-1.54,10.39,1.82L39,15.95C41.36,19.31,39.92,24.42,35.8,27.31z"/>
			<path class="st5" d="M30.9,23.24l-5.14,3.61c-2.91,2.04-6.65,1.77-8.31-0.6l-3.74-8.42c-1.66-2.37-1.09-5.67,1.28-7.33l4.19-2.94
				c2.37-1.66,5.67-1.09,7.33,1.28l6.65,6.38C34.83,17.59,33.81,21.2,30.9,23.24z"/>
			<path class="st2" d="M21.31,22.58l-9.88-2.93C9.08,16.3,9.9,11.62,13.26,9.26l5.94-4.17c3.36-2.36,8.04-1.54,10.39,1.82
				l-0.6,10.28C28.7,21.35,25.51,23.47,21.31,22.58z"/>
		</g>
		<g>
			<path class="st2" d="M63.3,27.47l7.28,5.11c4.12,2.89,9.42,2.51,11.78-0.85l5.3-11.93c2.36-3.36,1.54-8.04-1.82-10.39L79.9,5.25
				c-3.36-2.36-8.04-1.54-10.39,1.82l-9.42,9.04C57.73,19.46,59.18,24.58,63.3,27.47z"/>
			<path class="st5" d="M68.31,23.24l5.14,3.61c2.91,2.04,6.65,1.77,8.31-0.6l3.74-8.42c1.66-2.37,1.09-5.67-1.28-7.33l-4.19-2.94
				c-2.37-1.66-5.67-1.09-7.33,1.28l-6.65,6.38C64.38,17.59,65.4,21.2,68.31,23.24z"/>
			<path class="st2" d="M77.78,22.74l9.88-2.93c2.36-3.36,1.54-8.04-1.82-10.39L79.9,5.25c-3.36-2.36-8.04-1.54-10.39,1.82
				l0.6,10.28C70.39,21.51,73.59,23.63,77.78,22.74z"/>
		</g>
	</g>
</g>
<g>
	<g>
		<defs>
			<path id="XMLID_1_" d="M-36.62,80h-76c-6.6,0-12-5.4-12-12V-8c0-6.6,5.4-12,12-12h76c6.6,0,12,5.4,12,12v76
				C-24.62,74.6-30.02,80-36.62,80z"/>
		</defs>
		<use xlink:href="#XMLID_1_"  style="overflow:visible;fill:#ECE2D1;"/>
		<clipPath id="XMLID_5_">
			<use xlink:href="#XMLID_1_"  style="overflow:visible;"/>
		</clipPath>
		<g class="st6">
			<line class="st7" x1="-75.04" y1="132.24" x2="27.63" y2="29.57"/>
			<line class="st7" x1="-86.35" y1="120.93" x2="16.32" y2="18.26"/>
			<line class="st7" x1="-97.67" y1="109.62" x2="5" y2="6.95"/>
			<line class="st7" x1="-108.98" y1="98.3" x2="-6.31" y2="-4.37"/>
			<line class="st7" x1="-120.29" y1="86.99" x2="-17.62" y2="-15.68"/>
			<line class="st7" x1="-131.61" y1="75.67" x2="-28.94" y2="-26.99"/>
			<line class="st7" x1="-142.92" y1="64.36" x2="-40.25" y2="-38.31"/>
			<line class="st7" x1="-154.23" y1="53.05" x2="-51.57" y2="-49.62"/>
			<line class="st7" x1="-165.55" y1="41.73" x2="-62.88" y2="-60.94"/>
			<line class="st8" x1="-176.86" y1="30.42" x2="-74.19" y2="-72.25"/>
		</g>
		<g class="st6">
			<path class="st9" d="M-65.18,66.11h-18.02c-15.23,0-27.69-12.46-27.69-27.69l2.98-21.26c0-15.23,11.45-27.69,25.44-27.69h16.56
				c13.99,0,25.44,12.46,25.44,27.69l2.98,21.26C-37.49,53.65-49.95,66.11-65.18,66.11z"/>
			<path class="st9" d="M-110.9,46.07"/>
			<path class="st9" d="M-126.75,124.5c-5.83-17.12,20.47-62.37,17.55-83.78h69.99c1.04,35.15,25.24,58.74,20.58,83.78"/>
			<path class="st9" d="M-76.71,10.16c-5.09,19.94-28.05,28-16.59,41.83c0.5,0.6,0.8,1.34,0.76,2.12
				c-1.41,24.32-25.32,53.34-22.44,68.02c0.27,1.39,1.53,2.37,2.95,2.37h77.4c1.68,0,3.07-1.37,3.01-3.05
				c-0.75-20.14-19.88-49.97-21.63-66.83c-0.07-0.66,0.13-1.32,0.49-1.88c10.19-16.22-14.56-22.63-18.92-42.72
				C-72.15,7.9-76.17,8.06-76.71,10.16z"/>
			<g>
				<path class="st9" d="M-87.38,23.35h-1.49c-0.95,0-1.73-0.78-1.73-1.73v-6.11c0-0.95,0.78-1.73,1.73-1.73h1.49
					c0.95,0,1.73,0.78,1.73,1.73v6.11C-85.65,22.57-86.43,23.35-87.38,23.35z"/>
				<path class="st9" d="M-59.52,23.35h-1.49c-0.95,0-1.73-0.78-1.73-1.73v-6.11c0-0.95,0.78-1.73,1.73-1.73h1.49
					c0.95,0,1.73,0.78,1.73,1.73v6.11C-57.79,22.57-58.57,23.35-59.52,23.35z"/>
			</g>
			<path class="st9" d="M-69.16,36.99h-8.18c-1.01,0-1.83-0.82-1.83-1.83v-3.22c0-1.01,0.82-1.83,1.83-1.83h8.18
				c1.01,0,1.83,0.82,1.83,1.83v3.22C-67.33,36.17-68.15,36.99-69.16,36.99z"/>
			<g>
				<path class="st9" d="M-73.25,43.94c0,1.46-2.45,4.27-5.48,4.27c-3.02,0-5.48-2.81-5.48-4.27"/>
				<path class="st9" d="M-62.3,43.94c0,1.46-2.45,4.27-5.48,4.27c-3.02,0-5.48-2.81-5.48-4.27"/>
			</g>
			<g>
				<path class="st9" d="M-87.95,5.09l-7.25,5.09c-4.1,2.88-9.38,2.5-11.73-0.84l-5.28-11.88c-2.35-3.35-1.53-8,1.81-10.35
					l5.91-4.15c3.35-2.35,8-1.53,10.35,1.81l9.38,9C-82.41-2.88-83.84,2.21-87.95,5.09z"/>
				<path class="st9" d="M-92.83,1.04l-5.12,3.59c-2.9,2.03-6.62,1.77-8.28-0.59l-3.73-8.38c-1.66-2.36-1.08-5.65,1.28-7.31
					l4.17-2.93c2.36-1.66,5.65-1.08,7.31,1.28l6.62,6.35C-88.92-4.59-89.93-1-92.83,1.04z"/>
				<path class="st9" d="M-102.38,0.38l-9.84-2.92c-2.35-3.35-1.53-8,1.81-10.35l5.91-4.15c3.35-2.35,8-1.53,10.35,1.81l-0.6,10.24
					C-95.02-0.85-98.2,1.26-102.38,0.38z"/>
			</g>
			<g>
				<path class="st9" d="M-60.56,5.25l7.25,5.09c4.1,2.88,9.38,2.5,11.73-0.84l5.28-11.88c2.35-3.35,1.53-8-1.81-10.35l-5.91-4.15
					c-3.35-2.35-8-1.53-10.35,1.81l-9.38,9C-66.1-2.73-64.66,2.37-60.56,5.25z"/>
				<path class="st9" d="M-55.57,1.04l5.12,3.59c2.9,2.03,6.62,1.77,8.28-0.59l3.73-8.38c1.66-2.36,1.08-5.65-1.28-7.31l-4.17-2.93
					c-2.36-1.66-5.65-1.08-7.31,1.28l-6.62,6.35C-59.48-4.59-58.46-1-55.57,1.04z"/>
				<path class="st9" d="M-46.13,0.54l9.84-2.92c2.35-3.35,1.53-8-1.81-10.35l-5.91-4.15c-3.35-2.35-8-1.53-10.35,1.81l0.6,10.24
					C-53.49-0.69-50.31,1.42-46.13,0.54z"/>
			</g>
		</g>
		<line class="st10" x1="-134.3" y1="-85.05" x2="-134.3" y2="23.08"/>
	</g>
	<g>
		<text transform="matrix(1 0 0 1 -81.8415 34.2902)" style="font-family:'Chewy-Regular'; font-size:39.5207px;">?</text>
		
			<text transform="matrix(0.978 -0.2084 0.2084 0.978 -89.0237 41.9034)" style="font-family:'Chewy-Regular'; font-size:28.4724px;">?</text>
		
			<text transform="matrix(0.9781 0.2082 -0.2082 0.9781 -68.5056 38.7549)" style="font-family:'Chewy-Regular'; font-size:20.4472px;">?</text>
	</g>
</g>
</svg>
