<?xml version="1.0" encoding="utf-8"?>
<!-- Generator: Adobe Illustrator 23.0.1, SVG Export Plug-In . SVG Version: 6.00 Build 0)  -->
<svg version="1.1" id="Layer_1" xmlns="http://www.w3.org/2000/svg" xmlns:xlink="http://www.w3.org/1999/xlink" x="0px" y="0px"
	 viewBox="0 0 100 100" style="enable-background:new 0 0 100 100;" xml:space="preserve">
<style type="text/css">
	.st0{fill:#76D2D6;}
	.st1{clip-path:url(#SVGID_2_);fill:none;stroke:#F9DE6A;stroke-width:10;stroke-miterlimit:10;}
	.st2{clip-path:url(#SVGID_4_);}
	.st3{fill:#FEC661;}
	.st4{fill:#F7EFE0;}
	.st5{fill:none;stroke:#000000;stroke-linecap:round;stroke-miterlimit:10;}
	.st6{fill:#F99E4B;}
</style>
<g>
	<g>
		<path id="XMLID_2_" class="st0" d="M88,100H12c-6.6,0-12-5.4-12-12V12C0,5.4,5.4,0,12,0h76c6.6,0,12,5.4,12,12v76
			C100,94.6,94.6,100,88,100z"/>
	</g>
	<g>
		<g>
			<defs>
				<path id="SVGID_1_" d="M88,100H12c-6.6,0-12-5.4-12-12V12C0,5.4,5.4,0,12,0h76c6.6,0,12,5.4,12,12v76C100,94.6,94.6,100,88,100z
					"/>
			</defs>
			<clipPath id="SVGID_2_">
				<use xlink:href="#SVGID_1_"  style="overflow:visible;"/>
			</clipPath>
			<line class="st1" x1="-9.69" y1="-65.05" x2="-9.69" y2="43.08"/>
		</g>
	</g>
	<g>
		<g>
			<defs>
				<path id="SVGID_3_" d="M88,100H12c-6.6,0-12-5.4-12-12V12C0,5.4,5.4,0,12,0h76c6.6,0,12,5.4,12,12v76C100,94.6,94.6,100,88,100z
					"/>
			</defs>
			<clipPath id="SVGID_4_">
				<use xlink:href="#SVGID_3_"  style="overflow:visible;"/>
			</clipPath>
			<g class="st2">
				<path class="st3" d="M58.65,88.57h-18.1c-15.29,0-27.8-12.51-27.8-27.8l2.99-21.35c0-15.29,11.49-27.8,25.54-27.8h16.63
					c14.05,0,25.54,12.51,25.54,27.8l2.99,21.35C86.45,76.06,73.94,88.57,58.65,88.57z"/>
				<path d="M12.76,68.45"/>
				<path class="st3" d="M-3.15,147.19C-9,130.01,17.4,84.58,14.47,63.09h70.27c1.04,35.29,25.34,58.97,20.66,84.11"/>
				<path class="st4" d="M47.08,32.41c-5.1,20.02-28.16,28.1-16.65,41.99c0.5,0.6,0.8,1.35,0.76,2.13
					c-1.42,24.41-25.42,53.56-22.53,68.29c0.27,1.4,1.54,2.38,2.96,2.38h77.71c1.68,0,3.08-1.38,3.02-3.06
					c-0.75-20.22-19.96-50.16-21.71-67.09c-0.07-0.67,0.13-1.32,0.49-1.89c10.21-16.3-14.63-22.73-19-42.9
					C51.66,30.13,47.62,30.29,47.08,32.41z"/>
				<g>
					<path d="M36.38,45.65h-1.51c-0.95,0-1.73-0.78-1.73-1.73v-6.14c0-0.95,0.78-1.73,1.73-1.73h1.51c0.95,0,1.73,0.78,1.73,1.73
						v6.14C38.11,44.87,37.33,45.65,36.38,45.65z"/>
					<path d="M64.35,45.65h-1.51c-0.95,0-1.73-0.78-1.73-1.73v-6.14c0-0.95,0.78-1.73,1.73-1.73h1.51c0.95,0,1.73,0.78,1.73,1.73
						v6.14C66.08,44.87,65.3,45.65,64.35,45.65z"/>
				</g>
				<path d="M54.67,59.34h-8.23c-1.01,0-1.83-0.82-1.83-1.83v-3.25c0-1.01,0.82-1.83,1.83-1.83h8.23c1.01,0,1.83,0.82,1.83,1.83
					v3.25C56.5,58.51,55.67,59.34,54.67,59.34z"/>
				<g>
					<path class="st5" d="M50.55,66.31c0,1.47-2.46,4.28-5.5,4.28s-5.5-2.82-5.5-4.28"/>
					<path class="st5" d="M61.55,66.31c0,1.47-2.46,4.28-5.5,4.28s-5.5-2.82-5.5-4.28"/>
				</g>
				<g>
					<path class="st3" d="M35.8,27.31l-7.28,5.11c-4.12,2.89-9.42,2.51-11.78-0.85l-5.3-11.93C9.08,16.3,9.9,11.62,13.26,9.26
						l5.94-4.17c3.36-2.36,8.04-1.54,10.39,1.82L39,15.95C41.36,19.31,39.92,24.42,35.8,27.31z"/>
					<path class="st6" d="M30.9,23.24l-5.14,3.61c-2.91,2.04-6.65,1.77-8.31-0.6l-3.74-8.42c-1.66-2.37-1.09-5.67,1.28-7.33
						l4.19-2.94c2.37-1.66,5.67-1.09,7.33,1.28l6.65,6.38C34.83,17.59,33.81,21.2,30.9,23.24z"/>
					<path class="st3" d="M21.31,22.58l-9.88-2.93C9.08,16.3,9.9,11.62,13.26,9.26l5.94-4.17c3.36-2.36,8.04-1.54,10.39,1.82
						l-0.6,10.28C28.7,21.35,25.51,23.47,21.31,22.58z"/>
				</g>
				<g>
					<path class="st3" d="M63.3,27.47l7.28,5.11c4.12,2.89,9.42,2.51,11.78-0.85l5.3-11.93c2.36-3.36,1.54-8.04-1.82-10.39
						L79.9,5.25c-3.36-2.36-8.04-1.54-10.39,1.82l-9.42,9.04C57.73,19.46,59.18,24.58,63.3,27.47z"/>
					<path class="st6" d="M68.31,23.24l5.14,3.61c2.91,2.04,6.65,1.77,8.31-0.6l3.74-8.42c1.66-2.37,1.09-5.67-1.28-7.33l-4.19-2.94
						c-2.37-1.66-5.67-1.09-7.33,1.28l-6.65,6.38C64.38,17.59,65.4,21.2,68.31,23.24z"/>
					<path class="st3" d="M77.78,22.74l9.88-2.93c2.36-3.36,1.54-8.04-1.82-10.39L79.9,5.25c-3.36-2.36-8.04-1.54-10.39,1.82
						l0.6,10.28C70.39,21.51,73.59,23.63,77.78,22.74z"/>
				</g>
			</g>
		</g>
	</g>
</g>
</svg>
