<?xml version="1.0" encoding="utf-8"?>
<!-- Generator: Adobe Illustrator 23.0.1, SVG Export Plug-In . SVG Version: 6.00 Build 0)  -->
<svg version="1.1" id="Layer_1" xmlns="http://www.w3.org/2000/svg" xmlns:xlink="http://www.w3.org/1999/xlink" x="0px" y="0px"
	 viewBox="0 0 100 100" style="enable-background:new 0 0 100 100;" xml:space="preserve">
<style type="text/css">
	.st0{fill:#ADD359;}
	.st1{clip-path:url(#SVGID_2_);fill:none;stroke:#F9DE6A;stroke-width:10;stroke-miterlimit:10;}
	.st2{fill:#110A00;}
	.st3{fill:#8C5806;}
	.st4{fill:#F7EFE0;}
	.st5{fill:#F47D4A;}
	.st6{fill:none;stroke:#D85425;stroke-miterlimit:10;}
	.st7{fill:#F7EFE0;stroke:#191919;stroke-linecap:round;stroke-miterlimit:10;}
</style>
<g>
	<g>
		<path id="XMLID_3_" class="st0" d="M88,100H12c-6.6,0-12-5.4-12-12V12C0,5.4,5.4,0,12,0h76c6.6,0,12,5.4,12,12v76
			C100,94.6,94.6,100,88,100z"/>
	</g>
	<g>
		<g>
			<defs>
				<path id="SVGID_1_" d="M88,100H12c-6.6,0-12-5.4-12-12V12C0,5.4,5.4,0,12,0h76c6.6,0,12,5.4,12,12v76C100,94.6,94.6,100,88,100z
					"/>
			</defs>
			<clipPath id="SVGID_2_">
				<use xlink:href="#SVGID_1_"  style="overflow:visible;"/>
			</clipPath>
			<line class="st1" x1="-9.69" y1="-65.05" x2="-9.69" y2="43.08"/>
		</g>
	</g>
	<g>
		<g>
			<path class="st2" d="M8.08,63.32l5.38,4.18c4.95,3.85,11.01,2.93,13.46-2.03l14.56-36.28c2.43-4.9,1.21-11.41-2.7-14.45
				l-4.25-3.31C30.61,8.4,25.42,9.92,23,14.83L3.54,47.31C1.09,52.27,3.13,59.48,8.08,63.32z"/>
			<path class="st2" d="M91.92,63.32l-5.38,4.18c-4.95,3.85-11.01,2.93-13.46-2.03L58.52,29.19c-2.43-4.9-1.21-11.41,2.7-14.45
				l4.25-3.31c3.91-3.04,9.1-1.52,11.53,3.39L96.46,47.3C98.91,52.27,96.87,59.48,91.92,63.32z"/>
		</g>
		<path class="st3" d="M65.75,72.04h-31.5c-6.27,0-11.41-5.27-11.41-11.7l6.79-38.26c0-5.92,3.85-10.77,8.56-10.77h23.63
			c4.71,0,8.56,4.85,8.56,10.77l6.79,38.26C77.16,66.78,72.03,72.04,65.75,72.04z"/>
		<path class="st3" d="M18.66,100c-0.95-13.55,10.79-36.37,10.43-39.8H71.3c1.92,9.54,12.86,26.01,12.11,39.8H18.66z"/>
		<path class="st4" d="M24.08,65.61c0-13.77,21.75-16.84,24.85-34.64c0.43-2.46,1.64-2.35,2.03,0.18
			C53.13,45.35,73.68,52.2,75.8,64.9c0.09,0.54,0.05,1.11-0.14,1.62C70.87,79.54,29.3,79.9,24.08,66.07"/>
		<path class="st2" d="M54.85,69.89h-8.51c-2.05,0-3.72-1.67-3.72-3.72v-0.19c0-2.05,1.67-3.72,3.72-3.72h8.51
			c2.05,0,3.72,1.67,3.72,3.72v0.19C58.57,68.21,56.89,69.89,54.85,69.89z"/>
		<path class="st2" d="M38.05,41.62l-0.61-0.18c-0.97-0.29-1.52-1.34-1.24-2.33l1.25-4.37c0.28-0.99,1.3-1.56,2.27-1.27l0.61,0.18
			c0.97,0.29,1.52,1.34,1.24,2.33l-1.25,4.37C40.04,41.33,39.02,41.91,38.05,41.62z"/>
		<path class="st2" d="M63.13,41.62l0.61-0.18c0.97-0.29,1.52-1.34,1.24-2.33l-1.25-4.37c-0.28-0.99-1.3-1.56-2.27-1.27l-0.61,0.18
			c-0.97,0.29-1.52,1.34-1.24,2.33l1.25,4.37C61.14,41.33,62.17,41.91,63.13,41.62z"/>
		<path class="st2" d="M38.05,41.62l-0.61-0.18c-0.97-0.29-1.52-1.34-1.24-2.33l1.25-4.37c0.28-0.99,1.3-1.56,2.27-1.27l0.61,0.18
			c0.97,0.29,1.52,1.34,1.24,2.33l-1.25,4.37C40.04,41.33,39.02,41.91,38.05,41.62z"/>
		<path class="st5" d="M43.1,73.99h14.98C58.08,81.93,43.1,81.45,43.1,73.99z"/>
		<line class="st6" x1="50.59" y1="73.99" x2="50.59" y2="77"/>
	</g>
	<path class="st7" d="M50.59,72.55c0,1.58-2.24,2.86-5.01,2.86c-2.77,0-5.01-1.28-5.01-2.86"/>
	<path class="st7" d="M60.61,72.55c0,1.58-2.24,2.86-5.01,2.86s-5.01-1.28-5.01-2.86"/>
</g>
</svg>
