<?xml version="1.0" encoding="utf-8"?>
<!-- Generator: Adobe Illustrator 23.0.1, SVG Export Plug-In . SVG Version: 6.00 Build 0)  -->
<svg version="1.1" id="Layer_1" xmlns="http://www.w3.org/2000/svg" xmlns:xlink="http://www.w3.org/1999/xlink" x="0px" y="0px"
	 viewBox="0 0 100 100" style="enable-background:new 0 0 100 100;" xml:space="preserve">
<style type="text/css">
	.st0{fill:#76D2D6;}
	.st1{clip-path:url(#SVGID_2_);fill:none;stroke:#F9DE6A;stroke-width:10;stroke-miterlimit:10;}
	.st2{clip-path:url(#SVGID_4_);}
	.st3{fill:#FEC661;}
	.st4{fill:#F7EFE0;}
	.st5{fill:none;stroke:#000000;stroke-linecap:round;stroke-miterlimit:10;}
	.st6{fill:#F99E4B;}
	.st7{fill:#EFA17F;}
	.st8{clip-path:url(#SVGID_6_);fill:none;stroke:#F9DE6A;stroke-width:10;stroke-miterlimit:10;}
	.st9{clip-path:url(#SVGID_8_);}
	.st10{fill:#FFE7B6;}
	.st11{fill:#110A00;}
	.st12{fill:none;stroke:#16110B;stroke-linecap:round;stroke-miterlimit:10;}
	.st13{fill:#EFCA8E;}
	.st14{fill:#F9BB78;}
	.st15{fill:#ADD359;}
	.st16{clip-path:url(#SVGID_10_);fill:none;stroke:#F9DE6A;stroke-width:10;stroke-miterlimit:10;}
	.st17{fill:#8C5806;}
	.st18{fill:#F47D4A;}
	.st19{fill:none;stroke:#D85425;stroke-miterlimit:10;}
	.st20{fill:#F7EFE0;stroke:#191919;stroke-linecap:round;stroke-miterlimit:10;}
	.st21{fill:#ECE2D1;}
	.st22{clip-path:url(#SVGID_12_);}
	.st23{fill:none;stroke:#DBC8AC;stroke-width:8;stroke-miterlimit:10;}
	.st24{fill:none;stroke:#DBC8AC;stroke-width:10;stroke-miterlimit:10;}
	.st25{clip-path:url(#SVGID_14_);}
	.st26{fill:#F2AF26;}
	.st27{clip-path:url(#SVGID_16_);fill:none;stroke:#F9DE6A;stroke-width:10;stroke-miterlimit:10;}
</style>
<g>
	<g>
		<path id="XMLID_2_" class="st0" d="M266.91,109.07h-76c-6.6,0-12-5.4-12-12v-76c0-6.6,5.4-12,12-12h76c6.6,0,12,5.4,12,12v76
			C278.91,103.67,273.51,109.07,266.91,109.07z"/>
	</g>
	<g>
		<defs>
			<path id="SVGID_1_" d="M266.91,109.07h-76c-6.6,0-12-5.4-12-12v-76c0-6.6,5.4-12,12-12h76c6.6,0,12,5.4,12,12v76
				C278.91,103.67,273.51,109.07,266.91,109.07z"/>
		</defs>
		<clipPath id="SVGID_2_">
			<use xlink:href="#SVGID_1_"  style="overflow:visible;"/>
		</clipPath>
		<line class="st1" x1="169.22" y1="-55.98" x2="169.22" y2="52.15"/>
	</g>
	<g>
		<defs>
			<path id="SVGID_3_" d="M266.91,109.07h-76c-6.6,0-12-5.4-12-12v-76c0-6.6,5.4-12,12-12h76c6.6,0,12,5.4,12,12v76
				C278.91,103.67,273.51,109.07,266.91,109.07z"/>
		</defs>
		<clipPath id="SVGID_4_">
			<use xlink:href="#SVGID_3_"  style="overflow:visible;"/>
		</clipPath>
		<g class="st2">
			<path class="st3" d="M237.56,97.64h-18.1c-15.29,0-27.8-12.51-27.8-27.8l2.99-21.35c0-15.29,11.49-27.8,25.54-27.8h16.63
				c14.05,0,25.54,12.51,25.54,27.8l2.99,21.35C265.36,85.13,252.85,97.64,237.56,97.64z"/>
			<path d="M191.67,77.52"/>
			<path class="st3" d="M175.76,156.26c-5.85-17.18,20.55-62.61,17.62-84.1h70.27c1.04,35.29,25.34,58.97,20.66,84.11"/>
			<path class="st4" d="M225.99,41.48c-5.1,20.02-28.16,28.1-16.65,41.99c0.5,0.6,0.8,1.35,0.76,2.13
				c-1.42,24.41-25.42,53.56-22.53,68.29c0.27,1.4,1.54,2.38,2.96,2.38h77.71c1.68,0,3.08-1.38,3.02-3.06
				c-0.75-20.22-19.96-50.16-21.71-67.09c-0.07-0.67,0.13-1.32,0.49-1.89c10.21-16.3-14.63-22.73-19-42.9
				C230.57,39.2,226.53,39.36,225.99,41.48z"/>
			<g>
				<path d="M215.29,54.72h-1.51c-0.95,0-1.73-0.78-1.73-1.73v-6.14c0-0.95,0.78-1.73,1.73-1.73h1.51c0.95,0,1.73,0.78,1.73,1.73
					v6.14C217.02,53.94,216.24,54.72,215.29,54.72z"/>
				<path d="M243.26,54.72h-1.51c-0.95,0-1.73-0.78-1.73-1.73v-6.14c0-0.95,0.78-1.73,1.73-1.73h1.51c0.95,0,1.73,0.78,1.73,1.73
					v6.14C244.99,53.94,244.21,54.72,243.26,54.72z"/>
			</g>
			<path d="M233.58,68.41h-8.23c-1.01,0-1.83-0.82-1.83-1.83v-3.25c0-1.01,0.82-1.83,1.83-1.83h8.23c1.01,0,1.83,0.82,1.83,1.83
				v3.25C235.41,67.58,234.58,68.41,233.58,68.41z"/>
			<g>
				<path class="st5" d="M229.46,75.38c0,1.47-2.46,4.28-5.5,4.28c-3.04,0-5.5-2.82-5.5-4.28"/>
				<path class="st5" d="M240.46,75.38c0,1.47-2.46,4.28-5.5,4.28c-3.04,0-5.5-2.82-5.5-4.28"/>
			</g>
			<g>
				<path class="st3" d="M214.71,36.38l-7.28,5.11c-4.12,2.89-9.42,2.51-11.78-0.85l-5.3-11.93c-2.36-3.34-1.54-8.02,1.82-10.38
					l5.94-4.17c3.36-2.36,8.04-1.54,10.39,1.82l9.41,9.04C220.27,28.38,218.83,33.49,214.71,36.38z"/>
				<path class="st6" d="M209.81,32.31l-5.14,3.61c-2.91,2.04-6.65,1.77-8.31-0.6l-3.74-8.42c-1.66-2.37-1.09-5.67,1.28-7.33
					l4.19-2.94c2.37-1.66,5.67-1.09,7.33,1.28l6.65,6.38C213.74,26.66,212.72,30.27,209.81,32.31z"/>
				<path class="st3" d="M200.22,31.65l-9.88-2.93c-2.35-3.35-1.53-8.03,1.83-10.39l5.94-4.17c3.36-2.36,8.04-1.54,10.39,1.82
					l-0.6,10.28C207.61,30.42,204.42,32.54,200.22,31.65z"/>
			</g>
			<g>
				<path class="st3" d="M242.21,36.54l7.28,5.11c4.12,2.89,9.42,2.51,11.78-0.85l5.3-11.93c2.36-3.36,1.54-8.04-1.82-10.39
					l-5.94-4.16c-3.36-2.36-8.04-1.54-10.39,1.82L239,25.18C236.64,28.53,238.09,33.65,242.21,36.54z"/>
				<path class="st6" d="M247.22,32.31l5.14,3.61c2.91,2.04,6.65,1.77,8.31-0.6l3.74-8.42c1.66-2.37,1.09-5.67-1.28-7.33l-4.19-2.94
					c-2.37-1.66-5.67-1.09-7.33,1.28l-6.65,6.38C243.29,26.66,244.31,30.27,247.22,32.31z"/>
				<path class="st3" d="M256.69,31.81l9.88-2.93c2.36-3.36,1.54-8.04-1.82-10.39l-5.94-4.17c-3.36-2.36-8.04-1.54-10.39,1.82
					l0.6,10.28C249.3,30.58,252.5,32.7,256.69,31.81z"/>
			</g>
		</g>
	</g>
</g>
<g>
	<g>
		<path id="XMLID_4_" class="st7" d="M88,100H12c-6.6,0-12-5.4-12-12V12C0,5.4,5.4,0,12,0h76c6.6,0,12,5.4,12,12v76
			C100,94.6,94.6,100,88,100z"/>
	</g>
	<g>
		<defs>
			<path id="SVGID_5_" d="M88,100H12c-6.6,0-12-5.4-12-12V12C0,5.4,5.4,0,12,0h76c6.6,0,12,5.4,12,12v76C100,94.6,94.6,100,88,100z"
				/>
		</defs>
		<clipPath id="SVGID_6_">
			<use xlink:href="#SVGID_5_"  style="overflow:visible;"/>
		</clipPath>
		<line class="st8" x1="-9.69" y1="-65.05" x2="-9.69" y2="43.08"/>
	</g>
	<g>
		<defs>
			<path id="SVGID_7_" d="M88,100H12c-6.6,0-12-5.4-12-12V12C0,5.4,5.4,0,12,0h76c6.6,0,12,5.4,12,12v76C100,94.6,94.6,100,88,100z"
				/>
		</defs>
		<clipPath id="SVGID_8_">
			<use xlink:href="#SVGID_7_"  style="overflow:visible;"/>
		</clipPath>
		<g class="st9">
			<path class="st10" d="M34.13,34.43l-4.63,2.55c-4.32,2.38-9.77,0.86-12.11-3.39l-1.98-12.54c-3.5-14.41,5.53-15.21,12.79-7.05
				l9.54,8.37C40.08,26.62,38.46,32.05,34.13,34.43z"/>
			<ellipse class="st10" cx="50.01" cy="48.15" rx="36.17" ry="30.78"/>
			<path class="st10" d="M102.25,94.32c0,21.97-23.41,30.05-52.3,30.05s-52.3-8.08-52.3-30.05S21.07,44.8,49.95,44.8
				S102.25,72.34,102.25,94.32z"/>
			<path class="st11" d="M36.63,54.85h-0.45c-1.46,0-2.66-1.2-2.66-2.66V48.8c0-1.46,1.2-2.66,2.66-2.66h0.45
				c1.46,0,2.66,1.2,2.66,2.66v3.39C39.29,53.65,38.09,54.85,36.63,54.85z"/>
			<path class="st11" d="M63.73,54.85h-0.45c-1.46,0-2.66-1.2-2.66-2.66V48.8c0-1.46,1.2-2.66,2.66-2.66h0.45
				c1.46,0,2.66,1.2,2.66,2.66v3.39C66.39,53.65,65.19,54.85,63.73,54.85z"/>
			<path class="st11" d="M51.02,59.74h-2.13c-1.11,0-2.01-0.91-2.01-2.01v-0.34c0-1.11,0.91-2.01,2.01-2.01h2.13
				c1.11,0,2.01,0.91,2.01,2.01v0.34C53.03,58.83,52.13,59.74,51.02,59.74z"/>
			<g>
				<path class="st12" d="M49.95,65.65c0,1.29-1.12,2.34-2.5,2.34c-1.38,0-2.5-1.05-2.5-2.34"/>
				<path class="st12" d="M54.96,65.65c0,1.29-1.12,2.34-2.5,2.34c-1.38,0-2.5-1.05-2.5-2.34"/>
			</g>
			<path class="st13" d="M39.87,74.67c4.21,3.55,14.71,3.28,20.15,1.32c0.61-0.22,1.17,0.43,0.84,0.99
				c-2.77,4.73-6.97,8.98-7.87,11.47c-0.17,0.47-0.78,0.58-1.13,0.24c-0.72-0.7-1.28-1.31-1.73-1.85c-0.47-0.56-1.38-0.09-1.2,0.62
				c0.01,0.02,0.01,0.04,0.02,0.07c0.16,0.65-0.6,1.11-1.11,0.7c-3.04-2.46-8.82-7.79-8.88-12.89
				C38.94,74.86,39.5,74.36,39.87,74.67z"/>
			<path class="st10" d="M17.14,29.59c-1.02,1.4-2.8,3.64-4.56,4.94c-0.7,0.52-0.26,1.64,0.6,1.5c0.02,0,0.04-0.01,0.07-0.01
				c0.68-0.11,1.2,0.58,0.9,1.2c-1.74,3.54-3.75,6.07-5.11,7.55C8.5,45.35,9,46.27,9.77,46.16c0.45-0.06,0.88-0.14,1.25-0.22
				c0.68-0.15,1.22,0.57,0.91,1.2C8.74,53.6,6.45,57.55,4.48,59.51c-0.31,0.31-0.35,0.8-0.05,1.12c1.81,2.02,0.96,10.05-0.32,11.8
				L28.79,50c0.15-0.23-5.64-8.39-5.74-8.64l-4.46-11.57C18.35,29.17,17.53,29.06,17.14,29.59z"/>
			<path class="st10" d="M82.52,28.08c1.02,1.4,2.8,3.64,4.56,4.94c0.7,0.52,0.26,1.64-0.6,1.5c-0.02,0-0.04-0.01-0.07-0.01
				c-0.68-0.11-1.2,0.58-0.9,1.2c1.74,3.54,3.75,6.07,5.11,7.55c0.53,0.58,0.03,1.5-0.74,1.39c-0.45-0.06-0.88-0.14-1.25-0.22
				c-0.68-0.15-1.22,0.57-0.91,1.2c3.19,6.46,5.48,10.42,7.45,12.37c0.31,0.31,0.35,0.8,0.05,1.12c-1.81,2.02-0.96,11.56,0.32,13.32
				l-23.3-21.94c-0.15-0.23,4.27-10.4,4.36-10.65l4.46-11.57C81.31,27.66,82.13,27.54,82.52,28.08z"/>
			<path class="st14" d="M29.2,27.46l-2.81,1.55c-2.62,1.45-5.93,0.52-7.35-2.06l-1.2-7.61c-2.12-8.75,3.35-9.23,7.76-4.28
				l5.79,5.08C32.81,22.72,31.82,26.01,29.2,27.46z"/>
			<path class="st10" d="M64.83,34.43l4.63,2.55c4.32,2.38,9.77,0.86,12.11-3.39l1.98-12.54c3.5-14.41-5.53-15.21-12.79-7.05
				l-9.54,8.37C58.89,26.62,60.51,32.05,64.83,34.43z"/>
			<path class="st14" d="M69.76,27.46l2.81,1.55c2.62,1.45,5.93,0.52,7.35-2.06l1.2-7.61c2.12-8.75-3.35-9.23-7.76-4.28l-5.79,5.08
				C66.16,22.72,67.14,26.01,69.76,27.46z"/>
		</g>
	</g>
</g>
<g>
	<g>
		<path id="XMLID_3_" class="st15" d="M20.65,222.19h-76c-6.6,0-12-5.4-12-12v-76c0-6.6,5.4-12,12-12h76c6.6,0,12,5.4,12,12v76
			C32.65,216.79,27.25,222.19,20.65,222.19z"/>
	</g>
	<g>
		<defs>
			<path id="SVGID_9_" d="M20.65,222.19h-76c-6.6,0-12-5.4-12-12v-76c0-6.6,5.4-12,12-12h76c6.6,0,12,5.4,12,12v76
				C32.65,216.79,27.25,222.19,20.65,222.19z"/>
		</defs>
		<clipPath id="SVGID_10_">
			<use xlink:href="#SVGID_9_"  style="overflow:visible;"/>
		</clipPath>
		<line class="st16" x1="-77.04" y1="57.14" x2="-77.04" y2="165.27"/>
	</g>
	<g>
		<g>
			<path class="st11" d="M-59.27,185.52l5.38,4.18c4.95,3.85,11.01,2.93,13.46-2.03l14.56-36.28c2.43-4.9,1.21-11.41-2.7-14.45
				l-4.25-3.31c-3.91-3.04-9.1-1.52-11.53,3.39l-19.46,32.48C-66.27,174.46-64.22,181.67-59.27,185.52z"/>
			<path class="st11" d="M24.57,185.52l-5.38,4.18c-4.95,3.85-11.01,2.93-13.46-2.03l-14.56-36.28c-2.43-4.9-1.21-11.41,2.7-14.45
				l4.25-3.31c3.91-3.04,9.1-1.52,11.53,3.39l19.46,32.48C31.56,174.46,29.52,181.67,24.57,185.52z"/>
		</g>
		<path class="st17" d="M-1.6,194.24h-31.5c-6.27,0-11.41-5.27-11.41-11.7l6.79-38.26c0-5.92,3.85-10.77,8.56-10.77h23.63
			c4.71,0,8.56,4.85,8.56,10.77l6.79,38.26C9.81,188.97,4.67,194.24-1.6,194.24z"/>
		<path class="st17" d="M-48.69,222.19c-0.95-13.55,10.79-36.37,10.43-39.8H3.94c1.92,9.54,12.86,26.01,12.11,39.8H-48.69z"/>
		<path class="st4" d="M-43.27,187.81c0-13.77,21.75-16.84,24.85-34.64c0.43-2.46,1.64-2.35,2.03,0.18
			c2.17,14.19,22.71,21.04,24.83,33.74c0.09,0.54,0.05,1.11-0.14,1.62c-4.78,13.02-46.36,13.39-51.57-0.44"/>
		<path class="st11" d="M-12.5,192.08h-8.51c-2.05,0-3.72-1.67-3.72-3.72v-0.19c0-2.04,1.67-3.72,3.72-3.72h8.51
			c2.05,0,3.72,1.67,3.72,3.72v0.19C-8.78,190.41-10.46,192.08-12.5,192.08z"/>
		<path class="st11" d="M-29.3,163.81l-0.61-0.18c-0.97-0.29-1.52-1.34-1.24-2.33l1.25-4.37c0.28-0.99,1.3-1.56,2.27-1.27l0.61,0.18
			c0.97,0.29,1.52,1.34,1.24,2.33l-1.25,4.37C-27.31,163.53-28.33,164.1-29.3,163.81z"/>
		<path class="st11" d="M-4.22,163.81l0.61-0.18c0.97-0.29,1.52-1.34,1.24-2.33l-1.25-4.37c-0.28-0.99-1.3-1.56-2.27-1.27
			l-0.61,0.18c-0.97,0.29-1.52,1.34-1.24,2.33l1.25,4.37C-6.21,163.53-5.18,164.1-4.22,163.81z"/>
		<path class="st11" d="M-29.3,163.81l-0.61-0.18c-0.97-0.29-1.52-1.34-1.24-2.33l1.25-4.37c0.28-0.99,1.3-1.56,2.27-1.27l0.61,0.18
			c0.97,0.29,1.52,1.34,1.24,2.33l-1.25,4.37C-27.31,163.53-28.33,164.1-29.3,163.81z"/>
		<path class="st18" d="M-24.25,196.18h14.98C-9.27,204.12-24.25,203.65-24.25,196.18z"/>
		<line class="st19" x1="-16.76" y1="196.18" x2="-16.76" y2="199.2"/>
	</g>
	<path class="st20" d="M-16.76,194.75c0,1.58-2.24,2.86-5.01,2.86s-5.01-1.28-5.01-2.86"/>
	<path class="st20" d="M-6.74,194.75c0,1.58-2.24,2.86-5.01,2.86s-5.01-1.28-5.01-2.86"/>
</g>
<g>
	<g>
		<g>
			<path id="XMLID_1_" class="st21" d="M-36.62,80h-76c-6.6,0-12-5.4-12-12V-8c0-6.6,5.4-12,12-12h76c6.6,0,12,5.4,12,12v76
				C-24.62,74.6-30.02,80-36.62,80z"/>
		</g>
		<g>
			<defs>
				<path id="SVGID_11_" d="M-36.62,80h-76c-6.6,0-12-5.4-12-12V-8c0-6.6,5.4-12,12-12h76c6.6,0,12,5.4,12,12v76
					C-24.62,74.6-30.02,80-36.62,80z"/>
			</defs>
			<clipPath id="SVGID_12_">
				<use xlink:href="#SVGID_11_"  style="overflow:visible;"/>
			</clipPath>
			<g class="st22">
				<line class="st23" x1="-75.04" y1="132.24" x2="27.63" y2="29.57"/>
				<line class="st23" x1="-86.35" y1="120.93" x2="16.32" y2="18.26"/>
				<line class="st23" x1="-97.67" y1="109.62" x2="5" y2="6.95"/>
				<line class="st23" x1="-108.98" y1="98.3" x2="-6.31" y2="-4.37"/>
				<line class="st23" x1="-120.29" y1="86.99" x2="-17.62" y2="-15.68"/>
				<line class="st23" x1="-131.61" y1="75.67" x2="-28.94" y2="-26.99"/>
				<line class="st23" x1="-142.92" y1="64.36" x2="-40.25" y2="-38.31"/>
				<line class="st23" x1="-154.23" y1="53.05" x2="-51.57" y2="-49.62"/>
				<line class="st23" x1="-165.55" y1="41.73" x2="-62.88" y2="-60.94"/>
				<line class="st24" x1="-176.86" y1="30.42" x2="-74.19" y2="-72.25"/>
			</g>
		</g>
		<g>
			<defs>
				<path id="SVGID_13_" d="M-36.62,80h-76c-6.6,0-12-5.4-12-12V-8c0-6.6,5.4-12,12-12h76c6.6,0,12,5.4,12,12v76
					C-24.62,74.6-30.02,80-36.62,80z"/>
			</defs>
			<clipPath id="SVGID_14_">
				<use xlink:href="#SVGID_13_"  style="overflow:visible;"/>
			</clipPath>
			<g class="st25">
				<path class="st26" d="M-65.18,66.11H-83.2c-15.23,0-27.69-12.46-27.69-27.69l2.98-21.26c0-15.23,11.45-27.69,25.44-27.69h16.56
					c13.99,0,25.44,12.46,25.44,27.69l2.98,21.26C-37.49,53.65-49.95,66.11-65.18,66.11z"/>
				<path class="st26" d="M-110.9,46.07"/>
				<path class="st26" d="M-126.75,124.5c-5.83-17.12,20.47-62.37,17.55-83.78h69.99c1.04,35.15,25.24,58.74,20.58,83.78"/>
				<path class="st26" d="M-76.71,10.16c-5.09,19.94-28.05,28-16.59,41.83c0.5,0.6,0.8,1.34,0.76,2.12
					c-1.41,24.32-25.32,53.34-22.44,68.02c0.27,1.39,1.53,2.37,2.95,2.37h77.4c1.68,0,3.07-1.37,3.01-3.05
					c-0.75-20.14-19.88-49.97-21.63-66.83c-0.07-0.66,0.13-1.32,0.49-1.88c10.19-16.22-14.56-22.63-18.92-42.72
					C-72.15,7.9-76.17,8.06-76.71,10.16z"/>
				<g>
					<path class="st26" d="M-87.38,23.35h-1.49c-0.95,0-1.73-0.78-1.73-1.73v-6.11c0-0.95,0.78-1.73,1.73-1.73h1.49
						c0.95,0,1.73,0.78,1.73,1.73v6.11C-85.65,22.57-86.43,23.35-87.38,23.35z"/>
					<path class="st26" d="M-59.52,23.35h-1.49c-0.95,0-1.73-0.78-1.73-1.73v-6.11c0-0.95,0.78-1.73,1.73-1.73h1.49
						c0.95,0,1.73,0.78,1.73,1.73v6.11C-57.79,22.57-58.57,23.35-59.52,23.35z"/>
				</g>
				<path class="st26" d="M-69.16,36.99h-8.18c-1.01,0-1.83-0.82-1.83-1.83v-3.22c0-1.01,0.82-1.83,1.83-1.83h8.18
					c1.01,0,1.83,0.82,1.83,1.83v3.22C-67.33,36.17-68.15,36.99-69.16,36.99z"/>
				<g>
					<path class="st26" d="M-73.25,43.94c0,1.46-2.45,4.27-5.48,4.27c-3.02,0-5.48-2.81-5.48-4.27"/>
					<path class="st26" d="M-62.3,43.94c0,1.46-2.45,4.27-5.48,4.27c-3.02,0-5.48-2.81-5.48-4.27"/>
				</g>
				<g>
					<path class="st26" d="M-87.95,5.09l-7.25,5.09c-4.1,2.88-9.38,2.5-11.73-0.84l-5.28-11.88c-2.35-3.35-1.53-8,1.81-10.35
						l5.91-4.15c3.35-2.35,8-1.53,10.35,1.81l9.38,9C-82.41-2.88-83.84,2.21-87.95,5.09z"/>
					<path class="st26" d="M-92.83,1.04l-5.12,3.59c-2.9,2.03-6.62,1.77-8.28-0.59l-3.73-8.38c-1.66-2.36-1.08-5.65,1.28-7.31
						l4.17-2.93c2.36-1.66,5.65-1.08,7.31,1.28l6.62,6.35C-88.92-4.59-89.93-1-92.83,1.04z"/>
					<path class="st26" d="M-102.38,0.38l-9.84-2.92c-2.35-3.35-1.53-8,1.81-10.35l5.91-4.15c3.35-2.35,8-1.53,10.35,1.81
						l-0.6,10.24C-95.02-0.85-98.2,1.26-102.38,0.38z"/>
				</g>
				<g>
					<path class="st26" d="M-60.56,5.25l7.25,5.09c4.1,2.88,9.38,2.5,11.73-0.84l5.28-11.88c2.35-3.35,1.53-8-1.81-10.35l-5.91-4.15
						c-3.35-2.35-8-1.53-10.35,1.81l-9.38,9C-66.1-2.73-64.66,2.37-60.56,5.25z"/>
					<path class="st26" d="M-55.57,1.04l5.12,3.59c2.9,2.03,6.62,1.77,8.28-0.59l3.73-8.38c1.66-2.36,1.08-5.65-1.28-7.31
						l-4.17-2.93c-2.36-1.66-5.65-1.08-7.31,1.28l-6.62,6.35C-59.48-4.59-58.46-1-55.57,1.04z"/>
					<path class="st26" d="M-46.13,0.54l9.84-2.92c2.35-3.35,1.53-8-1.81-10.35l-5.91-4.15c-3.35-2.35-8-1.53-10.35,1.81l0.6,10.24
						C-53.49-0.69-50.31,1.42-46.13,0.54z"/>
				</g>
			</g>
		</g>
		<g>
			<defs>
				<path id="SVGID_15_" d="M-36.62,80h-76c-6.6,0-12-5.4-12-12V-8c0-6.6,5.4-12,12-12h76c6.6,0,12,5.4,12,12v76
					C-24.62,74.6-30.02,80-36.62,80z"/>
			</defs>
			<clipPath id="SVGID_16_">
				<use xlink:href="#SVGID_15_"  style="overflow:visible;"/>
			</clipPath>
			<line class="st27" x1="-134.3" y1="-85.05" x2="-134.3" y2="23.08"/>
		</g>
	</g>
	<g>
		<text transform="matrix(1 0 0 1 -81.8415 34.2902)" style="font-family:'Chewy-Regular'; font-size:39.5207px;">?</text>
		
			<text transform="matrix(0.978 -0.2084 0.2084 0.978 -89.0234 41.9032)" style="font-family:'Chewy-Regular'; font-size:28.4712px;">?</text>
		
			<text transform="matrix(0.9781 0.2082 -0.2082 0.9781 -68.5056 38.7549)" style="font-family:'Chewy-Regular'; font-size:20.4472px;">?</text>
	</g>
</g>
</svg>
