<?xml version="1.0" encoding="utf-8"?>
<!-- Generator: Adobe Illustrator 23.0.1, SVG Export Plug-In . SVG Version: 6.00 Build 0)  -->
<svg version="1.1" id="Layer_1" xmlns="http://www.w3.org/2000/svg" xmlns:xlink="http://www.w3.org/1999/xlink" x="0px" y="0px"
	 viewBox="0 0 100 100" style="enable-background:new 0 0 100 100;" xml:space="preserve">
<style type="text/css">
	.st0{fill:#EFA17F;}
	.st1{clip-path:url(#SVGID_2_);fill:none;stroke:#F9DE6A;stroke-width:10;stroke-miterlimit:10;}
	.st2{clip-path:url(#SVGID_4_);}
	.st3{fill:#FFE7B6;}
	.st4{fill:#110A00;}
	.st5{fill:none;stroke:#16110B;stroke-linecap:round;stroke-miterlimit:10;}
	.st6{fill:#EFCA8E;}
	.st7{fill:#F9BB78;}
</style>
<g>
	<g>
		<path id="XMLID_4_" class="st0" d="M88,100H12c-6.6,0-12-5.4-12-12V12C0,5.4,5.4,0,12,0h76c6.6,0,12,5.4,12,12v76
			C100,94.6,94.6,100,88,100z"/>
	</g>
	<g>
		<g>
			<g>
				<defs>
					<path id="SVGID_1_" d="M88,100H12c-6.6,0-12-5.4-12-12V12C0,5.4,5.4,0,12,0h76c6.6,0,12,5.4,12,12v76C100,94.6,94.6,100,88,100
						z"/>
				</defs>
				<clipPath id="SVGID_2_">
					<use xlink:href="#SVGID_1_"  style="overflow:visible;"/>
				</clipPath>
				<line class="st1" x1="-9.69" y1="-65.05" x2="-9.69" y2="43.08"/>
			</g>
		</g>
	</g>
	<g>
		<g>
			<g>
				<defs>
					<path id="SVGID_3_" d="M88,100H12c-6.6,0-12-5.4-12-12V12C0,5.4,5.4,0,12,0h76c6.6,0,12,5.4,12,12v76C100,94.6,94.6,100,88,100
						z"/>
				</defs>
				<clipPath id="SVGID_4_">
					<use xlink:href="#SVGID_3_"  style="overflow:visible;"/>
				</clipPath>
				<g class="st2">
					<path class="st3" d="M34.13,34.43l-4.63,2.55c-4.32,2.38-9.77,0.86-12.11-3.39l-1.98-12.54C11.91,6.64,20.94,5.84,28.2,14
						l9.54,8.37C40.08,26.62,38.46,32.05,34.13,34.43z"/>
					<ellipse class="st3" cx="50.01" cy="48.15" rx="36.17" ry="30.78"/>
					<path class="st3" d="M102.25,94.32c0,21.97-23.41,30.05-52.3,30.05s-52.3-8.08-52.3-30.05S21.07,44.8,49.95,44.8
						S102.25,72.34,102.25,94.32z"/>
					<path class="st4" d="M36.63,54.85h-0.45c-1.46,0-2.66-1.2-2.66-2.66V48.8c0-1.46,1.2-2.66,2.66-2.66h0.45
						c1.46,0,2.66,1.2,2.66,2.66v3.39C39.29,53.65,38.09,54.85,36.63,54.85z"/>
					<path class="st4" d="M63.73,54.85h-0.45c-1.46,0-2.66-1.2-2.66-2.66V48.8c0-1.46,1.2-2.66,2.66-2.66h0.45
						c1.46,0,2.66,1.2,2.66,2.66v3.39C66.39,53.65,65.19,54.85,63.73,54.85z"/>
					<path class="st4" d="M51.02,59.74h-2.13c-1.11,0-2.01-0.91-2.01-2.01v-0.34c0-1.11,0.91-2.01,2.01-2.01h2.13
						c1.11,0,2.01,0.91,2.01,2.01v0.34C53.03,58.83,52.13,59.74,51.02,59.74z"/>
					<g>
						<path class="st5" d="M49.95,65.65c0,1.29-1.12,2.34-2.5,2.34s-2.5-1.05-2.5-2.34"/>
						<path class="st5" d="M54.96,65.65c0,1.29-1.12,2.34-2.5,2.34s-2.5-1.05-2.5-2.34"/>
					</g>
					<path class="st6" d="M39.87,74.67c4.21,3.55,14.71,3.28,20.15,1.32c0.61-0.22,1.17,0.43,0.84,0.99
						c-2.77,4.73-6.97,8.98-7.87,11.47c-0.17,0.47-0.78,0.58-1.13,0.24c-0.72-0.7-1.28-1.31-1.73-1.85
						c-0.47-0.56-1.38-0.09-1.2,0.62c0.01,0.02,0.01,0.04,0.02,0.07c0.16,0.65-0.6,1.11-1.11,0.7c-3.04-2.46-8.82-7.79-8.88-12.89
						C38.94,74.86,39.5,74.36,39.87,74.67z"/>
					<path class="st3" d="M17.14,29.59c-1.02,1.4-2.8,3.64-4.56,4.94c-0.7,0.52-0.26,1.64,0.6,1.5c0.02,0,0.04-0.01,0.07-0.01
						c0.68-0.11,1.2,0.58,0.9,1.2c-1.74,3.54-3.75,6.07-5.11,7.55C8.5,45.35,9,46.27,9.77,46.16c0.45-0.06,0.88-0.14,1.25-0.22
						c0.68-0.15,1.22,0.57,0.91,1.2C8.74,53.6,6.45,57.55,4.48,59.51c-0.31,0.31-0.35,0.8-0.05,1.12c1.81,2.02,0.96,10.05-0.32,11.8
						L28.79,50c0.15-0.23-5.64-8.39-5.74-8.64l-4.46-11.57C18.35,29.17,17.53,29.06,17.14,29.59z"/>
					<path class="st3" d="M82.52,28.08c1.02,1.4,2.8,3.64,4.56,4.94c0.7,0.52,0.26,1.64-0.6,1.5c-0.02,0-0.04-0.01-0.07-0.01
						c-0.68-0.11-1.2,0.58-0.9,1.2c1.74,3.54,3.75,6.07,5.11,7.55c0.53,0.58,0.03,1.5-0.74,1.39c-0.45-0.06-0.88-0.14-1.25-0.22
						c-0.68-0.15-1.22,0.57-0.91,1.2c3.19,6.46,5.48,10.42,7.45,12.37c0.31,0.31,0.35,0.8,0.05,1.12
						c-1.81,2.02-0.96,11.56,0.32,13.32L72.24,50.5c-0.15-0.23,4.27-10.4,4.36-10.65l4.46-11.57
						C81.31,27.66,82.13,27.54,82.52,28.08z"/>
					<path class="st7" d="M29.2,27.46l-2.81,1.55c-2.62,1.45-5.93,0.52-7.35-2.06l-1.2-7.61c-2.12-8.75,3.35-9.23,7.76-4.28
						l5.79,5.08C32.81,22.72,31.82,26.01,29.2,27.46z"/>
					<path class="st3" d="M64.83,34.43l4.63,2.55c4.32,2.38,9.77,0.86,12.11-3.39l1.98-12.54C87.05,6.64,78.02,5.84,70.76,14
						l-9.54,8.37C58.89,26.62,60.51,32.05,64.83,34.43z"/>
					<path class="st7" d="M69.76,27.46l2.81,1.55c2.62,1.45,5.93,0.52,7.35-2.06l1.2-7.61c2.12-8.75-3.35-9.23-7.76-4.28l-5.79,5.08
						C66.16,22.72,67.14,26.01,69.76,27.46z"/>
				</g>
			</g>
		</g>
	</g>
</g>
</svg>
