<?xml version="1.0" encoding="utf-8"?>
<!-- Generator: Adobe Illustrator 23.0.1, SVG Export Plug-In . SVG Version: 6.00 Build 0)  -->
<svg version="1.1" id="Layer_1" xmlns="http://www.w3.org/2000/svg" xmlns:xlink="http://www.w3.org/1999/xlink" x="0px" y="0px"
	 viewBox="0 0 100 100" style="enable-background:new 0 0 100 100;" xml:space="preserve">
<style type="text/css">
	.st0{clip-path:url(#XMLID_4_);}
	.st1{fill:none;stroke:#DBC8AC;stroke-width:8;stroke-miterlimit:10;}
	.st2{fill:none;stroke:#DBC8AC;stroke-width:10;stroke-miterlimit:10;}
	.st3{fill:#F2AF26;}
	.st4{clip-path:url(#XMLID_4_);fill:none;stroke:#F9DE6A;stroke-width:10;stroke-miterlimit:10;}
	.st5{clip-path:url(#XMLID_5_);fill:none;stroke:#F9DE6A;stroke-width:10;stroke-miterlimit:10;}
	.st6{clip-path:url(#XMLID_5_);}
	.st7{fill:#FEC661;}
	.st8{fill:#F7EFE0;}
	.st9{fill:none;stroke:#000000;stroke-miterlimit:10;}
	.st10{fill:#F99E4B;}
	.st11{font-family:'Chewy-Regular';}
	.st12{font-size:39.5207px;}
	.st13{font-size:28.4724px;}
	.st14{font-size:20.4472px;}
</style>
<g>
	<defs>
		<path id="XMLID_1_" d="M88,100.5H12c-6.6,0-12-5.4-12-12v-76c0-6.6,5.4-12,12-12h76c6.6,0,12,5.4,12,12v76
			C100,95.1,94.6,100.5,88,100.5z"/>
	</defs>
	<use xlink:href="#XMLID_1_"  style="overflow:visible;fill:#ECE2D1;"/>
	<clipPath id="XMLID_4_">
		<use xlink:href="#XMLID_1_"  style="overflow:visible;"/>
	</clipPath>
	<g class="st0">
		<line class="st1" x1="49.58" y1="152.75" x2="152.25" y2="50.08"/>
		<line class="st1" x1="38.26" y1="141.43" x2="140.93" y2="38.76"/>
		<line class="st1" x1="26.95" y1="130.12" x2="129.62" y2="27.45"/>
		<line class="st1" x1="15.64" y1="118.8" x2="118.3" y2="16.14"/>
		<line class="st1" x1="4.32" y1="107.49" x2="106.99" y2="4.82"/>
		<line class="st1" x1="-6.99" y1="96.18" x2="95.68" y2="-6.49"/>
		<line class="st1" x1="-18.3" y1="84.86" x2="84.36" y2="-17.8"/>
		<line class="st1" x1="-29.62" y1="73.55" x2="73.05" y2="-29.12"/>
		<line class="st1" x1="-40.93" y1="62.24" x2="61.74" y2="-40.43"/>
		<line class="st2" x1="-52.25" y1="50.92" x2="50.42" y2="-51.75"/>
	</g>
	<g class="st0">
		<path class="st3" d="M59.43,86.61H41.41c-15.23,0-27.69-12.46-27.69-27.69l2.98-21.26c0-15.23,11.45-27.69,25.44-27.69H58.7
			c13.99,0,25.44,12.46,25.44,27.69l2.98,21.26C87.12,74.15,74.66,86.61,59.43,86.61z"/>
		<path class="st3" d="M13.72,66.57"/>
		<path class="st3" d="M-2.13,145c-5.83-17.12,20.47-62.37,17.55-83.78h69.99C86.45,96.38,110.66,119.96,106,145"/>
		<path class="st3" d="M47.91,30.67c-5.09,19.94-28.05,28-16.59,41.83c0.5,0.6,0.8,1.34,0.76,2.12
			c-1.41,24.32-25.32,53.34-22.44,68.02c0.27,1.39,1.53,2.37,2.95,2.37h77.4c1.68,0,3.07-1.37,3.01-3.05
			c-0.75-20.14-19.88-49.97-21.63-66.83c-0.07-0.66,0.13-1.32,0.49-1.88c10.19-16.22-14.56-22.63-18.92-42.72
			C52.47,28.4,48.44,28.56,47.91,30.67z"/>
		<g>
			<path class="st3" d="M37.24,43.86h-1.49c-0.95,0-1.73-0.78-1.73-1.73v-6.11c0-0.95,0.78-1.73,1.73-1.73h1.49
				c0.95,0,1.73,0.78,1.73,1.73v6.11C38.97,43.08,38.19,43.86,37.24,43.86z"/>
			<path class="st3" d="M65.1,43.86H63.6c-0.95,0-1.73-0.78-1.73-1.73v-6.11c0-0.95,0.78-1.73,1.73-1.73h1.49
				c0.95,0,1.73,0.78,1.73,1.73v6.11C66.83,43.08,66.05,43.86,65.1,43.86z"/>
		</g>
		<path class="st3" d="M55.45,57.49h-8.18c-1.01,0-1.83-0.82-1.83-1.83v-3.22c0-1.01,0.82-1.83,1.83-1.83h8.18
			c1.01,0,1.83,0.82,1.83,1.83v3.22C57.29,56.67,56.46,57.49,55.45,57.49z"/>
		<g>
			<path class="st3" d="M51.36,64.44c0,1.46-2.45,4.27-5.48,4.27s-5.48-2.81-5.48-4.27"/>
			<path class="st3" d="M62.31,64.44c0,1.46-2.45,4.27-5.48,4.27s-5.48-2.81-5.48-4.27"/>
		</g>
		<g>
			<path class="st3" d="M36.67,25.59l-7.25,5.09c-4.1,2.88-9.38,2.5-11.73-0.84L12.4,17.97c-2.35-3.35-1.53-8,1.81-10.35l5.91-4.15
				c3.35-2.35,8-1.53,10.35,1.81l9.38,9C42.21,17.62,40.77,22.71,36.67,25.59z"/>
			<path class="st3" d="M31.79,21.54l-5.12,3.59c-2.9,2.03-6.62,1.77-8.28-0.59l-3.73-8.38c-1.66-2.36-1.08-5.65,1.28-7.31
				l4.17-2.93c2.36-1.66,5.65-1.08,7.31,1.28l6.62,6.35C35.7,15.91,34.68,19.51,31.79,21.54z"/>
			<path class="st3" d="M22.24,20.88l-9.84-2.92c-2.35-3.35-1.53-8,1.81-10.35l5.91-4.15c3.35-2.35,8-1.53,10.35,1.81l-0.6,10.24
				C29.6,19.66,26.42,21.77,22.24,20.88z"/>
		</g>
		<g>
			<path class="st3" d="M64.06,25.75l7.25,5.09c4.1,2.88,9.38,2.5,11.73-0.84l5.28-11.88c2.35-3.35,1.53-8-1.81-10.35L80.6,3.62
				c-3.35-2.35-8-1.53-10.35,1.81l-9.38,9C58.52,17.77,59.95,22.87,64.06,25.75z"/>
			<path class="st3" d="M69.05,21.54l5.12,3.59c2.9,2.03,6.62,1.77,8.28-0.59l3.73-8.38c1.66-2.36,1.08-5.65-1.28-7.31l-4.17-2.93
				c-2.36-1.66-5.65-1.08-7.31,1.28l-6.62,6.35C65.14,15.91,66.15,19.51,69.05,21.54z"/>
			<path class="st3" d="M78.49,21.04l9.84-2.92c2.35-3.35,1.53-8-1.81-10.35L80.6,3.62c-3.35-2.35-8-1.53-10.35,1.81l0.6,10.24
				C71.13,19.81,74.31,21.92,78.49,21.04z"/>
		</g>
	</g>
	<line class="st4" x1="-9.69" y1="-64.55" x2="-9.69" y2="43.58"/>
</g>
<g>
	<defs>
		<path id="XMLID_2_" d="M226.03,80h-76c-6.6,0-12-5.4-12-12V-8c0-6.6,5.4-12,12-12h76c6.6,0,12,5.4,12,12v76
			C238.03,74.6,232.63,80,226.03,80z"/>
	</defs>
	<use xlink:href="#XMLID_2_"  style="overflow:visible;fill:#ECE2D1;"/>
	<clipPath id="XMLID_5_">
		<use xlink:href="#XMLID_2_"  style="overflow:visible;"/>
	</clipPath>
	<line class="st5" x1="128.34" y1="-85.05" x2="128.34" y2="23.08"/>
	<g class="st6">
		<path class="st7" d="M196.68,68.57h-18.1c-15.29,0-27.8-12.51-27.8-27.8l2.99-21.35c0-15.29,11.49-27.8,25.54-27.8h16.63
			c14.05,0,25.54,12.51,25.54,27.8l2.99,21.35C224.48,56.06,211.97,68.57,196.68,68.57z"/>
		<path d="M150.79,48.45"/>
		<path class="st7" d="M134.88,127.19c-5.85-17.18,20.55-62.62,17.62-84.11h70.27c1.04,35.29,25.34,58.97,20.66,84.11"/>
		<path class="st8" d="M185.11,12.4c-5.11,20.02-28.16,28.11-16.66,41.99c0.5,0.6,0.8,1.35,0.76,2.13
			c-1.42,24.41-25.42,53.56-22.53,68.29c0.27,1.4,1.54,2.38,2.96,2.38h77.71c1.68,0,3.08-1.38,3.02-3.06
			c-0.75-20.22-19.96-50.16-21.71-67.09c-0.07-0.67,0.13-1.32,0.49-1.89c10.23-16.29-14.62-22.72-18.99-42.89
			C189.69,10.13,185.65,10.29,185.11,12.4z"/>
		<g>
			<path d="M174.4,25.65h-1.51c-0.95,0-1.73-0.78-1.73-1.73v-6.14c0-0.95,0.78-1.73,1.73-1.73h1.51c0.95,0,1.73,0.78,1.73,1.73v6.14
				C176.14,24.87,175.36,25.65,174.4,25.65z"/>
			<path d="M202.38,25.65h-1.51c-0.95,0-1.73-0.78-1.73-1.73v-6.14c0-0.95,0.78-1.73,1.73-1.73h1.51c0.95,0,1.73,0.78,1.73,1.73
				v6.14C204.11,24.87,203.33,25.65,202.38,25.65z"/>
		</g>
		<path d="M192.7,39.34h-8.23c-1.01,0-1.83-0.82-1.83-1.83v-3.25c0-1.01,0.82-1.83,1.83-1.83h8.23c1.01,0,1.83,0.82,1.83,1.83v3.25
			C194.53,38.51,193.7,39.34,192.7,39.34z"/>
		<g>
			<path class="st9" d="M188.58,46.31c0,1.47-2.46,4.28-5.5,4.28s-5.5-2.82-5.5-4.28"/>
			<path class="st9" d="M199.58,46.31c0,1.47-2.46,4.28-5.5,4.28s-5.5-2.82-5.5-4.28"/>
		</g>
		<g>
			<path class="st7" d="M173.83,7.31l-7.28,5.11c-4.12,2.89-9.42,2.51-11.78-0.85l-5.3-11.93c-2.36-3.36-1.54-8.04,1.82-10.39
				l5.94-4.17c3.36-2.36,8.04-1.54,10.39,1.82l9.42,9.04C179.39-0.7,177.95,4.42,173.83,7.31z"/>
			<path class="st10" d="M168.93,3.24l-5.14,3.61c-2.91,2.04-6.65,1.77-8.31-0.6l-3.74-8.42c-1.66-2.37-1.09-5.67,1.28-7.33
				l4.19-2.94c2.37-1.66,5.67-1.09,7.33,1.28l6.65,6.38C172.85-2.41,171.84,1.2,168.93,3.24z"/>
			<path class="st7" d="M159.34,2.58l-9.88-2.93c-2.36-3.36-1.54-8.04,1.82-10.39l5.94-4.17c3.36-2.36,8.04-1.54,10.39,1.82
				l-0.6,10.28C166.73,1.35,163.54,3.47,159.34,2.58z"/>
		</g>
		<g>
			<path class="st7" d="M201.33,7.47l7.28,5.11c4.12,2.89,9.42,2.51,11.78-0.85l5.3-11.93c2.36-3.36,1.54-8.04-1.82-10.39
				l-5.94-4.17c-3.36-2.36-8.04-1.54-10.39,1.82l-9.42,9.04C195.76-0.54,197.2,4.58,201.33,7.47z"/>
			<path class="st10" d="M206.34,3.24l5.14,3.61c2.91,2.04,6.65,1.77,8.31-0.6l3.74-8.42c1.66-2.37,1.09-5.67-1.28-7.33l-4.19-2.94
				c-2.37-1.66-5.67-1.09-7.33,1.28l-6.65,6.38C202.41-2.41,203.43,1.2,206.34,3.24z"/>
			<path class="st7" d="M215.81,2.74l9.88-2.93c2.36-3.36,1.54-8.04-1.82-10.39l-5.94-4.17c-3.36-2.36-8.04-1.54-10.39,1.82
				l0.6,10.28C208.42,1.51,211.62,3.62,215.81,2.74z"/>
		</g>
	</g>
</g>
<g>
	<text transform="matrix(1 0 0 1 42.7742 54.793)" class="st11 st12">?</text>
	<text transform="matrix(0.978 -0.2084 0.2084 0.978 35.592 62.4062)" class="st11 st13">?</text>
	<text transform="matrix(0.9781 0.2082 -0.2082 0.9781 56.11 59.2577)" class="st11 st14">?</text>
</g>
</svg>
