<?xml version="1.0" encoding="utf-8"?>
<!-- Generator: Adobe Illustrator 23.0.1, SVG Export Plug-In . SVG Version: 6.00 Build 0)  -->
<svg version="1.1" id="Layer_1" xmlns="http://www.w3.org/2000/svg" xmlns:xlink="http://www.w3.org/1999/xlink" x="0px" y="0px"
	 viewBox="0 0 100 100" style="enable-background:new 0 0 100 100;" xml:space="preserve">
<style type="text/css">
	.st0{fill:#ECE2D1;}
	.st1{clip-path:url(#SVGID_2_);}
	.st2{fill:none;stroke:#DBC8AC;stroke-width:8;stroke-miterlimit:10;}
	.st3{fill:none;stroke:#DBC8AC;stroke-width:10;stroke-miterlimit:10;}
	.st4{clip-path:url(#SVGID_4_);}
	.st5{fill:#F2AF26;}
	.st6{clip-path:url(#SVGID_6_);fill:none;stroke:#F9DE6A;stroke-width:10;stroke-miterlimit:10;}
	.st7{font-family:'Chewy-Regular';}
	.st8{font-size:39.5207px;}
	.st9{font-size:28.4712px;}
	.st10{font-size:20.4472px;}
</style>
<g>
	<g>
		<path id="XMLID_1_" class="st0" d="M88,100.5H12c-6.6,0-12-5.4-12-12v-76c0-6.6,5.4-12,12-12h76c6.6,0,12,5.4,12,12v76
			C100,95.1,94.6,100.5,88,100.5z"/>
	</g>
	<g>
		<defs>
			<path id="SVGID_1_" d="M88,100.5H12c-6.6,0-12-5.4-12-12v-76c0-6.6,5.4-12,12-12h76c6.6,0,12,5.4,12,12v76
				C100,95.1,94.6,100.5,88,100.5z"/>
		</defs>
		<clipPath id="SVGID_2_">
			<use xlink:href="#SVGID_1_"  style="overflow:visible;"/>
		</clipPath>
		<g class="st1">
			<line class="st2" x1="49.58" y1="152.75" x2="152.25" y2="50.08"/>
			<line class="st2" x1="38.26" y1="141.43" x2="140.93" y2="38.76"/>
			<line class="st2" x1="26.95" y1="130.12" x2="129.62" y2="27.45"/>
			<line class="st2" x1="15.64" y1="118.8" x2="118.3" y2="16.14"/>
			<line class="st2" x1="4.32" y1="107.49" x2="106.99" y2="4.82"/>
			<line class="st2" x1="-6.99" y1="96.18" x2="95.68" y2="-6.49"/>
			<line class="st2" x1="-18.3" y1="84.86" x2="84.36" y2="-17.8"/>
			<line class="st2" x1="-29.62" y1="73.55" x2="73.05" y2="-29.12"/>
			<line class="st2" x1="-40.93" y1="62.24" x2="61.74" y2="-40.43"/>
			<line class="st3" x1="-52.25" y1="50.92" x2="50.42" y2="-51.75"/>
		</g>
	</g>
	<g>
		<defs>
			<path id="SVGID_3_" d="M88,100.5H12c-6.6,0-12-5.4-12-12v-76c0-6.6,5.4-12,12-12h76c6.6,0,12,5.4,12,12v76
				C100,95.1,94.6,100.5,88,100.5z"/>
		</defs>
		<clipPath id="SVGID_4_">
			<use xlink:href="#SVGID_3_"  style="overflow:visible;"/>
		</clipPath>
		<g class="st4">
			<path class="st5" d="M59.43,86.61H41.41c-15.23,0-27.69-12.46-27.69-27.69l2.98-21.26c0-15.23,11.45-27.69,25.44-27.69H58.7
				c13.99,0,25.44,12.46,25.44,27.69l2.98,21.26C87.12,74.15,74.66,86.61,59.43,86.61z"/>
			<path class="st5" d="M13.72,66.57"/>
			<path class="st5" d="M-2.13,145c-5.83-17.12,20.47-62.37,17.55-83.78h69.99C86.45,96.38,110.66,119.96,106,145"/>
			<path class="st5" d="M47.91,30.67c-5.09,19.94-28.05,28-16.59,41.83c0.5,0.6,0.8,1.34,0.76,2.12
				c-1.41,24.32-25.32,53.34-22.44,68.02c0.27,1.39,1.53,2.37,2.95,2.37h77.4c1.68,0,3.07-1.37,3.01-3.05
				c-0.75-20.14-19.88-49.97-21.63-66.83c-0.07-0.66,0.13-1.32,0.49-1.88C82.05,57.03,57.3,50.62,52.94,30.53
				C52.47,28.4,48.44,28.56,47.91,30.67z"/>
			<g>
				<path class="st5" d="M37.24,43.86h-1.49c-0.95,0-1.73-0.78-1.73-1.73v-6.11c0-0.95,0.78-1.73,1.73-1.73h1.49
					c0.95,0,1.73,0.78,1.73,1.73v6.11C38.97,43.08,38.19,43.86,37.24,43.86z"/>
				<path class="st5" d="M65.1,43.86h-1.5c-0.95,0-1.73-0.78-1.73-1.73v-6.11c0-0.95,0.78-1.73,1.73-1.73h1.49
					c0.95,0,1.73,0.78,1.73,1.73v6.11C66.83,43.08,66.05,43.86,65.1,43.86z"/>
			</g>
			<path class="st5" d="M55.45,57.49h-8.18c-1.01,0-1.83-0.82-1.83-1.83v-3.22c0-1.01,0.82-1.83,1.83-1.83h8.18
				c1.01,0,1.83,0.82,1.83,1.83v3.22C57.29,56.67,56.46,57.49,55.45,57.49z"/>
			<g>
				<path class="st5" d="M51.36,64.44c0,1.46-2.45,4.27-5.48,4.27s-5.48-2.81-5.48-4.27"/>
				<path class="st5" d="M62.31,64.44c0,1.46-2.45,4.27-5.48,4.27s-5.48-2.81-5.48-4.27"/>
			</g>
			<g>
				<path class="st5" d="M36.67,25.59l-7.25,5.09c-4.1,2.88-9.38,2.5-11.73-0.84L12.4,17.97c-2.35-3.35-1.53-8,1.81-10.35l5.91-4.15
					c3.35-2.35,8-1.53,10.35,1.81l9.38,9C42.21,17.62,40.77,22.71,36.67,25.59z"/>
				<path class="st5" d="M31.79,21.54l-5.12,3.59c-2.9,2.03-6.62,1.77-8.28-0.59l-3.73-8.38c-1.66-2.36-1.08-5.65,1.28-7.31
					l4.17-2.93c2.36-1.66,5.65-1.08,7.31,1.28l6.62,6.35C35.7,15.91,34.68,19.51,31.79,21.54z"/>
				<path class="st5" d="M22.24,20.88l-9.84-2.92c-2.35-3.35-1.53-8,1.81-10.35l5.91-4.15c3.35-2.35,8-1.53,10.35,1.81l-0.6,10.24
					C29.6,19.66,26.42,21.77,22.24,20.88z"/>
			</g>
			<g>
				<path class="st5" d="M64.06,25.75l7.25,5.09c4.1,2.88,9.38,2.5,11.73-0.84l5.28-11.88c2.35-3.35,1.53-8-1.81-10.35L80.6,3.62
					c-3.35-2.35-8-1.53-10.35,1.81l-9.38,9C58.52,17.77,59.95,22.87,64.06,25.75z"/>
				<path class="st5" d="M69.05,21.54l5.12,3.59c2.9,2.03,6.62,1.77,8.28-0.59l3.73-8.38c1.66-2.36,1.08-5.65-1.28-7.31l-4.17-2.93
					c-2.36-1.66-5.65-1.08-7.31,1.28l-6.62,6.35C65.14,15.91,66.15,19.51,69.05,21.54z"/>
				<path class="st5" d="M78.49,21.04l9.84-2.92c2.35-3.35,1.53-8-1.81-10.35L80.6,3.62c-3.35-2.35-8-1.53-10.35,1.81l0.6,10.24
					C71.13,19.81,74.31,21.92,78.49,21.04z"/>
			</g>
		</g>
	</g>
	<g>
		<defs>
			<path id="SVGID_5_" d="M88,100.5H12c-6.6,0-12-5.4-12-12v-76c0-6.6,5.4-12,12-12h76c6.6,0,12,5.4,12,12v76
				C100,95.1,94.6,100.5,88,100.5z"/>
		</defs>
		<clipPath id="SVGID_6_">
			<use xlink:href="#SVGID_5_"  style="overflow:visible;"/>
		</clipPath>
		<line class="st6" x1="-9.69" y1="-64.55" x2="-9.69" y2="43.58"/>
	</g>
</g>
<g>
	<text transform="matrix(1 0 0 1 42.7742 54.793)" class="st7 st8">?</text>
	<text transform="matrix(0.978 -0.2084 0.2084 0.978 35.5918 62.4057)" class="st7 st9">?</text>
	<text transform="matrix(0.9781 0.2082 -0.2082 0.9781 56.11 59.2576)" class="st7 st10">?</text>
</g>
</svg>
